<?xml version="1.0" encoding="utf-8"?>
<!-- Generator: Adobe Illustrator 17.1.0, SVG Export Plug-In . SVG Version: 6.00 Build 0)  -->
<!DOCTYPE svg PUBLIC "-//W3C//DTD SVG 1.1//EN" "http://www.w3.org/Graphics/SVG/1.1/DTD/svg11.dtd">
<svg version="1.1" id="Layer_1" xmlns="http://www.w3.org/2000/svg" xmlns:xlink="http://www.w3.org/1999/xlink" x="0px" y="0px"
	 width="1440px" height="561px" viewBox="0 0 1440 561" enable-background="new 0 0 1440 561" xml:space="preserve">
<rect x="0" y="0.1" fill="#213235" width="1440" height="560.7"/>
<g opacity="0.12">
	<g>
		<defs>
			<rect id="SVGID_1_" x="-0.5" width="1440" height="561"/>
		</defs>
		<clipPath id="SVGID_2_">
			<use xlink:href="#SVGID_1_"  overflow="visible"/>
		</clipPath>
		<g clip-path="url(#SVGID_2_)">
			<g>
				<defs>
					<rect id="SVGID_3_" x="1116.5" y="-39" width="570" height="400"/>
				</defs>
				<clipPath id="SVGID_4_">
					<use xlink:href="#SVGID_3_"  overflow="visible"/>
				</clipPath>
				<g clip-path="url(#SVGID_4_)">
					<g>
						<path fill="#121B1C" d="M1578.4,400.7c-1.2-0.7-1.6-2.3-0.8-3.4l29.5-48.8c0.3-0.6,0.9-1,1.5-1.2l0.6-0.1
							c0.6-0.2,1.3,0,1.8,0.4l37.7,22.8c1.2,0.7,1.6,2.2,0.9,3.3c-0.6,0.9-1.6,1.3-2.6,1.1l-16.6,4l4.5,15.8c0.7,0.8,0.8,2.1,0.2,3
							c-0.7,1.2-2.3,1.6-3.5,0.9l-35.9-21.7l-13.9,22.9C1581.1,401,1579.5,401.4,1578.4,400.7z M1598.2,372.6l30.1,18.2l-3.7-13
							c-0.2-0.7-0.1-1.4,0.3-2c0.3-0.6,0.9-0.9,1.5-1.1l14-3.4l-30.4-18.4L1598.2,372.6z"/>
						<path fill="#121B1C" d="M1601.2,399.9l-13.9-22.9l-35.9,21.7c-1.2,0.7-2.8,0.3-3.5-0.9c-0.6-0.9-0.5-2.2,0.2-3l4.5-15.8
							l-16.6-4c-1,0.2-2-0.2-2.6-1.1c-0.7-1.2-0.3-2.6,0.9-3.3l37.7-22.8c0.6-0.3,1.2-0.5,1.8-0.4l0.6,0.1c0.6,0.2,1.2,0.6,1.5,1.2
							l29.5,48.8c0.7,1.2,0.3,2.7-0.8,3.4C1603.5,401.4,1601.9,401,1601.2,399.9z M1572.8,353l-30.4,18.4l14,3.4
							c0.7,0.2,1.2,0.5,1.5,1.1c0.3,0.6,0.5,1.3,0.3,2l-3.7,13l30.1-18.2L1572.8,353z"/>
					</g>
				</g>
				<g clip-path="url(#SVGID_4_)">
					<g>
						<path fill="#121B1C" d="M1388.4,334c-1.2-0.7-1.6-2.3-0.8-3.4l29.5-48.8c0.3-0.6,0.9-1,1.5-1.2l0.6-0.1c0.6-0.2,1.3,0,1.8,0.4
							l37.7,22.8c1.2,0.7,1.6,2.2,0.9,3.3c-0.6,0.9-1.6,1.3-2.6,1.1l-16.6,4l4.5,15.8c0.7,0.8,0.8,2.1,0.2,3
							c-0.7,1.2-2.3,1.6-3.5,0.9l-35.9-21.7l-13.9,22.9C1391.1,334.4,1389.5,334.7,1388.4,334z M1408.2,306l30.1,18.2l-3.7-13
							c-0.2-0.7-0.1-1.4,0.3-2c0.3-0.6,0.9-0.9,1.5-1.1l14-3.4l-30.4-18.4L1408.2,306z"/>
						<path fill="#121B1C" d="M1411.2,333.2l-13.9-22.9l-35.9,21.7c-1.2,0.7-2.8,0.3-3.5-0.9c-0.6-0.9-0.5-2.2,0.2-3l4.5-15.8
							l-16.6-4c-1,0.2-2-0.2-2.6-1.1c-0.7-1.2-0.3-2.6,0.9-3.3l37.7-22.8c0.6-0.3,1.2-0.5,1.8-0.4l0.6,0.1c0.6,0.2,1.2,0.6,1.5,1.2
							l29.5,48.8c0.7,1.2,0.3,2.7-0.8,3.4S1411.9,334.4,1411.2,333.2z M1382.8,286.3l-30.4,18.4l14,3.4c0.7,0.2,1.2,0.5,1.5,1.1
							c0.3,0.6,0.5,1.3,0.3,2l-3.7,13l30.1-18.2L1382.8,286.3z"/>
					</g>
				</g>
				<g clip-path="url(#SVGID_4_)">
					<g>
						<path fill="#121B1C" d="M1198.4,267.4c-1.2-0.7-1.6-2.3-0.8-3.4l29.5-48.8c0.3-0.6,0.9-1,1.5-1.2l0.6-0.1
							c0.6-0.2,1.3,0,1.8,0.4l37.7,22.8c1.2,0.7,1.6,2.2,0.9,3.3c-0.6,0.9-1.6,1.3-2.6,1.1l-16.6,4l4.5,15.8c0.7,0.8,0.8,2.1,0.2,3
							c-0.7,1.2-2.3,1.6-3.5,0.9l-35.9-21.7l-13.9,22.9C1201.1,267.7,1199.5,268.1,1198.4,267.4z M1218.2,239.3l30.1,18.2l-3.7-13
							c-0.2-0.7-0.1-1.4,0.3-2c0.3-0.6,0.9-0.9,1.5-1.1l14-3.4l-30.4-18.4L1218.2,239.3z"/>
						<path fill="#121B1C" d="M1221.2,266.5l-13.9-22.9l-35.9,21.7c-1.2,0.7-2.8,0.3-3.5-0.9c-0.6-0.9-0.5-2.2,0.2-3l4.5-15.8
							l-16.6-4c-1,0.2-2-0.2-2.6-1.1c-0.7-1.2-0.3-2.6,0.9-3.3l37.7-22.8c0.6-0.3,1.2-0.5,1.8-0.4l0.6,0.1c0.6,0.2,1.2,0.6,1.5,1.2
							l29.5,48.8c0.7,1.2,0.3,2.7-0.8,3.4C1223.5,268.1,1221.9,267.7,1221.2,266.5z M1192.8,219.6l-30.4,18.4l14,3.4
							c0.7,0.2,1.2,0.5,1.5,1.1c0.3,0.6,0.5,1.3,0.3,2l-3.7,13l30.1-18.2L1192.8,219.6z"/>
					</g>
					<g>
						<path fill="#121B1C" d="M1235.5,316.6c-0.1,0-1,0-1,0v-3.2c0-1.4,0.3-2.4-1.1-2.4h-43c-1.4,0-3.9,1-3.9,2.4v3.2
							c0,0,0.6,0,0.5,0c-4.3,0.6-7,4.6-6.4,8.9c0.5,4,4.1,6.8,8,6.8c0.2,0,0.6,0,0.8,0c2.6,6.7,8.2,11.9,15.1,14.1
							c0.2,2,0.7,9.1-2.9,13.3c-0.6,0.7-0.8,1.8-0.3,2.7c0.4,0.9,1.3,1.5,2.3,1.5h17.6c1,0,1.9-0.6,2.3-1.5c0.4-0.9,0.3-1.9-0.4-2.7
							c-4.2-5-2.9-13.5-2.8-13.7c6.4-2.4,11.5-7.4,14-13.8c0.3,0,0.6,0.1,0.9,0.1c3.9,0,6.9-2.9,7.5-6.8
							C1243.2,321.2,1239.8,317.2,1235.5,316.6z M1185.2,324.9c-0.2-1.4-0.7-2.7,1.3-3.2v2.2c0,1.2,0.4,2.3,0.6,3.4
							C1186,327,1185.4,326.1,1185.2,324.9z M1216.9,359h-8.8c1.8-4,1.8-8.7,1.7-11.5c0.7,0.1,1.5,0.1,2.2,0.1c1.1,0,2.2,0,3.2-0.2
							C1215,350.1,1215,355,1216.9,359z M1229.5,323.6c0,10.5-8.5,19-19,19s-19-8.4-19-18.8V316h38V323.6z M1237.3,324.9
							c-0.2,1.3-1.5,2.3-2.8,2.5c0.2-1.2-0.1-2.4-0.1-3.7v-2C1235.5,322,1237.5,323.4,1237.3,324.9z"/>
						<path fill="#121B1C" d="M1228.5,372.5c0,1.4-1.1,2.5-2.5,2.5h-30c-1.4,0-2.5-1.1-2.5-2.5v-11c0-1.4,1.1-2.5,2.5-2.5h30
							c1.4,0,2.5,1.1,2.5,2.5V372.5z M1198.5,370h25v-6h-25V370z"/>
					</g>
				</g>
				<g clip-path="url(#SVGID_4_)">
					<g>
						<path fill="#121B1C" d="M1578.4,200.7c-1.2-0.7-1.6-2.3-0.8-3.4l29.5-48.8c0.3-0.6,0.9-1,1.5-1.2l0.6-0.1
							c0.6-0.2,1.3,0,1.8,0.4l37.7,22.8c1.2,0.7,1.6,2.2,0.9,3.3c-0.6,0.9-1.6,1.3-2.6,1.1l-16.6,4l4.5,15.8c0.7,0.8,0.8,2.1,0.2,3
							c-0.7,1.2-2.3,1.6-3.5,0.9l-35.9-21.7l-13.9,22.9C1581.1,201,1579.5,201.4,1578.4,200.7z M1598.2,172.6l30.1,18.2l-3.7-13
							c-0.2-0.7-0.1-1.4,0.3-2c0.3-0.6,0.9-0.9,1.5-1.1l14-3.4l-30.4-18.4L1598.2,172.6z"/>
						<path fill="#121B1C" d="M1601.2,199.9l-13.9-22.9l-35.9,21.7c-1.2,0.7-2.8,0.3-3.5-0.9c-0.6-0.9-0.5-2.2,0.2-3l4.5-15.8
							l-16.6-4c-1,0.2-2-0.2-2.6-1.1c-0.7-1.2-0.3-2.6,0.9-3.3l37.7-22.8c0.6-0.3,1.2-0.5,1.8-0.4l0.6,0.1c0.6,0.2,1.2,0.6,1.5,1.2
							l29.5,48.8c0.7,1.2,0.3,2.7-0.8,3.4C1603.5,201.4,1601.9,201,1601.2,199.9z M1572.8,153l-30.4,18.4l14,3.4
							c0.7,0.2,1.2,0.5,1.5,1.1c0.3,0.6,0.5,1.3,0.3,2l-3.7,13l30.1-18.2L1572.8,153z"/>
					</g>
					<g>
						<path fill="#121B1C" d="M1615.5,249.9c-0.1,0-1,0-1,0v-3.2c0-1.4,0.3-2.7-1.1-2.7h-43c-1.4,0-3.9,1.4-3.9,2.7v3.2
							c0,0,0.6,0,0.5,0c-4.3,0.6-7,4.6-6.4,8.9c0.5,4,4.1,6.8,8,6.8c0.2,0,0.6,0,0.8,0c2.6,6.7,8.2,11.9,15.1,14.1
							c0.2,2,0.7,9.1-2.9,13.3c-0.6,0.7-0.8,1.7-0.3,2.5c0.4,0.9,1.3,1.3,2.3,1.3h17.6c1,0,1.9-0.4,2.3-1.3c0.4-0.9,0.3-1.9-0.4-2.6
							c-4.2-5-2.9-13.5-2.8-13.7c6.4-2.4,11.5-7.4,14-13.7c0.3,0,0.6,0.1,0.9,0.1c3.9,0,6.9-2.9,7.5-6.8
							C1623.2,254.5,1619.8,250.5,1615.5,249.9z M1565.2,258.2c-0.2-1.4-0.7-2.7,1.3-3.2v2.2c0,1.2,0.4,2.3,0.6,3.4
							C1566,260.4,1565.4,259.4,1565.2,258.2z M1596.9,292h-8.8c1.8-4,1.8-8.6,1.7-11.3c0.7,0.1,1.5,0.2,2.2,0.2
							c1.1,0,2.2-0.2,3.2-0.3C1595,283.2,1595,288,1596.9,292z M1609.5,257c0,10.5-8.5,19-19,19s-19-8.4-19-18.8V249h38V257z
							 M1617.3,258.2c-0.2,1.3-1.5,2.3-2.8,2.5c0.2-1.2-0.1-2.4-0.1-3.7v-2C1615.5,255.4,1617.5,256.7,1617.3,258.2z"/>
						<path fill="#121B1C" d="M1608.5,305.5c0,1.4-1.1,2.5-2.5,2.5h-30c-1.4,0-2.5-1.1-2.5-2.5v-11c0-1.4,1.1-2.5,2.5-2.5h30
							c1.4,0,2.5,1.1,2.5,2.5V305.5z M1578.5,303h25v-6h-25V303z"/>
					</g>
				</g>
				<g clip-path="url(#SVGID_4_)">
					<g>
						<path fill="#121B1C" d="M1388.4,134c-1.2-0.7-1.6-2.3-0.8-3.4l29.5-48.8c0.3-0.6,0.9-1,1.5-1.2l0.6-0.1c0.6-0.2,1.3,0,1.8,0.4
							l37.7,22.8c1.2,0.7,1.6,2.2,0.9,3.3c-0.6,0.9-1.6,1.3-2.6,1.1l-16.6,4l4.5,15.8c0.7,0.8,0.8,2.1,0.2,3
							c-0.7,1.2-2.3,1.6-3.5,0.9l-35.9-21.7l-13.9,22.9C1391.1,134.4,1389.5,134.7,1388.4,134z M1408.2,106l30.1,18.2l-3.7-13
							c-0.2-0.7-0.1-1.4,0.3-2c0.3-0.6,0.9-0.9,1.5-1.1l14-3.4l-30.4-18.4L1408.2,106z"/>
						<path fill="#121B1C" d="M1411.2,133.2l-13.9-22.9l-35.9,21.7c-1.2,0.7-2.8,0.3-3.5-0.9c-0.6-0.9-0.5-2.2,0.2-3l4.5-15.8
							l-16.6-4c-1,0.2-2-0.2-2.6-1.1c-0.7-1.2-0.3-2.6,0.9-3.3l37.7-22.8c0.6-0.3,1.2-0.5,1.8-0.4l0.6,0.1c0.6,0.2,1.2,0.6,1.5,1.2
							l29.5,48.8c0.7,1.2,0.3,2.7-0.8,3.4S1411.9,134.4,1411.2,133.2z M1382.8,86.3l-30.4,18.4l14,3.4c0.7,0.2,1.2,0.5,1.5,1.1
							c0.3,0.6,0.5,1.3,0.3,2l-3.7,13l30.1-18.2L1382.8,86.3z"/>
					</g>
					<g>
						<path fill="#121B1C" d="M1425.5,183.3c-0.1,0-1,0-1,0v-3.2c0-1.4,0.3-3.1-1.1-3.1h-43c-1.4,0-3.9,1.7-3.9,3.1v3.2
							c0,0,0.6,0,0.5,0c-4.3,0.6-7,4.6-6.4,8.9c0.5,4,4.1,6.8,8,6.8c0.2,0,0.6,0,0.8,0c2.6,6.7,8.2,11.9,15.1,14.1
							c0.2,2,0.7,9.1-2.9,13.3c-0.6,0.7-0.8,1.5-0.3,2.4c0.4,0.9,1.3,1.2,2.3,1.2h17.6c1,0,1.9-0.3,2.3-1.2c0.4-0.9,0.3-1.8-0.4-2.5
							c-4.2-5-2.9-13.4-2.8-13.6c6.4-2.4,11.5-7.4,14-13.7c0.3,0,0.6,0.1,0.9,0.1c3.9,0,6.9-2.9,7.5-6.8
							C1433.2,187.9,1429.8,183.9,1425.5,183.3z M1375.2,191.5c-0.2-1.4-0.7-2.7,1.3-3.2v2.2c0,1.2,0.4,2.3,0.6,3.4
							C1376,193.7,1375.4,192.8,1375.2,191.5z M1406.9,225h-8.8c1.8-4,1.8-8.4,1.7-11.1c0.7,0.1,1.5,0.3,2.2,0.3
							c1.1,0,2.2-0.3,3.2-0.4C1405,216.3,1405,221,1406.9,225z M1419.5,190.3c0,10.5-8.5,19-19,19s-19-8.4-19-18.8V182h38V190.3z
							 M1427.3,191.5c-0.2,1.3-1.5,2.3-2.8,2.5c0.2-1.2-0.1-2.4-0.1-3.7v-2C1425.5,188.7,1427.5,190.1,1427.3,191.5z"/>
						<path fill="#121B1C" d="M1418.5,238.5c0,1.4-1.1,2.5-2.5,2.5h-30c-1.4,0-2.5-1.1-2.5-2.5v-11c0-1.4,1.1-2.5,2.5-2.5h30
							c1.4,0,2.5,1.1,2.5,2.5V238.5z M1388.5,236h25v-6h-25V236z"/>
					</g>
				</g>
				<g clip-path="url(#SVGID_4_)">
					<g>
						<path fill="#121B1C" d="M1198.4,67.4c-1.2-0.7-1.6-2.3-0.8-3.4l29.5-48.8c0.3-0.6,0.9-1,1.5-1.2l0.6-0.1
							c0.6-0.2,1.3,0,1.8,0.4l37.7,22.8c1.2,0.7,1.6,2.2,0.9,3.3c-0.6,0.9-1.6,1.3-2.6,1.1l-16.6,4l4.5,15.8c0.7,0.8,0.8,2.1,0.2,3
							c-0.7,1.2-2.3,1.6-3.5,0.9l-35.9-21.7l-13.9,22.9C1201.1,67.7,1199.5,68.1,1198.4,67.4z M1218.2,39.3l30.1,18.2l-3.7-13
							c-0.2-0.7-0.1-1.4,0.3-2c0.3-0.6,0.9-0.9,1.5-1.1l14-3.4l-30.4-18.4L1218.2,39.3z"/>
						<path fill="#121B1C" d="M1221.2,66.5l-13.9-22.9l-35.9,21.7c-1.2,0.7-2.8,0.3-3.5-0.9c-0.6-0.9-0.5-2.2,0.2-3l4.5-15.8
							l-16.6-4c-1,0.2-2-0.2-2.6-1.1c-0.7-1.2-0.3-2.6,0.9-3.3l37.7-22.8c0.6-0.3,1.2-0.5,1.8-0.4l0.6,0.1c0.6,0.2,1.2,0.6,1.5,1.2
							l29.5,48.8c0.7,1.2,0.3,2.7-0.8,3.4C1223.5,68.1,1221.9,67.7,1221.2,66.5z M1192.8,19.6L1162.4,38l14,3.4
							c0.7,0.2,1.2,0.5,1.5,1.1c0.3,0.6,0.5,1.3,0.3,2l-3.7,13l30.1-18.2L1192.8,19.6z"/>
					</g>
					<g>
						<path fill="#121B1C" d="M1235.5,116.6c-0.1,0-1,0-1,0v-3.2c0-1.4,0.3-2.4-1.1-2.4h-43c-1.4,0-3.9,1-3.9,2.4v3.2
							c0,0,0.6,0,0.5,0c-4.3,0.6-7,4.6-6.4,8.9c0.5,4,4.1,6.8,8,6.8c0.2,0,0.6,0,0.8,0c2.6,6.7,8.2,11.9,15.1,14.1
							c0.2,2,0.7,9.1-2.9,13.3c-0.6,0.7-0.8,1.8-0.3,2.7c0.4,0.9,1.3,1.5,2.3,1.5h17.6c1,0,1.9-0.6,2.3-1.5c0.4-0.9,0.3-1.9-0.4-2.7
							c-4.2-5-2.9-13.5-2.8-13.7c6.4-2.4,11.5-7.4,14-13.8c0.3,0,0.6,0.1,0.9,0.1c3.9,0,6.9-2.9,7.5-6.8
							C1243.2,121.2,1239.8,117.2,1235.5,116.6z M1185.2,124.9c-0.2-1.4-0.7-2.7,1.3-3.2v2.2c0,1.2,0.4,2.3,0.6,3.4
							C1186,127,1185.4,126.1,1185.2,124.9z M1216.9,159h-8.8c1.8-4,1.8-8.7,1.7-11.5c0.7,0.1,1.5,0.1,2.2,0.1c1.1,0,2.2,0,3.2-0.2
							C1215,150.1,1215,155,1216.9,159z M1229.5,123.6c0,10.5-8.5,19-19,19s-19-8.4-19-18.8V116h38V123.6z M1237.3,124.9
							c-0.2,1.3-1.5,2.3-2.8,2.5c0.2-1.2-0.1-2.4-0.1-3.7v-2C1235.5,122,1237.5,123.4,1237.3,124.9z"/>
						<path fill="#121B1C" d="M1228.5,172.5c0,1.4-1.1,2.5-2.5,2.5h-30c-1.4,0-2.5-1.1-2.5-2.5v-11c0-1.4,1.1-2.5,2.5-2.5h30
							c1.4,0,2.5,1.1,2.5,2.5V172.5z M1198.5,170h25v-6h-25V170z"/>
					</g>
				</g>
				<g clip-path="url(#SVGID_4_)">
					<g>
						<path fill="#121B1C" d="M1578.4,0.7c-1.2-0.7-1.6-2.3-0.8-3.4l29.5-48.8c0.3-0.6,0.9-1,1.5-1.2l0.6-0.1c0.6-0.2,1.3,0,1.8,0.4
							l37.7,22.8c1.2,0.7,1.6,2.2,0.9,3.3c-0.6,0.9-1.6,1.3-2.6,1.1l-16.6,4l4.5,15.8c0.7,0.8,0.8,2.1,0.2,3
							c-0.7,1.2-2.3,1.6-3.5,0.9l-35.9-21.7l-13.9,22.9C1581.1,1,1579.5,1.4,1578.4,0.7z M1598.2-27.4l30.1,18.2l-3.7-13
							c-0.2-0.7-0.1-1.4,0.3-2c0.3-0.6,0.9-0.9,1.5-1.1l14-3.4L1610.1-47L1598.2-27.4z"/>
						<path fill="#121B1C" d="M1601.2-0.1l-13.9-22.9l-35.9,21.7c-1.2,0.7-2.8,0.3-3.5-0.9c-0.6-0.9-0.5-2.2,0.2-3l4.5-15.8l-16.6-4
							c-1,0.2-2-0.2-2.6-1.1c-0.7-1.2-0.3-2.6,0.9-3.3l37.7-22.8c0.6-0.3,1.2-0.5,1.8-0.4l0.6,0.1c0.6,0.2,1.2,0.6,1.5,1.2
							l29.5,48.8c0.7,1.2,0.3,2.7-0.8,3.4S1601.9,1,1601.2-0.1z M1572.8-47l-30.4,18.4l14,3.4c0.7,0.2,1.2,0.5,1.5,1.1
							c0.3,0.6,0.5,1.3,0.3,2l-3.7,13l30.1-18.2L1572.8-47z"/>
					</g>
					<g>
						<path fill="#121B1C" d="M1615.5,49.9c-0.1,0-1,0-1,0v-3.2c0-1.4,0.3-2.7-1.1-2.7h-43c-1.4,0-3.9,1.4-3.9,2.7v3.2
							c0,0,0.6,0,0.5,0c-4.3,0.6-7,4.6-6.4,8.9c0.5,4,4.1,6.8,8,6.8c0.2,0,0.6,0,0.8,0c2.6,6.7,8.2,11.9,15.1,14.1
							c0.2,2,0.7,9.1-2.9,13.3c-0.6,0.7-0.8,1.7-0.3,2.5c0.4,0.9,1.3,1.3,2.3,1.3h17.6c1,0,1.9-0.4,2.3-1.3c0.4-0.9,0.3-1.9-0.4-2.6
							c-4.2-5-2.9-13.5-2.8-13.7c6.4-2.4,11.5-7.4,14-13.7c0.3,0,0.6,0.1,0.9,0.1c3.9,0,6.9-2.9,7.5-6.8
							C1623.2,54.5,1619.8,50.5,1615.5,49.9z M1565.2,58.2c-0.2-1.4-0.7-2.7,1.3-3.2v2.2c0,1.2,0.4,2.3,0.6,3.4
							C1566,60.4,1565.4,59.4,1565.2,58.2z M1596.9,92h-8.8c1.8-4,1.8-8.6,1.7-11.3c0.7,0.1,1.5,0.2,2.2,0.2c1.1,0,2.2-0.2,3.2-0.3
							C1595,83.2,1595,88,1596.9,92z M1609.5,57c0,10.5-8.5,19-19,19s-19-8.4-19-18.8V49h38V57z M1617.3,58.2
							c-0.2,1.3-1.5,2.3-2.8,2.5c0.2-1.2-0.1-2.4-0.1-3.7v-2C1615.5,55.4,1617.5,56.7,1617.3,58.2z"/>
						<path fill="#121B1C" d="M1608.5,105.5c0,1.4-1.1,2.5-2.5,2.5h-30c-1.4,0-2.5-1.1-2.5-2.5v-11c0-1.4,1.1-2.5,2.5-2.5h30
							c1.4,0,2.5,1.1,2.5,2.5V105.5z M1578.5,103h25v-6h-25V103z"/>
					</g>
				</g>
				<g clip-path="url(#SVGID_4_)">
					<g>
						<path fill="#121B1C" d="M1425.5-16.7c-0.1,0-1,0-1,0v-3.2c0-1.4,0.3-3.1-1.1-3.1h-43c-1.4,0-3.9,1.7-3.9,3.1v3.2
							c0,0,0.6,0,0.5,0c-4.3,0.6-7,4.6-6.4,8.9c0.5,4,4.1,6.8,8,6.8c0.2,0,0.6,0,0.8,0c2.6,6.7,8.2,11.9,15.1,14.1
							c0.2,2,0.7,9.1-2.9,13.3c-0.6,0.7-0.8,1.5-0.3,2.4c0.4,0.9,1.3,1.2,2.3,1.2h17.6c1,0,1.9-0.3,2.3-1.2c0.4-0.9,0.3-1.8-0.4-2.5
							c-4.2-5-2.9-13.4-2.8-13.6c6.4-2.4,11.5-7.4,14-13.7c0.3,0,0.6,0.1,0.9,0.1c3.9,0,6.9-2.9,7.5-6.8
							C1433.2-12.1,1429.8-16.1,1425.5-16.7z M1375.2-8.5c-0.2-1.4-0.7-2.7,1.3-3.2v2.2c0,1.2,0.4,2.3,0.6,3.4
							C1376-6.3,1375.4-7.2,1375.2-8.5z M1406.9,25h-8.8c1.8-4,1.8-8.4,1.7-11.1c0.7,0.1,1.5,0.3,2.2,0.3c1.1,0,2.2-0.3,3.2-0.4
							C1405,16.3,1405,21,1406.9,25z M1419.5-9.7c0,10.5-8.5,19-19,19s-19-8.4-19-18.8V-18h38V-9.7z M1427.3-8.5
							c-0.2,1.3-1.5,2.3-2.8,2.5c0.2-1.2-0.1-2.4-0.1-3.7v-2C1425.5-11.3,1427.5-9.9,1427.3-8.5z"/>
						<path fill="#121B1C" d="M1418.5,38.5c0,1.4-1.1,2.5-2.5,2.5h-30c-1.4,0-2.5-1.1-2.5-2.5v-11c0-1.4,1.1-2.5,2.5-2.5h30
							c1.4,0,2.5,1.1,2.5,2.5V38.5z M1388.5,36h25v-6h-25V36z"/>
					</g>
				</g>
				<g clip-path="url(#SVGID_4_)">
					<g>
						<path fill="#121B1C" d="M1235.5-83.4c-0.1,0-1,0-1,0v-3.2c0-1.4,0.3-2.4-1.1-2.4h-43c-1.4,0-3.9,1-3.9,2.4v3.2
							c0,0,0.6,0,0.5,0c-4.3,0.6-7,4.6-6.4,8.9c0.5,4,4.1,6.8,8,6.8c0.2,0,0.6,0,0.8,0c2.6,6.7,8.2,11.9,15.1,14.1
							c0.2,2,0.7,9.1-2.9,13.3c-0.6,0.7-0.8,1.8-0.3,2.7c0.4,0.9,1.3,1.5,2.3,1.5h17.6c1,0,1.9-0.6,2.3-1.5c0.4-0.9,0.3-1.9-0.4-2.7
							c-4.2-5-2.9-13.5-2.8-13.7c6.4-2.4,11.5-7.4,14-13.8c0.3,0,0.6,0.1,0.9,0.1c3.9,0,6.9-2.9,7.5-6.8
							C1243.2-78.8,1239.8-82.8,1235.5-83.4z M1185.2-75.1c-0.2-1.4-0.7-2.7,1.3-3.2v2.2c0,1.2,0.4,2.3,0.6,3.4
							C1186-73,1185.4-73.9,1185.2-75.1z M1216.9-41h-8.8c1.8-4,1.8-8.7,1.7-11.5c0.7,0.1,1.5,0.1,2.2,0.1c1.1,0,2.2,0,3.2-0.2
							C1215-49.9,1215-45,1216.9-41z M1229.5-76.4c0,10.5-8.5,19-19,19s-19-8.4-19-18.8V-84h38V-76.4z M1237.3-75.1
							c-0.2,1.3-1.5,2.3-2.8,2.5c0.2-1.2-0.1-2.4-0.1-3.7v-2C1235.5-78,1237.5-76.6,1237.3-75.1z"/>
						<path fill="#121B1C" d="M1228.5-27.5c0,1.4-1.1,2.5-2.5,2.5h-30c-1.4,0-2.5-1.1-2.5-2.5v-11c0-1.4,1.1-2.5,2.5-2.5h30
							c1.4,0,2.5,1.1,2.5,2.5V-27.5z M1198.5-30h25v-6h-25V-30z"/>
					</g>
				</g>
			</g>
		</g>
		<g clip-path="url(#SVGID_2_)">
			<g>
				<defs>
					<rect id="SVGID_5_" x="1116.5" y="361" width="570" height="400"/>
				</defs>
				<clipPath id="SVGID_6_">
					<use xlink:href="#SVGID_5_"  overflow="visible"/>
				</clipPath>
				<g clip-path="url(#SVGID_6_)">
					<g>
						<path fill="#121B1C" d="M1578.4,800.7c-1.2-0.7-1.6-2.3-0.8-3.4l29.5-48.8c0.3-0.6,0.9-1,1.5-1.2l0.6-0.1
							c0.6-0.2,1.3,0,1.8,0.4l37.7,22.8c1.2,0.7,1.6,2.2,0.9,3.3c-0.6,0.9-1.6,1.3-2.6,1.1l-16.6,4l4.5,15.8c0.7,0.8,0.8,2.1,0.2,3
							c-0.7,1.2-2.3,1.6-3.5,0.9l-35.9-21.7l-13.9,22.9C1581.1,801,1579.5,801.4,1578.4,800.7z M1598.2,772.6l30.1,18.2l-3.7-13
							c-0.2-0.7-0.1-1.4,0.3-2c0.3-0.6,0.9-0.9,1.5-1.1l14-3.4l-30.4-18.4L1598.2,772.6z"/>
						<path fill="#121B1C" d="M1601.2,799.9l-13.9-22.9l-35.9,21.7c-1.2,0.7-2.8,0.3-3.5-0.9c-0.6-0.9-0.5-2.2,0.2-3l4.5-15.8
							l-16.6-4c-1,0.2-2-0.2-2.6-1.1c-0.7-1.2-0.3-2.6,0.9-3.3l37.7-22.8c0.6-0.3,1.2-0.5,1.8-0.4l0.6,0.1c0.6,0.2,1.2,0.6,1.5,1.2
							l29.5,48.8c0.7,1.2,0.3,2.7-0.8,3.4C1603.5,801.4,1601.9,801,1601.2,799.9z M1572.8,753l-30.4,18.4l14,3.4
							c0.7,0.2,1.2,0.5,1.5,1.1c0.3,0.6,0.5,1.3,0.3,2l-3.7,13l30.1-18.2L1572.8,753z"/>
					</g>
				</g>
				<g clip-path="url(#SVGID_6_)">
					<g>
						<path fill="#121B1C" d="M1388.4,734c-1.2-0.7-1.6-2.3-0.8-3.4l29.5-48.8c0.3-0.6,0.9-1,1.5-1.2l0.6-0.1c0.6-0.2,1.3,0,1.8,0.4
							l37.7,22.8c1.2,0.7,1.6,2.2,0.9,3.3c-0.6,0.9-1.6,1.3-2.6,1.1l-16.6,4l4.5,15.8c0.7,0.8,0.8,2.1,0.2,3
							c-0.7,1.2-2.3,1.6-3.5,0.9l-35.9-21.7l-13.9,22.9C1391.1,734.4,1389.5,734.7,1388.4,734z M1408.2,706l30.1,18.2l-3.7-13
							c-0.2-0.7-0.1-1.4,0.3-2c0.3-0.6,0.9-0.9,1.5-1.1l14-3.4l-30.4-18.4L1408.2,706z"/>
						<path fill="#121B1C" d="M1411.2,733.2l-13.9-22.9l-35.9,21.7c-1.2,0.7-2.8,0.3-3.5-0.9c-0.6-0.9-0.5-2.2,0.2-3l4.5-15.8
							l-16.6-4c-1,0.2-2-0.2-2.6-1.1c-0.7-1.2-0.3-2.6,0.9-3.3l37.7-22.8c0.6-0.3,1.2-0.5,1.8-0.4l0.6,0.1c0.6,0.2,1.2,0.6,1.5,1.2
							l29.5,48.8c0.7,1.2,0.3,2.7-0.8,3.4S1411.9,734.4,1411.2,733.2z M1382.8,686.3l-30.4,18.4l14,3.4c0.7,0.2,1.2,0.5,1.5,1.1
							c0.3,0.6,0.5,1.3,0.3,2l-3.7,13l30.1-18.2L1382.8,686.3z"/>
					</g>
				</g>
				<g clip-path="url(#SVGID_6_)">
					<g>
						<path fill="#121B1C" d="M1198.4,667.4c-1.2-0.7-1.6-2.3-0.8-3.4l29.5-48.8c0.3-0.6,0.9-1,1.5-1.2l0.6-0.1
							c0.6-0.2,1.3,0,1.8,0.4l37.7,22.8c1.2,0.7,1.6,2.2,0.9,3.3c-0.6,0.9-1.6,1.3-2.6,1.1l-16.6,4l4.5,15.8c0.7,0.8,0.8,2.1,0.2,3
							c-0.7,1.2-2.3,1.6-3.5,0.9l-35.9-21.7l-13.9,22.9C1201.1,667.7,1199.5,668.1,1198.4,667.4z M1218.2,639.3l30.1,18.2l-3.7-13
							c-0.2-0.7-0.1-1.4,0.3-2c0.3-0.6,0.9-0.9,1.5-1.1l14-3.4l-30.4-18.4L1218.2,639.3z"/>
						<path fill="#121B1C" d="M1221.2,666.5l-13.9-22.9l-35.9,21.7c-1.2,0.7-2.8,0.3-3.5-0.9c-0.6-0.9-0.5-2.2,0.2-3l4.5-15.8
							l-16.6-4c-1,0.2-2-0.2-2.6-1.1c-0.7-1.2-0.3-2.6,0.9-3.3l37.7-22.8c0.6-0.3,1.2-0.5,1.8-0.4l0.6,0.1c0.6,0.2,1.2,0.6,1.5,1.2
							l29.5,48.8c0.7,1.2,0.3,2.7-0.8,3.4C1223.5,668.1,1221.9,667.7,1221.2,666.5z M1192.8,619.6l-30.4,18.4l14,3.4
							c0.7,0.2,1.2,0.5,1.5,1.1c0.3,0.6,0.5,1.3,0.3,2l-3.7,13l30.1-18.2L1192.8,619.6z"/>
					</g>
					<g>
						<path fill="#121B1C" d="M1235.5,716.6c-0.1,0-1,0-1,0v-3.2c0-1.4,0.3-2.4-1.1-2.4h-43c-1.4,0-3.9,1-3.9,2.4v3.2
							c0,0,0.6,0,0.5,0c-4.3,0.6-7,4.6-6.4,8.9c0.5,4,4.1,6.8,8,6.8c0.2,0,0.6,0,0.8,0c2.6,6.7,8.2,11.9,15.1,14.1
							c0.2,2,0.7,9.1-2.9,13.3c-0.6,0.7-0.8,1.8-0.3,2.7c0.4,0.9,1.3,1.5,2.3,1.5h17.6c1,0,1.9-0.6,2.3-1.5c0.4-0.9,0.3-1.9-0.4-2.7
							c-4.2-5-2.9-13.5-2.8-13.7c6.4-2.4,11.5-7.4,14-13.8c0.3,0,0.6,0.1,0.9,0.1c3.9,0,6.9-2.9,7.5-6.8
							C1243.2,721.2,1239.8,717.2,1235.5,716.6z M1185.2,724.9c-0.2-1.4-0.7-2.7,1.3-3.2v2.2c0,1.2,0.4,2.3,0.6,3.4
							C1186,727,1185.4,726.1,1185.2,724.9z M1216.9,759h-8.8c1.8-4,1.8-8.7,1.7-11.5c0.7,0.1,1.5,0.1,2.2,0.1c1.1,0,2.2,0,3.2-0.2
							C1215,750.1,1215,755,1216.9,759z M1229.5,723.6c0,10.5-8.5,19-19,19s-19-8.4-19-18.8V716h38V723.6z M1237.3,724.9
							c-0.2,1.3-1.5,2.3-2.8,2.5c0.2-1.2-0.1-2.4-0.1-3.7v-2C1235.5,722,1237.5,723.4,1237.3,724.9z"/>
						<path fill="#121B1C" d="M1228.5,772.5c0,1.4-1.1,2.5-2.5,2.5h-30c-1.4,0-2.5-1.1-2.5-2.5v-11c0-1.4,1.1-2.5,2.5-2.5h30
							c1.4,0,2.5,1.1,2.5,2.5V772.5z M1198.5,770h25v-6h-25V770z"/>
					</g>
				</g>
				<g clip-path="url(#SVGID_6_)">
					<g>
						<path fill="#121B1C" d="M1578.4,600.7c-1.2-0.7-1.6-2.3-0.8-3.4l29.5-48.8c0.3-0.6,0.9-1,1.5-1.2l0.6-0.1
							c0.6-0.2,1.3,0,1.8,0.4l37.7,22.8c1.2,0.7,1.6,2.2,0.9,3.3c-0.6,0.9-1.6,1.3-2.6,1.1l-16.6,4l4.5,15.8c0.7,0.8,0.8,2.1,0.2,3
							c-0.7,1.2-2.3,1.6-3.5,0.9l-35.9-21.7l-13.9,22.9C1581.1,601,1579.5,601.4,1578.4,600.7z M1598.2,572.6l30.1,18.2l-3.7-13
							c-0.2-0.7-0.1-1.4,0.3-2c0.3-0.6,0.9-0.9,1.5-1.1l14-3.4l-30.4-18.4L1598.2,572.6z"/>
						<path fill="#121B1C" d="M1601.2,599.9l-13.9-22.9l-35.9,21.7c-1.2,0.7-2.8,0.3-3.5-0.9c-0.6-0.9-0.5-2.2,0.2-3l4.5-15.8
							l-16.6-4c-1,0.2-2-0.2-2.6-1.1c-0.7-1.2-0.3-2.6,0.9-3.3l37.7-22.8c0.6-0.3,1.2-0.5,1.8-0.4l0.6,0.1c0.6,0.2,1.2,0.6,1.5,1.2
							l29.5,48.8c0.7,1.2,0.3,2.7-0.8,3.4C1603.5,601.4,1601.9,601,1601.2,599.9z M1572.8,553l-30.4,18.4l14,3.4
							c0.7,0.2,1.2,0.5,1.5,1.1c0.3,0.6,0.5,1.3,0.3,2l-3.7,13l30.1-18.2L1572.8,553z"/>
					</g>
					<g>
						<path fill="#121B1C" d="M1615.5,649.9c-0.1,0-1,0-1,0v-3.2c0-1.4,0.3-2.7-1.1-2.7h-43c-1.4,0-3.9,1.4-3.9,2.7v3.2
							c0,0,0.6,0,0.5,0c-4.3,0.6-7,4.6-6.4,8.9c0.5,4,4.1,6.8,8,6.8c0.2,0,0.6,0,0.8,0c2.6,6.7,8.2,11.9,15.1,14.1
							c0.2,2,0.7,9.1-2.9,13.3c-0.6,0.7-0.8,1.7-0.3,2.5c0.4,0.9,1.3,1.3,2.3,1.3h17.6c1,0,1.9-0.4,2.3-1.3c0.4-0.9,0.3-1.9-0.4-2.6
							c-4.2-5-2.9-13.5-2.8-13.7c6.4-2.4,11.5-7.4,14-13.7c0.3,0,0.6,0.1,0.9,0.1c3.9,0,6.9-2.9,7.5-6.8
							C1623.2,654.5,1619.8,650.5,1615.5,649.9z M1565.2,658.2c-0.2-1.4-0.7-2.7,1.3-3.2v2.2c0,1.2,0.4,2.3,0.6,3.4
							C1566,660.4,1565.4,659.4,1565.2,658.2z M1596.9,692h-8.8c1.8-4,1.8-8.6,1.7-11.3c0.7,0.1,1.5,0.2,2.2,0.2
							c1.1,0,2.2-0.2,3.2-0.3C1595,683.2,1595,688,1596.9,692z M1609.5,657c0,10.5-8.5,19-19,19s-19-8.4-19-18.8V649h38V657z
							 M1617.3,658.2c-0.2,1.3-1.5,2.3-2.8,2.5c0.2-1.2-0.1-2.4-0.1-3.7v-2C1615.5,655.4,1617.5,656.7,1617.3,658.2z"/>
						<path fill="#121B1C" d="M1608.5,705.5c0,1.4-1.1,2.5-2.5,2.5h-30c-1.4,0-2.5-1.1-2.5-2.5v-11c0-1.4,1.1-2.5,2.5-2.5h30
							c1.4,0,2.5,1.1,2.5,2.5V705.5z M1578.5,703h25v-6h-25V703z"/>
					</g>
				</g>
				<g clip-path="url(#SVGID_6_)">
					<g>
						<path fill="#121B1C" d="M1388.4,534c-1.2-0.7-1.6-2.3-0.8-3.4l29.5-48.8c0.3-0.6,0.9-1,1.5-1.2l0.6-0.1c0.6-0.2,1.3,0,1.8,0.4
							l37.7,22.8c1.2,0.7,1.6,2.2,0.9,3.3c-0.6,0.9-1.6,1.3-2.6,1.1l-16.6,4l4.5,15.8c0.7,0.8,0.8,2.1,0.2,3
							c-0.7,1.2-2.3,1.6-3.5,0.9l-35.9-21.7l-13.9,22.9C1391.1,534.4,1389.5,534.7,1388.4,534z M1408.2,506l30.1,18.2l-3.7-13
							c-0.2-0.7-0.1-1.4,0.3-2c0.3-0.6,0.9-0.9,1.5-1.1l14-3.4l-30.4-18.4L1408.2,506z"/>
						<path fill="#121B1C" d="M1411.2,533.2l-13.9-22.9l-35.9,21.7c-1.2,0.7-2.8,0.3-3.5-0.9c-0.6-0.9-0.5-2.2,0.2-3l4.5-15.8
							l-16.6-4c-1,0.2-2-0.2-2.6-1.1c-0.7-1.2-0.3-2.6,0.9-3.3l37.7-22.8c0.6-0.3,1.2-0.5,1.8-0.4l0.6,0.1c0.6,0.2,1.2,0.6,1.5,1.2
							l29.5,48.8c0.7,1.2,0.3,2.7-0.8,3.4S1411.9,534.4,1411.2,533.2z M1382.8,486.3l-30.4,18.4l14,3.4c0.7,0.2,1.2,0.5,1.5,1.1
							c0.3,0.6,0.5,1.3,0.3,2l-3.7,13l30.1-18.2L1382.8,486.3z"/>
					</g>
					<g>
						<path fill="#121B1C" d="M1425.5,583.3c-0.1,0-1,0-1,0v-3.2c0-1.4,0.3-3.1-1.1-3.1h-43c-1.4,0-3.9,1.7-3.9,3.1v3.2
							c0,0,0.6,0,0.5,0c-4.3,0.6-7,4.6-6.4,8.9c0.5,4,4.1,6.8,8,6.8c0.2,0,0.6,0,0.8,0c2.6,6.7,8.2,11.9,15.1,14.1
							c0.2,2,0.7,9.1-2.9,13.3c-0.6,0.7-0.8,1.5-0.3,2.4c0.4,0.9,1.3,1.2,2.3,1.2h17.6c1,0,1.9-0.3,2.3-1.2c0.4-0.9,0.3-1.8-0.4-2.5
							c-4.2-5-2.9-13.4-2.8-13.6c6.4-2.4,11.5-7.4,14-13.7c0.3,0,0.6,0.1,0.9,0.1c3.9,0,6.9-2.9,7.5-6.8
							C1433.2,587.9,1429.8,583.9,1425.5,583.3z M1375.2,591.5c-0.2-1.4-0.7-2.7,1.3-3.2v2.2c0,1.2,0.4,2.3,0.6,3.4
							C1376,593.7,1375.4,592.8,1375.2,591.5z M1406.9,625h-8.8c1.8-4,1.8-8.4,1.7-11.1c0.7,0.1,1.5,0.3,2.2,0.3
							c1.1,0,2.2-0.3,3.2-0.4C1405,616.3,1405,621,1406.9,625z M1419.5,590.3c0,10.5-8.5,19-19,19s-19-8.4-19-18.8V582h38V590.3z
							 M1427.3,591.5c-0.2,1.3-1.5,2.3-2.8,2.5c0.2-1.2-0.1-2.4-0.1-3.7v-2C1425.5,588.7,1427.5,590.1,1427.3,591.5z"/>
						<path fill="#121B1C" d="M1418.5,638.5c0,1.4-1.1,2.5-2.5,2.5h-30c-1.4,0-2.5-1.1-2.5-2.5v-11c0-1.4,1.1-2.5,2.5-2.5h30
							c1.4,0,2.5,1.1,2.5,2.5V638.5z M1388.5,636h25v-6h-25V636z"/>
					</g>
				</g>
				<g clip-path="url(#SVGID_6_)">
					<g>
						<path fill="#121B1C" d="M1198.4,467.4c-1.2-0.7-1.6-2.3-0.8-3.4l29.5-48.8c0.3-0.6,0.9-1,1.5-1.2l0.6-0.1
							c0.6-0.2,1.3,0,1.8,0.4l37.7,22.8c1.2,0.7,1.6,2.2,0.9,3.3c-0.6,0.9-1.6,1.3-2.6,1.1l-16.6,4l4.5,15.8c0.7,0.8,0.8,2.1,0.2,3
							c-0.7,1.2-2.3,1.6-3.5,0.9l-35.9-21.7l-13.9,22.9C1201.1,467.7,1199.5,468.1,1198.4,467.4z M1218.2,439.3l30.1,18.2l-3.7-13
							c-0.2-0.7-0.1-1.4,0.3-2c0.3-0.6,0.9-0.9,1.5-1.1l14-3.4l-30.4-18.4L1218.2,439.3z"/>
						<path fill="#121B1C" d="M1221.2,466.5l-13.9-22.9l-35.9,21.7c-1.2,0.7-2.8,0.3-3.5-0.9c-0.6-0.9-0.5-2.2,0.2-3l4.5-15.8
							l-16.6-4c-1,0.2-2-0.2-2.6-1.1c-0.7-1.2-0.3-2.6,0.9-3.3l37.7-22.8c0.6-0.3,1.2-0.5,1.8-0.4l0.6,0.1c0.6,0.2,1.2,0.6,1.5,1.2
							l29.5,48.8c0.7,1.2,0.3,2.7-0.8,3.4C1223.5,468.1,1221.9,467.7,1221.2,466.5z M1192.8,419.6l-30.4,18.4l14,3.4
							c0.7,0.2,1.2,0.5,1.5,1.1c0.3,0.6,0.5,1.3,0.3,2l-3.7,13l30.1-18.2L1192.8,419.6z"/>
					</g>
					<g>
						<path fill="#121B1C" d="M1235.5,516.6c-0.1,0-1,0-1,0v-3.2c0-1.4,0.3-2.4-1.1-2.4h-43c-1.4,0-3.9,1-3.9,2.4v3.2
							c0,0,0.6,0,0.5,0c-4.3,0.6-7,4.6-6.4,8.9c0.5,4,4.1,6.8,8,6.8c0.2,0,0.6,0,0.8,0c2.6,6.7,8.2,11.9,15.1,14.1
							c0.2,2,0.7,9.1-2.9,13.3c-0.6,0.7-0.8,1.8-0.3,2.7c0.4,0.9,1.3,1.5,2.3,1.5h17.6c1,0,1.9-0.6,2.3-1.5c0.4-0.9,0.3-1.9-0.4-2.7
							c-4.2-5-2.9-13.5-2.8-13.7c6.4-2.4,11.5-7.4,14-13.8c0.3,0,0.6,0.1,0.9,0.1c3.9,0,6.9-2.9,7.5-6.8
							C1243.2,521.2,1239.8,517.2,1235.5,516.6z M1185.2,524.9c-0.2-1.4-0.7-2.7,1.3-3.2v2.2c0,1.2,0.4,2.3,0.6,3.4
							C1186,527,1185.4,526.1,1185.2,524.9z M1216.9,559h-8.8c1.8-4,1.8-8.7,1.7-11.5c0.7,0.1,1.5,0.1,2.2,0.1c1.1,0,2.2,0,3.2-0.2
							C1215,550.1,1215,555,1216.9,559z M1229.5,523.6c0,10.5-8.5,19-19,19s-19-8.4-19-18.8V516h38V523.6z M1237.3,524.9
							c-0.2,1.3-1.5,2.3-2.8,2.5c0.2-1.2-0.1-2.4-0.1-3.7v-2C1235.5,522,1237.5,523.4,1237.3,524.9z"/>
						<path fill="#121B1C" d="M1228.5,572.5c0,1.4-1.1,2.5-2.5,2.5h-30c-1.4,0-2.5-1.1-2.5-2.5v-11c0-1.4,1.1-2.5,2.5-2.5h30
							c1.4,0,2.5,1.1,2.5,2.5V572.5z M1198.5,570h25v-6h-25V570z"/>
					</g>
				</g>
				<g clip-path="url(#SVGID_6_)">
					<g>
						<path fill="#121B1C" d="M1578.4,400.7c-1.2-0.7-1.6-2.3-0.8-3.4l29.5-48.8c0.3-0.6,0.9-1,1.5-1.2l0.6-0.1
							c0.6-0.2,1.3,0,1.8,0.4l37.7,22.8c1.2,0.7,1.6,2.2,0.9,3.3c-0.6,0.9-1.6,1.3-2.6,1.1l-16.6,4l4.5,15.8c0.7,0.8,0.8,2.1,0.2,3
							c-0.7,1.2-2.3,1.6-3.5,0.9l-35.9-21.7l-13.9,22.9C1581.1,401,1579.5,401.4,1578.4,400.7z M1598.2,372.6l30.1,18.2l-3.7-13
							c-0.2-0.7-0.1-1.4,0.3-2c0.3-0.6,0.9-0.9,1.5-1.1l14-3.4l-30.4-18.4L1598.2,372.6z"/>
						<path fill="#121B1C" d="M1601.2,399.9l-13.9-22.9l-35.9,21.7c-1.2,0.7-2.8,0.3-3.5-0.9c-0.6-0.9-0.5-2.2,0.2-3l4.5-15.8
							l-16.6-4c-1,0.2-2-0.2-2.6-1.1c-0.7-1.2-0.3-2.6,0.9-3.3l37.7-22.8c0.6-0.3,1.2-0.5,1.8-0.4l0.6,0.1c0.6,0.2,1.2,0.6,1.5,1.2
							l29.5,48.8c0.7,1.2,0.3,2.7-0.8,3.4C1603.5,401.4,1601.9,401,1601.2,399.9z M1572.8,353l-30.4,18.4l14,3.4
							c0.7,0.2,1.2,0.5,1.5,1.1c0.3,0.6,0.5,1.3,0.3,2l-3.7,13l30.1-18.2L1572.8,353z"/>
					</g>
					<g>
						<path fill="#121B1C" d="M1615.5,449.9c-0.1,0-1,0-1,0v-3.2c0-1.4,0.3-2.7-1.1-2.7h-43c-1.4,0-3.9,1.4-3.9,2.7v3.2
							c0,0,0.6,0,0.5,0c-4.3,0.6-7,4.6-6.4,8.9c0.5,4,4.1,6.8,8,6.8c0.2,0,0.6,0,0.8,0c2.6,6.7,8.2,11.9,15.1,14.1
							c0.2,2,0.7,9.1-2.9,13.3c-0.6,0.7-0.8,1.7-0.3,2.5c0.4,0.9,1.3,1.3,2.3,1.3h17.6c1,0,1.9-0.4,2.3-1.3c0.4-0.9,0.3-1.9-0.4-2.6
							c-4.2-5-2.9-13.5-2.8-13.7c6.4-2.4,11.5-7.4,14-13.7c0.3,0,0.6,0.1,0.9,0.1c3.9,0,6.9-2.9,7.5-6.8
							C1623.2,454.5,1619.8,450.5,1615.5,449.9z M1565.2,458.2c-0.2-1.4-0.7-2.7,1.3-3.2v2.2c0,1.2,0.4,2.3,0.6,3.4
							C1566,460.4,1565.4,459.4,1565.2,458.2z M1596.9,492h-8.8c1.8-4,1.8-8.6,1.7-11.3c0.7,0.1,1.5,0.2,2.2,0.2
							c1.1,0,2.2-0.2,3.2-0.3C1595,483.2,1595,488,1596.9,492z M1609.5,457c0,10.5-8.5,19-19,19s-19-8.4-19-18.8V449h38V457z
							 M1617.3,458.2c-0.2,1.3-1.5,2.3-2.8,2.5c0.2-1.2-0.1-2.4-0.1-3.7v-2C1615.5,455.4,1617.5,456.7,1617.3,458.2z"/>
						<path fill="#121B1C" d="M1608.5,505.5c0,1.4-1.1,2.5-2.5,2.5h-30c-1.4,0-2.5-1.1-2.5-2.5v-11c0-1.4,1.1-2.5,2.5-2.5h30
							c1.4,0,2.5,1.1,2.5,2.5V505.5z M1578.5,503h25v-6h-25V503z"/>
					</g>
				</g>
				<g clip-path="url(#SVGID_6_)">
					<g>
						<path fill="#121B1C" d="M1425.5,383.3c-0.1,0-1,0-1,0v-3.2c0-1.4,0.3-3.1-1.1-3.1h-43c-1.4,0-3.9,1.7-3.9,3.1v3.2
							c0,0,0.6,0,0.5,0c-4.3,0.6-7,4.6-6.4,8.9c0.5,4,4.1,6.8,8,6.8c0.2,0,0.6,0,0.8,0c2.6,6.7,8.2,11.9,15.1,14.1
							c0.2,2,0.7,9.1-2.9,13.3c-0.6,0.7-0.8,1.5-0.3,2.4c0.4,0.9,1.3,1.2,2.3,1.2h17.6c1,0,1.9-0.3,2.3-1.2c0.4-0.9,0.3-1.8-0.4-2.5
							c-4.2-5-2.9-13.4-2.8-13.6c6.4-2.4,11.5-7.4,14-13.7c0.3,0,0.6,0.1,0.9,0.1c3.9,0,6.9-2.9,7.5-6.8
							C1433.2,387.9,1429.8,383.9,1425.5,383.3z M1375.2,391.5c-0.2-1.4-0.7-2.7,1.3-3.2v2.2c0,1.2,0.4,2.3,0.6,3.4
							C1376,393.7,1375.4,392.8,1375.2,391.5z M1406.9,425h-8.8c1.8-4,1.8-8.4,1.7-11.1c0.7,0.1,1.5,0.3,2.2,0.3
							c1.1,0,2.2-0.3,3.2-0.4C1405,416.3,1405,421,1406.9,425z M1419.5,390.3c0,10.5-8.5,19-19,19s-19-8.4-19-18.8V382h38V390.3z
							 M1427.3,391.5c-0.2,1.3-1.5,2.3-2.8,2.5c0.2-1.2-0.1-2.4-0.1-3.7v-2C1425.5,388.7,1427.5,390.1,1427.3,391.5z"/>
						<path fill="#121B1C" d="M1418.5,438.5c0,1.4-1.1,2.5-2.5,2.5h-30c-1.4,0-2.5-1.1-2.5-2.5v-11c0-1.4,1.1-2.5,2.5-2.5h30
							c1.4,0,2.5,1.1,2.5,2.5V438.5z M1388.5,436h25v-6h-25V436z"/>
					</g>
				</g>
				<g clip-path="url(#SVGID_6_)">
					<g>
						<path fill="#121B1C" d="M1235.5,316.6c-0.1,0-1,0-1,0v-3.2c0-1.4,0.3-2.4-1.1-2.4h-43c-1.4,0-3.9,1-3.9,2.4v3.2
							c0,0,0.6,0,0.5,0c-4.3,0.6-7,4.6-6.4,8.9c0.5,4,4.1,6.8,8,6.8c0.2,0,0.6,0,0.8,0c2.6,6.7,8.2,11.9,15.1,14.1
							c0.2,2,0.7,9.1-2.9,13.3c-0.6,0.7-0.8,1.8-0.3,2.7c0.4,0.9,1.3,1.5,2.3,1.5h17.6c1,0,1.9-0.6,2.3-1.5c0.4-0.9,0.3-1.9-0.4-2.7
							c-4.2-5-2.9-13.5-2.8-13.7c6.4-2.4,11.5-7.4,14-13.8c0.3,0,0.6,0.1,0.9,0.1c3.9,0,6.9-2.9,7.5-6.8
							C1243.2,321.2,1239.8,317.2,1235.5,316.6z M1185.2,324.9c-0.2-1.4-0.7-2.7,1.3-3.2v2.2c0,1.2,0.4,2.3,0.6,3.4
							C1186,327,1185.4,326.1,1185.2,324.9z M1216.9,359h-8.8c1.8-4,1.8-8.7,1.7-11.5c0.7,0.1,1.5,0.1,2.2,0.1c1.1,0,2.2,0,3.2-0.2
							C1215,350.1,1215,355,1216.9,359z M1229.5,323.6c0,10.5-8.5,19-19,19s-19-8.4-19-18.8V316h38V323.6z M1237.3,324.9
							c-0.2,1.3-1.5,2.3-2.8,2.5c0.2-1.2-0.1-2.4-0.1-3.7v-2C1235.5,322,1237.5,323.4,1237.3,324.9z"/>
						<path fill="#121B1C" d="M1228.5,372.5c0,1.4-1.1,2.5-2.5,2.5h-30c-1.4,0-2.5-1.1-2.5-2.5v-11c0-1.4,1.1-2.5,2.5-2.5h30
							c1.4,0,2.5,1.1,2.5,2.5V372.5z M1198.5,370h25v-6h-25V370z"/>
					</g>
				</g>
			</g>
		</g>
		<g clip-path="url(#SVGID_2_)">
			<g>
				<defs>
					<rect id="SVGID_7_" x="546.5" y="-39" width="570" height="400"/>
				</defs>
				<clipPath id="SVGID_8_">
					<use xlink:href="#SVGID_7_"  overflow="visible"/>
				</clipPath>
				<g clip-path="url(#SVGID_8_)">
					<g>
						<path fill="#121B1C" d="M1008.4,400.7c-1.2-0.7-1.6-2.3-0.8-3.4l29.5-48.8c0.3-0.6,0.9-1,1.5-1.2l0.6-0.1
							c0.6-0.2,1.3,0,1.8,0.4l37.7,22.8c1.2,0.7,1.6,2.2,0.9,3.3c-0.6,0.9-1.6,1.3-2.6,1.1l-16.6,4l4.5,15.8c0.7,0.8,0.8,2.1,0.2,3
							c-0.7,1.2-2.3,1.6-3.5,0.9l-35.9-21.7l-13.9,22.9C1011.1,401,1009.5,401.4,1008.4,400.7z M1028.2,372.6l30.1,18.2l-3.7-13
							c-0.2-0.7-0.1-1.4,0.3-2c0.3-0.6,0.9-0.9,1.5-1.1l14-3.4l-30.4-18.4L1028.2,372.6z"/>
						<path fill="#121B1C" d="M1031.2,399.9l-13.9-22.9l-35.9,21.7c-1.2,0.7-2.8,0.3-3.5-0.9c-0.6-0.9-0.5-2.2,0.2-3l4.5-15.8
							l-16.6-4c-1,0.2-2-0.2-2.6-1.1c-0.7-1.2-0.3-2.6,0.9-3.3l37.7-22.8c0.6-0.3,1.2-0.5,1.8-0.4l0.6,0.1c0.6,0.2,1.2,0.6,1.5,1.2
							l29.5,48.8c0.7,1.2,0.3,2.7-0.8,3.4C1033.5,401.4,1031.9,401,1031.2,399.9z M1002.8,353l-30.4,18.4l14,3.4
							c0.7,0.2,1.2,0.5,1.5,1.1c0.3,0.6,0.5,1.3,0.3,2l-3.7,13l30.1-18.2L1002.8,353z"/>
					</g>
				</g>
				<g clip-path="url(#SVGID_8_)">
					<g>
						<path fill="#121B1C" d="M818.4,334c-1.2-0.7-1.6-2.3-0.8-3.4l29.5-48.8c0.3-0.6,0.9-1,1.5-1.2l0.6-0.1c0.6-0.2,1.3,0,1.8,0.4
							l37.7,22.8c1.2,0.7,1.6,2.2,0.9,3.3c-0.6,0.9-1.6,1.3-2.6,1.1l-16.6,4l4.5,15.8c0.7,0.8,0.8,2.1,0.2,3
							c-0.7,1.2-2.3,1.6-3.5,0.9l-35.9-21.7l-13.9,22.9C821.1,334.4,819.5,334.7,818.4,334z M838.2,306l30.1,18.2l-3.7-13
							c-0.2-0.7-0.1-1.4,0.3-2c0.3-0.6,0.9-0.9,1.5-1.1l14-3.4l-30.4-18.4L838.2,306z"/>
						<path fill="#121B1C" d="M841.2,333.2l-13.9-22.9l-35.9,21.7c-1.2,0.7-2.8,0.3-3.5-0.9c-0.6-0.9-0.5-2.2,0.2-3l4.5-15.8
							l-16.6-4c-1,0.2-2-0.2-2.6-1.1c-0.7-1.2-0.3-2.6,0.9-3.3l37.7-22.8c0.6-0.3,1.2-0.5,1.8-0.4l0.6,0.1c0.6,0.2,1.2,0.6,1.5,1.2
							l29.5,48.8c0.7,1.2,0.3,2.7-0.8,3.4S841.9,334.4,841.2,333.2z M812.8,286.3l-30.4,18.4l14,3.4c0.7,0.2,1.2,0.5,1.5,1.1
							c0.3,0.6,0.5,1.3,0.3,2l-3.7,13l30.1-18.2L812.8,286.3z"/>
					</g>
				</g>
				<g clip-path="url(#SVGID_8_)">
					<g>
						<path fill="#121B1C" d="M628.4,267.4c-1.2-0.7-1.6-2.3-0.8-3.4l29.5-48.8c0.3-0.6,0.9-1,1.5-1.2l0.6-0.1
							c0.6-0.2,1.3,0,1.8,0.4l37.7,22.8c1.2,0.7,1.6,2.2,0.9,3.3c-0.6,0.9-1.6,1.3-2.6,1.1l-16.6,4l4.5,15.8c0.7,0.8,0.8,2.1,0.2,3
							c-0.7,1.2-2.3,1.6-3.5,0.9l-35.9-21.7l-13.9,22.9C631.1,267.7,629.5,268.1,628.4,267.4z M648.2,239.3l30.1,18.2l-3.7-13
							c-0.2-0.7-0.1-1.4,0.3-2c0.3-0.6,0.9-0.9,1.5-1.1l14-3.4l-30.4-18.4L648.2,239.3z"/>
						<path fill="#121B1C" d="M651.2,266.5l-13.9-22.9l-35.9,21.7c-1.2,0.7-2.8,0.3-3.5-0.9c-0.6-0.9-0.5-2.2,0.2-3l4.5-15.8
							l-16.6-4c-1,0.2-2-0.2-2.6-1.1c-0.7-1.2-0.3-2.6,0.9-3.3l37.7-22.8c0.6-0.3,1.2-0.5,1.8-0.4l0.6,0.1c0.6,0.2,1.2,0.6,1.5,1.2
							l29.5,48.8c0.7,1.2,0.3,2.7-0.8,3.4C653.5,268.1,651.9,267.7,651.2,266.5z M622.8,219.6L592.4,238l14,3.4
							c0.7,0.2,1.2,0.5,1.5,1.1c0.3,0.6,0.5,1.3,0.3,2l-3.7,13l30.1-18.2L622.8,219.6z"/>
					</g>
					<g>
						<path fill="#121B1C" d="M665.5,316.6c-0.1,0-1,0-1,0v-3.2c0-1.4,0.3-2.4-1.1-2.4h-43c-1.4,0-3.9,1-3.9,2.4v3.2
							c0,0,0.6,0,0.5,0c-4.3,0.6-7,4.6-6.4,8.9c0.5,4,4.1,6.8,8,6.8c0.2,0,0.6,0,0.8,0c2.6,6.7,8.2,11.9,15.1,14.1
							c0.2,2,0.7,9.1-2.9,13.3c-0.6,0.7-0.8,1.8-0.3,2.7c0.4,0.9,1.3,1.5,2.3,1.5h17.6c1,0,1.9-0.6,2.3-1.5c0.4-0.9,0.3-1.9-0.4-2.7
							c-4.2-5-2.9-13.5-2.8-13.7c6.4-2.4,11.5-7.4,14-13.8c0.3,0,0.6,0.1,0.9,0.1c3.9,0,6.9-2.9,7.5-6.8
							C673.2,321.2,669.8,317.2,665.5,316.6z M615.2,324.9c-0.2-1.4-0.7-2.7,1.3-3.2v2.2c0,1.2,0.4,2.3,0.6,3.4
							C616,327,615.4,326.1,615.2,324.9z M646.9,359H638c1.8-4,1.8-8.7,1.7-11.5c0.7,0.1,1.5,0.1,2.2,0.1c1.1,0,2.2,0,3.2-0.2
							C645,350.1,645,355,646.9,359z M659.5,323.6c0,10.5-8.5,19-19,19s-19-8.4-19-18.8V316h38V323.6z M667.3,324.9
							c-0.2,1.3-1.5,2.3-2.8,2.5c0.2-1.2-0.1-2.4-0.1-3.7v-2C665.5,322,667.5,323.4,667.3,324.9z"/>
						<path fill="#121B1C" d="M658.5,372.5c0,1.4-1.1,2.5-2.5,2.5h-30c-1.4,0-2.5-1.1-2.5-2.5v-11c0-1.4,1.1-2.5,2.5-2.5h30
							c1.4,0,2.5,1.1,2.5,2.5V372.5z M628.5,370h25v-6h-25V370z"/>
					</g>
				</g>
				<g clip-path="url(#SVGID_8_)">
					<g>
						<path fill="#121B1C" d="M1008.4,200.7c-1.2-0.7-1.6-2.3-0.8-3.4l29.5-48.8c0.3-0.6,0.9-1,1.5-1.2l0.6-0.1
							c0.6-0.2,1.3,0,1.8,0.4l37.7,22.8c1.2,0.7,1.6,2.2,0.9,3.3c-0.6,0.9-1.6,1.3-2.6,1.1l-16.6,4l4.5,15.8c0.7,0.8,0.8,2.1,0.2,3
							c-0.7,1.2-2.3,1.6-3.5,0.9l-35.9-21.7l-13.9,22.9C1011.1,201,1009.5,201.4,1008.4,200.7z M1028.2,172.6l30.1,18.2l-3.7-13
							c-0.2-0.7-0.1-1.4,0.3-2c0.3-0.6,0.9-0.9,1.5-1.1l14-3.4l-30.4-18.4L1028.2,172.6z"/>
						<path fill="#121B1C" d="M1031.2,199.9l-13.9-22.9l-35.9,21.7c-1.2,0.7-2.8,0.3-3.5-0.9c-0.6-0.9-0.5-2.2,0.2-3l4.5-15.8
							l-16.6-4c-1,0.2-2-0.2-2.6-1.1c-0.7-1.2-0.3-2.6,0.9-3.3l37.7-22.8c0.6-0.3,1.2-0.5,1.8-0.4l0.6,0.1c0.6,0.2,1.2,0.6,1.5,1.2
							l29.5,48.8c0.7,1.2,0.3,2.7-0.8,3.4C1033.5,201.4,1031.9,201,1031.2,199.9z M1002.8,153l-30.4,18.4l14,3.4
							c0.7,0.2,1.2,0.5,1.5,1.1c0.3,0.6,0.5,1.3,0.3,2l-3.7,13l30.1-18.2L1002.8,153z"/>
					</g>
					<g>
						<path fill="#121B1C" d="M1045.5,249.9c-0.1,0-1,0-1,0v-3.2c0-1.4,0.3-2.7-1.1-2.7h-43c-1.4,0-3.9,1.4-3.9,2.7v3.2
							c0,0,0.6,0,0.5,0c-4.3,0.6-7,4.6-6.4,8.9c0.5,4,4.1,6.8,8,6.8c0.2,0,0.6,0,0.8,0c2.6,6.7,8.2,11.9,15.1,14.1
							c0.2,2,0.7,9.1-2.9,13.3c-0.6,0.7-0.8,1.7-0.3,2.5c0.4,0.9,1.3,1.3,2.3,1.3h17.6c1,0,1.9-0.4,2.3-1.3c0.4-0.9,0.3-1.9-0.4-2.6
							c-4.2-5-2.9-13.5-2.8-13.7c6.4-2.4,11.5-7.4,14-13.7c0.3,0,0.6,0.1,0.9,0.1c3.9,0,6.9-2.9,7.5-6.8
							C1053.2,254.5,1049.8,250.5,1045.5,249.9z M995.2,258.2c-0.2-1.4-0.7-2.7,1.3-3.2v2.2c0,1.2,0.4,2.3,0.6,3.4
							C996,260.4,995.4,259.4,995.2,258.2z M1026.9,292h-8.8c1.8-4,1.8-8.6,1.7-11.3c0.7,0.1,1.5,0.2,2.2,0.2c1.1,0,2.2-0.2,3.2-0.3
							C1025,283.2,1025,288,1026.9,292z M1039.5,257c0,10.5-8.5,19-19,19c-10.5,0-19-8.4-19-18.8V249h38V257z M1047.3,258.2
							c-0.2,1.3-1.5,2.3-2.8,2.5c0.2-1.2-0.1-2.4-0.1-3.7v-2C1045.5,255.4,1047.5,256.7,1047.3,258.2z"/>
						<path fill="#121B1C" d="M1038.5,305.5c0,1.4-1.1,2.5-2.5,2.5h-30c-1.4,0-2.5-1.1-2.5-2.5v-11c0-1.4,1.1-2.5,2.5-2.5h30
							c1.4,0,2.5,1.1,2.5,2.5V305.5z M1008.5,303h25v-6h-25V303z"/>
					</g>
				</g>
				<g clip-path="url(#SVGID_8_)">
					<g>
						<path fill="#121B1C" d="M818.4,134c-1.2-0.7-1.6-2.3-0.8-3.4L847,81.8c0.3-0.6,0.9-1,1.5-1.2l0.6-0.1c0.6-0.2,1.3,0,1.8,0.4
							l37.7,22.8c1.2,0.7,1.6,2.2,0.9,3.3c-0.6,0.9-1.6,1.3-2.6,1.1l-16.6,4l4.5,15.8c0.7,0.8,0.8,2.1,0.2,3
							c-0.7,1.2-2.3,1.6-3.5,0.9l-35.9-21.7l-13.9,22.9C821.1,134.4,819.5,134.7,818.4,134z M838.2,106l30.1,18.2l-3.7-13
							c-0.2-0.7-0.1-1.4,0.3-2c0.3-0.6,0.9-0.9,1.5-1.1l14-3.4l-30.4-18.4L838.2,106z"/>
						<path fill="#121B1C" d="M841.2,133.2l-13.9-22.9l-35.9,21.7c-1.2,0.7-2.8,0.3-3.5-0.9c-0.6-0.9-0.5-2.2,0.2-3l4.5-15.8
							l-16.6-4c-1,0.2-2-0.2-2.6-1.1c-0.7-1.2-0.3-2.6,0.9-3.3L812,80.9c0.6-0.3,1.2-0.5,1.8-0.4l0.6,0.1c0.6,0.2,1.2,0.6,1.5,1.2
							l29.5,48.8c0.7,1.2,0.3,2.7-0.8,3.4S841.9,134.4,841.2,133.2z M812.8,86.3l-30.4,18.4l14,3.4c0.7,0.2,1.2,0.5,1.5,1.1
							c0.3,0.6,0.5,1.3,0.3,2l-3.7,13l30.1-18.2L812.8,86.3z"/>
					</g>
					<g>
						<path fill="#121B1C" d="M855.5,183.3c-0.1,0-1,0-1,0v-3.2c0-1.4,0.3-3.1-1.1-3.1h-43c-1.4,0-3.9,1.7-3.9,3.1v3.2
							c0,0,0.6,0,0.5,0c-4.3,0.6-7,4.6-6.4,8.9c0.5,4,4.1,6.8,8,6.8c0.2,0,0.6,0,0.8,0c2.6,6.7,8.2,11.9,15.1,14.1
							c0.2,2,0.7,9.1-2.9,13.3c-0.6,0.7-0.8,1.5-0.3,2.4c0.4,0.9,1.3,1.2,2.3,1.2h17.6c1,0,1.9-0.3,2.3-1.2c0.4-0.9,0.3-1.8-0.4-2.5
							c-4.2-5-2.9-13.4-2.8-13.6c6.4-2.4,11.5-7.4,14-13.7c0.3,0,0.6,0.1,0.9,0.1c3.9,0,6.9-2.9,7.5-6.8
							C863.2,187.9,859.8,183.9,855.5,183.3z M805.2,191.5c-0.2-1.4-0.7-2.7,1.3-3.2v2.2c0,1.2,0.4,2.3,0.6,3.4
							C806,193.7,805.4,192.8,805.2,191.5z M836.9,225H828c1.8-4,1.8-8.4,1.7-11.1c0.7,0.1,1.5,0.3,2.2,0.3c1.1,0,2.2-0.3,3.2-0.4
							C835,216.3,835,221,836.9,225z M849.5,190.3c0,10.5-8.5,19-19,19s-19-8.4-19-18.8V182h38V190.3z M857.3,191.5
							c-0.2,1.3-1.5,2.3-2.8,2.5c0.2-1.2-0.1-2.4-0.1-3.7v-2C855.5,188.7,857.5,190.1,857.3,191.5z"/>
						<path fill="#121B1C" d="M848.5,238.5c0,1.4-1.1,2.5-2.5,2.5h-30c-1.4,0-2.5-1.1-2.5-2.5v-11c0-1.4,1.1-2.5,2.5-2.5h30
							c1.4,0,2.5,1.1,2.5,2.5V238.5z M818.5,236h25v-6h-25V236z"/>
					</g>
				</g>
				<g clip-path="url(#SVGID_8_)">
					<g>
						<path fill="#121B1C" d="M628.4,67.4c-1.2-0.7-1.6-2.3-0.8-3.4L657,15.2c0.3-0.6,0.9-1,1.5-1.2l0.6-0.1c0.6-0.2,1.3,0,1.8,0.4
							L698.6,37c1.2,0.7,1.6,2.2,0.9,3.3c-0.6,0.9-1.6,1.3-2.6,1.1l-16.6,4l4.5,15.8c0.7,0.8,0.8,2.1,0.2,3
							c-0.7,1.2-2.3,1.6-3.5,0.9l-35.9-21.7l-13.9,22.9C631.1,67.7,629.5,68.1,628.4,67.4z M648.2,39.3l30.1,18.2l-3.7-13
							c-0.2-0.7-0.1-1.4,0.3-2c0.3-0.6,0.9-0.9,1.5-1.1l14-3.4l-30.4-18.4L648.2,39.3z"/>
						<path fill="#121B1C" d="M651.2,66.5l-13.9-22.9l-35.9,21.7c-1.2,0.7-2.8,0.3-3.5-0.9c-0.6-0.9-0.5-2.2,0.2-3l4.5-15.8l-16.6-4
							c-1,0.2-2-0.2-2.6-1.1c-0.7-1.2-0.3-2.6,0.9-3.3L622,14.3c0.6-0.3,1.2-0.5,1.8-0.4l0.6,0.1c0.6,0.2,1.2,0.6,1.5,1.2l29.5,48.8
							c0.7,1.2,0.3,2.7-0.8,3.4C653.5,68.1,651.9,67.7,651.2,66.5z M622.8,19.6L592.4,38l14,3.4c0.7,0.2,1.2,0.5,1.5,1.1
							c0.3,0.6,0.5,1.3,0.3,2l-3.7,13l30.1-18.2L622.8,19.6z"/>
					</g>
					<g>
						<path fill="#121B1C" d="M665.5,116.6c-0.1,0-1,0-1,0v-3.2c0-1.4,0.3-2.4-1.1-2.4h-43c-1.4,0-3.9,1-3.9,2.4v3.2
							c0,0,0.6,0,0.5,0c-4.3,0.6-7,4.6-6.4,8.9c0.5,4,4.1,6.8,8,6.8c0.2,0,0.6,0,0.8,0c2.6,6.7,8.2,11.9,15.1,14.1
							c0.2,2,0.7,9.1-2.9,13.3c-0.6,0.7-0.8,1.8-0.3,2.7c0.4,0.9,1.3,1.5,2.3,1.5h17.6c1,0,1.9-0.6,2.3-1.5c0.4-0.9,0.3-1.9-0.4-2.7
							c-4.2-5-2.9-13.5-2.8-13.7c6.4-2.4,11.5-7.4,14-13.8c0.3,0,0.6,0.1,0.9,0.1c3.9,0,6.9-2.9,7.5-6.8
							C673.2,121.2,669.8,117.2,665.5,116.6z M615.2,124.9c-0.2-1.4-0.7-2.7,1.3-3.2v2.2c0,1.2,0.4,2.3,0.6,3.4
							C616,127,615.4,126.1,615.2,124.9z M646.9,159H638c1.8-4,1.8-8.7,1.7-11.5c0.7,0.1,1.5,0.1,2.2,0.1c1.1,0,2.2,0,3.2-0.2
							C645,150.1,645,155,646.9,159z M659.5,123.6c0,10.5-8.5,19-19,19s-19-8.4-19-18.8V116h38V123.6z M667.3,124.9
							c-0.2,1.3-1.5,2.3-2.8,2.5c0.2-1.2-0.1-2.4-0.1-3.7v-2C665.5,122,667.5,123.4,667.3,124.9z"/>
						<path fill="#121B1C" d="M658.5,172.5c0,1.4-1.1,2.5-2.5,2.5h-30c-1.4,0-2.5-1.1-2.5-2.5v-11c0-1.4,1.1-2.5,2.5-2.5h30
							c1.4,0,2.5,1.1,2.5,2.5V172.5z M628.5,170h25v-6h-25V170z"/>
					</g>
				</g>
				<g clip-path="url(#SVGID_8_)">
					<g>
						<path fill="#121B1C" d="M1008.4,0.7c-1.2-0.7-1.6-2.3-0.8-3.4l29.5-48.8c0.3-0.6,0.9-1,1.5-1.2l0.6-0.1c0.6-0.2,1.3,0,1.8,0.4
							l37.7,22.8c1.2,0.7,1.6,2.2,0.9,3.3c-0.6,0.9-1.6,1.3-2.6,1.1l-16.6,4l4.5,15.8c0.7,0.8,0.8,2.1,0.2,3
							c-0.7,1.2-2.3,1.6-3.5,0.9l-35.9-21.7l-13.9,22.9C1011.1,1,1009.5,1.4,1008.4,0.7z M1028.2-27.4l30.1,18.2l-3.7-13
							c-0.2-0.7-0.1-1.4,0.3-2c0.3-0.6,0.9-0.9,1.5-1.1l14-3.4L1040.1-47L1028.2-27.4z"/>
						<path fill="#121B1C" d="M1031.2-0.1l-13.9-22.9L981.5-1.4c-1.2,0.7-2.8,0.3-3.5-0.9c-0.6-0.9-0.5-2.2,0.2-3l4.5-15.8l-16.6-4
							c-1,0.2-2-0.2-2.6-1.1c-0.7-1.2-0.3-2.6,0.9-3.3l37.7-22.8c0.6-0.3,1.2-0.5,1.8-0.4l0.6,0.1c0.6,0.2,1.2,0.6,1.5,1.2
							l29.5,48.8c0.7,1.2,0.3,2.7-0.8,3.4S1031.9,1,1031.2-0.1z M1002.8-47l-30.4,18.4l14,3.4c0.7,0.2,1.2,0.5,1.5,1.1
							c0.3,0.6,0.5,1.3,0.3,2l-3.7,13l30.1-18.2L1002.8-47z"/>
					</g>
					<g>
						<path fill="#121B1C" d="M1045.5,49.9c-0.1,0-1,0-1,0v-3.2c0-1.4,0.3-2.7-1.1-2.7h-43c-1.4,0-3.9,1.4-3.9,2.7v3.2
							c0,0,0.6,0,0.5,0c-4.3,0.6-7,4.6-6.4,8.9c0.5,4,4.1,6.8,8,6.8c0.2,0,0.6,0,0.8,0c2.6,6.7,8.2,11.9,15.1,14.1
							c0.2,2,0.7,9.1-2.9,13.3c-0.6,0.7-0.8,1.7-0.3,2.5c0.4,0.9,1.3,1.3,2.3,1.3h17.6c1,0,1.9-0.4,2.3-1.3c0.4-0.9,0.3-1.9-0.4-2.6
							c-4.2-5-2.9-13.5-2.8-13.7c6.4-2.4,11.5-7.4,14-13.7c0.3,0,0.6,0.1,0.9,0.1c3.9,0,6.9-2.9,7.5-6.8
							C1053.2,54.5,1049.8,50.5,1045.5,49.9z M995.2,58.2c-0.2-1.4-0.7-2.7,1.3-3.2v2.2c0,1.2,0.4,2.3,0.6,3.4
							C996,60.4,995.4,59.4,995.2,58.2z M1026.9,92h-8.8c1.8-4,1.8-8.6,1.7-11.3c0.7,0.1,1.5,0.2,2.2,0.2c1.1,0,2.2-0.2,3.2-0.3
							C1025,83.2,1025,88,1026.9,92z M1039.5,57c0,10.5-8.5,19-19,19c-10.5,0-19-8.4-19-18.8V49h38V57z M1047.3,58.2
							c-0.2,1.3-1.5,2.3-2.8,2.5c0.2-1.2-0.1-2.4-0.1-3.7v-2C1045.5,55.4,1047.5,56.7,1047.3,58.2z"/>
						<path fill="#121B1C" d="M1038.5,105.5c0,1.4-1.1,2.5-2.5,2.5h-30c-1.4,0-2.5-1.1-2.5-2.5v-11c0-1.4,1.1-2.5,2.5-2.5h30
							c1.4,0,2.5,1.1,2.5,2.5V105.5z M1008.5,103h25v-6h-25V103z"/>
					</g>
				</g>
				<g clip-path="url(#SVGID_8_)">
					<g>
						<path fill="#121B1C" d="M855.5-16.7c-0.1,0-1,0-1,0v-3.2c0-1.4,0.3-3.1-1.1-3.1h-43c-1.4,0-3.9,1.7-3.9,3.1v3.2
							c0,0,0.6,0,0.5,0c-4.3,0.6-7,4.6-6.4,8.9c0.5,4,4.1,6.8,8,6.8c0.2,0,0.6,0,0.8,0c2.6,6.7,8.2,11.9,15.1,14.1
							c0.2,2,0.7,9.1-2.9,13.3c-0.6,0.7-0.8,1.5-0.3,2.4c0.4,0.9,1.3,1.2,2.3,1.2h17.6c1,0,1.9-0.3,2.3-1.2c0.4-0.9,0.3-1.8-0.4-2.5
							c-4.2-5-2.9-13.4-2.8-13.6c6.4-2.4,11.5-7.4,14-13.7c0.3,0,0.6,0.1,0.9,0.1c3.9,0,6.9-2.9,7.5-6.8
							C863.2-12.1,859.8-16.1,855.5-16.7z M805.2-8.5c-0.2-1.4-0.7-2.7,1.3-3.2v2.2c0,1.2,0.4,2.3,0.6,3.4
							C806-6.3,805.4-7.2,805.2-8.5z M836.9,25H828c1.8-4,1.8-8.4,1.7-11.1c0.7,0.1,1.5,0.3,2.2,0.3c1.1,0,2.2-0.3,3.2-0.4
							C835,16.3,835,21,836.9,25z M849.5-9.7c0,10.5-8.5,19-19,19s-19-8.4-19-18.8V-18h38V-9.7z M857.3-8.5
							c-0.2,1.3-1.5,2.3-2.8,2.5c0.2-1.2-0.1-2.4-0.1-3.7v-2C855.5-11.3,857.5-9.9,857.3-8.5z"/>
						<path fill="#121B1C" d="M848.5,38.5c0,1.4-1.1,2.5-2.5,2.5h-30c-1.4,0-2.5-1.1-2.5-2.5v-11c0-1.4,1.1-2.5,2.5-2.5h30
							c1.4,0,2.5,1.1,2.5,2.5V38.5z M818.5,36h25v-6h-25V36z"/>
					</g>
				</g>
				<g clip-path="url(#SVGID_8_)">
					<g>
						<path fill="#121B1C" d="M665.5-83.4c-0.1,0-1,0-1,0v-3.2c0-1.4,0.3-2.4-1.1-2.4h-43c-1.4,0-3.9,1-3.9,2.4v3.2c0,0,0.6,0,0.5,0
							c-4.3,0.6-7,4.6-6.4,8.9c0.5,4,4.1,6.8,8,6.8c0.2,0,0.6,0,0.8,0c2.6,6.7,8.2,11.9,15.1,14.1c0.2,2,0.7,9.1-2.9,13.3
							c-0.6,0.7-0.8,1.8-0.3,2.7c0.4,0.9,1.3,1.5,2.3,1.5h17.6c1,0,1.9-0.6,2.3-1.5c0.4-0.9,0.3-1.9-0.4-2.7
							c-4.2-5-2.9-13.5-2.8-13.7c6.4-2.4,11.5-7.4,14-13.8c0.3,0,0.6,0.1,0.9,0.1c3.9,0,6.9-2.9,7.5-6.8
							C673.2-78.8,669.8-82.8,665.5-83.4z M615.2-75.1c-0.2-1.4-0.7-2.7,1.3-3.2v2.2c0,1.2,0.4,2.3,0.6,3.4
							C616-73,615.4-73.9,615.2-75.1z M646.9-41H638c1.8-4,1.8-8.7,1.7-11.5c0.7,0.1,1.5,0.1,2.2,0.1c1.1,0,2.2,0,3.2-0.2
							C645-49.9,645-45,646.9-41z M659.5-76.4c0,10.5-8.5,19-19,19s-19-8.4-19-18.8V-84h38V-76.4z M667.3-75.1
							c-0.2,1.3-1.5,2.3-2.8,2.5c0.2-1.2-0.1-2.4-0.1-3.7v-2C665.5-78,667.5-76.6,667.3-75.1z"/>
						<path fill="#121B1C" d="M658.5-27.5c0,1.4-1.1,2.5-2.5,2.5h-30c-1.4,0-2.5-1.1-2.5-2.5v-11c0-1.4,1.1-2.5,2.5-2.5h30
							c1.4,0,2.5,1.1,2.5,2.5V-27.5z M628.5-30h25v-6h-25V-30z"/>
					</g>
				</g>
			</g>
		</g>
		<g clip-path="url(#SVGID_2_)">
			<g>
				<defs>
					<rect id="SVGID_9_" x="546.5" y="361" width="570" height="400"/>
				</defs>
				<clipPath id="SVGID_10_">
					<use xlink:href="#SVGID_9_"  overflow="visible"/>
				</clipPath>
				<g clip-path="url(#SVGID_10_)">
					<g>
						<path fill="#121B1C" d="M1008.4,800.7c-1.2-0.7-1.6-2.3-0.8-3.4l29.5-48.8c0.3-0.6,0.9-1,1.5-1.2l0.6-0.1
							c0.6-0.2,1.3,0,1.8,0.4l37.7,22.8c1.2,0.7,1.6,2.2,0.9,3.3c-0.6,0.9-1.6,1.3-2.6,1.1l-16.6,4l4.5,15.8c0.7,0.8,0.8,2.1,0.2,3
							c-0.7,1.2-2.3,1.6-3.5,0.9l-35.9-21.7l-13.9,22.9C1011.1,801,1009.5,801.4,1008.4,800.7z M1028.2,772.6l30.1,18.2l-3.7-13
							c-0.2-0.7-0.1-1.4,0.3-2c0.3-0.6,0.9-0.9,1.5-1.1l14-3.4l-30.4-18.4L1028.2,772.6z"/>
						<path fill="#121B1C" d="M1031.2,799.9l-13.9-22.9l-35.9,21.7c-1.2,0.7-2.8,0.3-3.5-0.9c-0.6-0.9-0.5-2.2,0.2-3l4.5-15.8
							l-16.6-4c-1,0.2-2-0.2-2.6-1.1c-0.7-1.2-0.3-2.6,0.9-3.3l37.7-22.8c0.6-0.3,1.2-0.5,1.8-0.4l0.6,0.1c0.6,0.2,1.2,0.6,1.5,1.2
							l29.5,48.8c0.7,1.2,0.3,2.7-0.8,3.4C1033.5,801.4,1031.9,801,1031.2,799.9z M1002.8,753l-30.4,18.4l14,3.4
							c0.7,0.2,1.2,0.5,1.5,1.1c0.3,0.6,0.5,1.3,0.3,2l-3.7,13l30.1-18.2L1002.8,753z"/>
					</g>
				</g>
				<g clip-path="url(#SVGID_10_)">
					<g>
						<path fill="#121B1C" d="M818.4,734c-1.2-0.7-1.6-2.3-0.8-3.4l29.5-48.8c0.3-0.6,0.9-1,1.5-1.2l0.6-0.1c0.6-0.2,1.3,0,1.8,0.4
							l37.7,22.8c1.2,0.7,1.6,2.2,0.9,3.3c-0.6,0.9-1.6,1.3-2.6,1.1l-16.6,4l4.5,15.8c0.7,0.8,0.8,2.1,0.2,3
							c-0.7,1.2-2.3,1.6-3.5,0.9l-35.9-21.7l-13.9,22.9C821.1,734.4,819.5,734.7,818.4,734z M838.2,706l30.1,18.2l-3.7-13
							c-0.2-0.7-0.1-1.4,0.3-2c0.3-0.6,0.9-0.9,1.5-1.1l14-3.4l-30.4-18.4L838.2,706z"/>
						<path fill="#121B1C" d="M841.2,733.2l-13.9-22.9l-35.9,21.7c-1.2,0.7-2.8,0.3-3.5-0.9c-0.6-0.9-0.5-2.2,0.2-3l4.5-15.8
							l-16.6-4c-1,0.2-2-0.2-2.6-1.1c-0.7-1.2-0.3-2.6,0.9-3.3l37.7-22.8c0.6-0.3,1.2-0.5,1.8-0.4l0.6,0.1c0.6,0.2,1.2,0.6,1.5,1.2
							l29.5,48.8c0.7,1.2,0.3,2.7-0.8,3.4S841.9,734.4,841.2,733.2z M812.8,686.3l-30.4,18.4l14,3.4c0.7,0.2,1.2,0.5,1.5,1.1
							c0.3,0.6,0.5,1.3,0.3,2l-3.7,13l30.1-18.2L812.8,686.3z"/>
					</g>
				</g>
				<g clip-path="url(#SVGID_10_)">
					<g>
						<path fill="#121B1C" d="M628.4,667.4c-1.2-0.7-1.6-2.3-0.8-3.4l29.5-48.8c0.3-0.6,0.9-1,1.5-1.2l0.6-0.1
							c0.6-0.2,1.3,0,1.8,0.4l37.7,22.8c1.2,0.7,1.6,2.2,0.9,3.3c-0.6,0.9-1.6,1.3-2.6,1.1l-16.6,4l4.5,15.8c0.7,0.8,0.8,2.1,0.2,3
							c-0.7,1.2-2.3,1.6-3.5,0.9l-35.9-21.7l-13.9,22.9C631.1,667.7,629.5,668.1,628.4,667.4z M648.2,639.3l30.1,18.2l-3.7-13
							c-0.2-0.7-0.1-1.4,0.3-2c0.3-0.6,0.9-0.9,1.5-1.1l14-3.4l-30.4-18.4L648.2,639.3z"/>
						<path fill="#121B1C" d="M651.2,666.5l-13.9-22.9l-35.9,21.7c-1.2,0.7-2.8,0.3-3.5-0.9c-0.6-0.9-0.5-2.2,0.2-3l4.5-15.8
							l-16.6-4c-1,0.2-2-0.2-2.6-1.1c-0.7-1.2-0.3-2.6,0.9-3.3l37.7-22.8c0.6-0.3,1.2-0.5,1.8-0.4l0.6,0.1c0.6,0.2,1.2,0.6,1.5,1.2
							l29.5,48.8c0.7,1.2,0.3,2.7-0.8,3.4C653.5,668.1,651.9,667.7,651.2,666.5z M622.8,619.6L592.4,638l14,3.4
							c0.7,0.2,1.2,0.5,1.5,1.1c0.3,0.6,0.5,1.3,0.3,2l-3.7,13l30.1-18.2L622.8,619.6z"/>
					</g>
					<g>
						<path fill="#121B1C" d="M665.5,716.6c-0.1,0-1,0-1,0v-3.2c0-1.4,0.3-2.4-1.1-2.4h-43c-1.4,0-3.9,1-3.9,2.4v3.2
							c0,0,0.6,0,0.5,0c-4.3,0.6-7,4.6-6.4,8.9c0.5,4,4.1,6.8,8,6.8c0.2,0,0.6,0,0.8,0c2.6,6.7,8.2,11.9,15.1,14.1
							c0.2,2,0.7,9.1-2.9,13.3c-0.6,0.7-0.8,1.8-0.3,2.7c0.4,0.9,1.3,1.5,2.3,1.5h17.6c1,0,1.9-0.6,2.3-1.5c0.4-0.9,0.3-1.9-0.4-2.7
							c-4.2-5-2.9-13.5-2.8-13.7c6.4-2.4,11.5-7.4,14-13.8c0.3,0,0.6,0.1,0.9,0.1c3.9,0,6.9-2.9,7.5-6.8
							C673.2,721.2,669.8,717.2,665.5,716.6z M615.2,724.9c-0.2-1.4-0.7-2.7,1.3-3.2v2.2c0,1.2,0.4,2.3,0.6,3.4
							C616,727,615.4,726.1,615.2,724.9z M646.9,759H638c1.8-4,1.8-8.7,1.7-11.5c0.7,0.1,1.5,0.1,2.2,0.1c1.1,0,2.2,0,3.2-0.2
							C645,750.1,645,755,646.9,759z M659.5,723.6c0,10.5-8.5,19-19,19s-19-8.4-19-18.8V716h38V723.6z M667.3,724.9
							c-0.2,1.3-1.5,2.3-2.8,2.5c0.2-1.2-0.1-2.4-0.1-3.7v-2C665.5,722,667.5,723.4,667.3,724.9z"/>
						<path fill="#121B1C" d="M658.5,772.5c0,1.4-1.1,2.5-2.5,2.5h-30c-1.4,0-2.5-1.1-2.5-2.5v-11c0-1.4,1.1-2.5,2.5-2.5h30
							c1.4,0,2.5,1.1,2.5,2.5V772.5z M628.5,770h25v-6h-25V770z"/>
					</g>
				</g>
				<g clip-path="url(#SVGID_10_)">
					<g>
						<path fill="#121B1C" d="M1008.4,600.7c-1.2-0.7-1.6-2.3-0.8-3.4l29.5-48.8c0.3-0.6,0.9-1,1.5-1.2l0.6-0.1
							c0.6-0.2,1.3,0,1.8,0.4l37.7,22.8c1.2,0.7,1.6,2.2,0.9,3.3c-0.6,0.9-1.6,1.3-2.6,1.1l-16.6,4l4.5,15.8c0.7,0.8,0.8,2.1,0.2,3
							c-0.7,1.2-2.3,1.6-3.5,0.9l-35.9-21.7l-13.9,22.9C1011.1,601,1009.5,601.4,1008.4,600.7z M1028.2,572.6l30.1,18.2l-3.7-13
							c-0.2-0.7-0.1-1.4,0.3-2c0.3-0.6,0.9-0.9,1.5-1.1l14-3.4l-30.4-18.4L1028.2,572.6z"/>
						<path fill="#121B1C" d="M1031.2,599.9l-13.9-22.9l-35.9,21.7c-1.2,0.7-2.8,0.3-3.5-0.9c-0.6-0.9-0.5-2.2,0.2-3l4.5-15.8
							l-16.6-4c-1,0.2-2-0.2-2.6-1.1c-0.7-1.2-0.3-2.6,0.9-3.3l37.7-22.8c0.6-0.3,1.2-0.5,1.8-0.4l0.6,0.1c0.6,0.2,1.2,0.6,1.5,1.2
							l29.5,48.8c0.7,1.2,0.3,2.7-0.8,3.4C1033.5,601.4,1031.9,601,1031.2,599.9z M1002.8,553l-30.4,18.4l14,3.4
							c0.7,0.2,1.2,0.5,1.5,1.1c0.3,0.6,0.5,1.3,0.3,2l-3.7,13l30.1-18.2L1002.8,553z"/>
					</g>
					<g>
						<path fill="#121B1C" d="M1045.5,649.9c-0.1,0-1,0-1,0v-3.2c0-1.4,0.3-2.7-1.1-2.7h-43c-1.4,0-3.9,1.4-3.9,2.7v3.2
							c0,0,0.6,0,0.5,0c-4.3,0.6-7,4.6-6.4,8.9c0.5,4,4.1,6.8,8,6.8c0.2,0,0.6,0,0.8,0c2.6,6.7,8.2,11.9,15.1,14.1
							c0.2,2,0.7,9.1-2.9,13.3c-0.6,0.7-0.8,1.7-0.3,2.5c0.4,0.9,1.3,1.3,2.3,1.3h17.6c1,0,1.9-0.4,2.3-1.3c0.4-0.9,0.3-1.9-0.4-2.6
							c-4.2-5-2.9-13.5-2.8-13.7c6.4-2.4,11.5-7.4,14-13.7c0.3,0,0.6,0.1,0.9,0.1c3.9,0,6.9-2.9,7.5-6.8
							C1053.2,654.5,1049.8,650.5,1045.5,649.9z M995.2,658.2c-0.2-1.4-0.7-2.7,1.3-3.2v2.2c0,1.2,0.4,2.3,0.6,3.4
							C996,660.4,995.4,659.4,995.2,658.2z M1026.9,692h-8.8c1.8-4,1.8-8.6,1.7-11.3c0.7,0.1,1.5,0.2,2.2,0.2c1.1,0,2.2-0.2,3.2-0.3
							C1025,683.2,1025,688,1026.9,692z M1039.5,657c0,10.5-8.5,19-19,19c-10.5,0-19-8.4-19-18.8V649h38V657z M1047.3,658.2
							c-0.2,1.3-1.5,2.3-2.8,2.5c0.2-1.2-0.1-2.4-0.1-3.7v-2C1045.5,655.4,1047.5,656.7,1047.3,658.2z"/>
						<path fill="#121B1C" d="M1038.5,705.5c0,1.4-1.1,2.5-2.5,2.5h-30c-1.4,0-2.5-1.1-2.5-2.5v-11c0-1.4,1.1-2.5,2.5-2.5h30
							c1.4,0,2.5,1.1,2.5,2.5V705.5z M1008.5,703h25v-6h-25V703z"/>
					</g>
				</g>
				<g clip-path="url(#SVGID_10_)">
					<g>
						<path fill="#121B1C" d="M818.4,534c-1.2-0.7-1.6-2.3-0.8-3.4l29.5-48.8c0.3-0.6,0.9-1,1.5-1.2l0.6-0.1c0.6-0.2,1.3,0,1.8,0.4
							l37.7,22.8c1.2,0.7,1.6,2.2,0.9,3.3c-0.6,0.9-1.6,1.3-2.6,1.1l-16.6,4l4.5,15.8c0.7,0.8,0.8,2.1,0.2,3
							c-0.7,1.2-2.3,1.6-3.5,0.9l-35.9-21.7l-13.9,22.9C821.1,534.4,819.5,534.7,818.4,534z M838.2,506l30.1,18.2l-3.7-13
							c-0.2-0.7-0.1-1.4,0.3-2c0.3-0.6,0.9-0.9,1.5-1.1l14-3.4l-30.4-18.4L838.2,506z"/>
						<path fill="#121B1C" d="M841.2,533.2l-13.9-22.9l-35.9,21.7c-1.2,0.7-2.8,0.3-3.5-0.9c-0.6-0.9-0.5-2.2,0.2-3l4.5-15.8
							l-16.6-4c-1,0.2-2-0.2-2.6-1.1c-0.7-1.2-0.3-2.6,0.9-3.3l37.7-22.8c0.6-0.3,1.2-0.5,1.8-0.4l0.6,0.1c0.6,0.2,1.2,0.6,1.5,1.2
							l29.5,48.8c0.7,1.2,0.3,2.7-0.8,3.4S841.9,534.4,841.2,533.2z M812.8,486.3l-30.4,18.4l14,3.4c0.7,0.2,1.2,0.5,1.5,1.1
							c0.3,0.6,0.5,1.3,0.3,2l-3.7,13l30.1-18.2L812.8,486.3z"/>
					</g>
					<g>
						<path fill="#121B1C" d="M855.5,583.3c-0.1,0-1,0-1,0v-3.2c0-1.4,0.3-3.1-1.1-3.1h-43c-1.4,0-3.9,1.7-3.9,3.1v3.2
							c0,0,0.6,0,0.5,0c-4.3,0.6-7,4.6-6.4,8.9c0.5,4,4.1,6.8,8,6.8c0.2,0,0.6,0,0.8,0c2.6,6.7,8.2,11.9,15.1,14.1
							c0.2,2,0.7,9.1-2.9,13.3c-0.6,0.7-0.8,1.5-0.3,2.4c0.4,0.9,1.3,1.2,2.3,1.2h17.6c1,0,1.9-0.3,2.3-1.2c0.4-0.9,0.3-1.8-0.4-2.5
							c-4.2-5-2.9-13.4-2.8-13.6c6.4-2.4,11.5-7.4,14-13.7c0.3,0,0.6,0.1,0.9,0.1c3.9,0,6.9-2.9,7.5-6.8
							C863.2,587.9,859.8,583.9,855.5,583.3z M805.2,591.5c-0.2-1.4-0.7-2.7,1.3-3.2v2.2c0,1.2,0.4,2.3,0.6,3.4
							C806,593.7,805.4,592.8,805.2,591.5z M836.9,625H828c1.8-4,1.8-8.4,1.7-11.1c0.7,0.1,1.5,0.3,2.2,0.3c1.1,0,2.2-0.3,3.2-0.4
							C835,616.3,835,621,836.9,625z M849.5,590.3c0,10.5-8.5,19-19,19s-19-8.4-19-18.8V582h38V590.3z M857.3,591.5
							c-0.2,1.3-1.5,2.3-2.8,2.5c0.2-1.2-0.1-2.4-0.1-3.7v-2C855.5,588.7,857.5,590.1,857.3,591.5z"/>
						<path fill="#121B1C" d="M848.5,638.5c0,1.4-1.1,2.5-2.5,2.5h-30c-1.4,0-2.5-1.1-2.5-2.5v-11c0-1.4,1.1-2.5,2.5-2.5h30
							c1.4,0,2.5,1.1,2.5,2.5V638.5z M818.5,636h25v-6h-25V636z"/>
					</g>
				</g>
				<g clip-path="url(#SVGID_10_)">
					<g>
						<path fill="#121B1C" d="M628.4,467.4c-1.2-0.7-1.6-2.3-0.8-3.4l29.5-48.8c0.3-0.6,0.9-1,1.5-1.2l0.6-0.1
							c0.6-0.2,1.3,0,1.8,0.4l37.7,22.8c1.2,0.7,1.6,2.2,0.9,3.3c-0.6,0.9-1.6,1.3-2.6,1.1l-16.6,4l4.5,15.8c0.7,0.8,0.8,2.1,0.2,3
							c-0.7,1.2-2.3,1.6-3.5,0.9l-35.9-21.7l-13.9,22.9C631.1,467.7,629.5,468.1,628.4,467.4z M648.2,439.3l30.1,18.2l-3.7-13
							c-0.2-0.7-0.1-1.4,0.3-2c0.3-0.6,0.9-0.9,1.5-1.1l14-3.4l-30.4-18.4L648.2,439.3z"/>
						<path fill="#121B1C" d="M651.2,466.5l-13.9-22.9l-35.9,21.7c-1.2,0.7-2.8,0.3-3.5-0.9c-0.6-0.9-0.5-2.2,0.2-3l4.5-15.8
							l-16.6-4c-1,0.2-2-0.2-2.6-1.1c-0.7-1.2-0.3-2.6,0.9-3.3l37.7-22.8c0.6-0.3,1.2-0.5,1.8-0.4l0.6,0.1c0.6,0.2,1.2,0.6,1.5,1.2
							l29.5,48.8c0.7,1.2,0.3,2.7-0.8,3.4C653.5,468.1,651.9,467.7,651.2,466.5z M622.8,419.6L592.4,438l14,3.4
							c0.7,0.2,1.2,0.5,1.5,1.1c0.3,0.6,0.5,1.3,0.3,2l-3.7,13l30.1-18.2L622.8,419.6z"/>
					</g>
					<g>
						<path fill="#121B1C" d="M665.5,516.6c-0.1,0-1,0-1,0v-3.2c0-1.4,0.3-2.4-1.1-2.4h-43c-1.4,0-3.9,1-3.9,2.4v3.2
							c0,0,0.6,0,0.5,0c-4.3,0.6-7,4.6-6.4,8.9c0.5,4,4.1,6.8,8,6.8c0.2,0,0.6,0,0.8,0c2.6,6.7,8.2,11.9,15.1,14.1
							c0.2,2,0.7,9.1-2.9,13.3c-0.6,0.7-0.8,1.8-0.3,2.7c0.4,0.9,1.3,1.5,2.3,1.5h17.6c1,0,1.9-0.6,2.3-1.5c0.4-0.9,0.3-1.9-0.4-2.7
							c-4.2-5-2.9-13.5-2.8-13.7c6.4-2.4,11.5-7.4,14-13.8c0.3,0,0.6,0.1,0.9,0.1c3.9,0,6.9-2.9,7.5-6.8
							C673.2,521.2,669.8,517.2,665.5,516.6z M615.2,524.9c-0.2-1.4-0.7-2.7,1.3-3.2v2.2c0,1.2,0.4,2.3,0.6,3.4
							C616,527,615.4,526.1,615.2,524.9z M646.9,559H638c1.8-4,1.8-8.7,1.7-11.5c0.7,0.1,1.5,0.1,2.2,0.1c1.1,0,2.2,0,3.2-0.2
							C645,550.1,645,555,646.9,559z M659.5,523.6c0,10.5-8.5,19-19,19s-19-8.4-19-18.8V516h38V523.6z M667.3,524.9
							c-0.2,1.3-1.5,2.3-2.8,2.5c0.2-1.2-0.1-2.4-0.1-3.7v-2C665.5,522,667.5,523.4,667.3,524.9z"/>
						<path fill="#121B1C" d="M658.5,572.5c0,1.4-1.1,2.5-2.5,2.5h-30c-1.4,0-2.5-1.1-2.5-2.5v-11c0-1.4,1.1-2.5,2.5-2.5h30
							c1.4,0,2.5,1.1,2.5,2.5V572.5z M628.5,570h25v-6h-25V570z"/>
					</g>
				</g>
				<g clip-path="url(#SVGID_10_)">
					<g>
						<path fill="#121B1C" d="M1008.4,400.7c-1.2-0.7-1.6-2.3-0.8-3.4l29.5-48.8c0.3-0.6,0.9-1,1.5-1.2l0.6-0.1
							c0.6-0.2,1.3,0,1.8,0.4l37.7,22.8c1.2,0.7,1.6,2.2,0.9,3.3c-0.6,0.9-1.6,1.3-2.6,1.1l-16.6,4l4.5,15.8c0.7,0.8,0.8,2.1,0.2,3
							c-0.7,1.2-2.3,1.6-3.5,0.9l-35.9-21.7l-13.9,22.9C1011.1,401,1009.5,401.4,1008.4,400.7z M1028.2,372.6l30.1,18.2l-3.7-13
							c-0.2-0.7-0.1-1.4,0.3-2c0.3-0.6,0.9-0.9,1.5-1.1l14-3.4l-30.4-18.4L1028.2,372.6z"/>
						<path fill="#121B1C" d="M1031.2,399.9l-13.9-22.9l-35.9,21.7c-1.2,0.7-2.8,0.3-3.5-0.9c-0.6-0.9-0.5-2.2,0.2-3l4.5-15.8
							l-16.6-4c-1,0.2-2-0.2-2.6-1.1c-0.7-1.2-0.3-2.6,0.9-3.3l37.7-22.8c0.6-0.3,1.2-0.5,1.8-0.4l0.6,0.1c0.6,0.2,1.2,0.6,1.5,1.2
							l29.5,48.8c0.7,1.2,0.3,2.7-0.8,3.4C1033.5,401.4,1031.9,401,1031.2,399.9z M1002.8,353l-30.4,18.4l14,3.4
							c0.7,0.2,1.2,0.5,1.5,1.1c0.3,0.6,0.5,1.3,0.3,2l-3.7,13l30.1-18.2L1002.8,353z"/>
					</g>
					<g>
						<path fill="#121B1C" d="M1045.5,449.9c-0.1,0-1,0-1,0v-3.2c0-1.4,0.3-2.7-1.1-2.7h-43c-1.4,0-3.9,1.4-3.9,2.7v3.2
							c0,0,0.6,0,0.5,0c-4.3,0.6-7,4.6-6.4,8.9c0.5,4,4.1,6.8,8,6.8c0.2,0,0.6,0,0.8,0c2.6,6.7,8.2,11.9,15.1,14.1
							c0.2,2,0.7,9.1-2.9,13.3c-0.6,0.7-0.8,1.7-0.3,2.5c0.4,0.9,1.3,1.3,2.3,1.3h17.6c1,0,1.9-0.4,2.3-1.3c0.4-0.9,0.3-1.9-0.4-2.6
							c-4.2-5-2.9-13.5-2.8-13.7c6.4-2.4,11.5-7.4,14-13.7c0.3,0,0.6,0.1,0.9,0.1c3.9,0,6.9-2.9,7.5-6.8
							C1053.2,454.5,1049.8,450.5,1045.5,449.9z M995.2,458.2c-0.2-1.4-0.7-2.7,1.3-3.2v2.2c0,1.2,0.4,2.3,0.6,3.4
							C996,460.4,995.4,459.4,995.2,458.2z M1026.9,492h-8.8c1.8-4,1.8-8.6,1.7-11.3c0.7,0.1,1.5,0.2,2.2,0.2c1.1,0,2.2-0.2,3.2-0.3
							C1025,483.2,1025,488,1026.9,492z M1039.5,457c0,10.5-8.5,19-19,19c-10.5,0-19-8.4-19-18.8V449h38V457z M1047.3,458.2
							c-0.2,1.3-1.5,2.3-2.8,2.5c0.2-1.2-0.1-2.4-0.1-3.7v-2C1045.5,455.4,1047.5,456.7,1047.3,458.2z"/>
						<path fill="#121B1C" d="M1038.5,505.5c0,1.4-1.1,2.5-2.5,2.5h-30c-1.4,0-2.5-1.1-2.5-2.5v-11c0-1.4,1.1-2.5,2.5-2.5h30
							c1.4,0,2.5,1.1,2.5,2.5V505.5z M1008.5,503h25v-6h-25V503z"/>
					</g>
				</g>
				<g clip-path="url(#SVGID_10_)">
					<g>
						<path fill="#121B1C" d="M855.5,383.3c-0.1,0-1,0-1,0v-3.2c0-1.4,0.3-3.1-1.1-3.1h-43c-1.4,0-3.9,1.7-3.9,3.1v3.2
							c0,0,0.6,0,0.5,0c-4.3,0.6-7,4.6-6.4,8.9c0.5,4,4.1,6.8,8,6.8c0.2,0,0.6,0,0.8,0c2.6,6.7,8.2,11.9,15.1,14.1
							c0.2,2,0.7,9.1-2.9,13.3c-0.6,0.7-0.8,1.5-0.3,2.4c0.4,0.9,1.3,1.2,2.3,1.2h17.6c1,0,1.9-0.3,2.3-1.2c0.4-0.9,0.3-1.8-0.4-2.5
							c-4.2-5-2.9-13.4-2.8-13.6c6.4-2.4,11.5-7.4,14-13.7c0.3,0,0.6,0.1,0.9,0.1c3.9,0,6.9-2.9,7.5-6.8
							C863.2,387.9,859.8,383.9,855.5,383.3z M805.2,391.5c-0.2-1.4-0.7-2.7,1.3-3.2v2.2c0,1.2,0.4,2.3,0.6,3.4
							C806,393.7,805.4,392.8,805.2,391.5z M836.9,425H828c1.8-4,1.8-8.4,1.7-11.1c0.7,0.1,1.5,0.3,2.2,0.3c1.1,0,2.2-0.3,3.2-0.4
							C835,416.3,835,421,836.9,425z M849.5,390.3c0,10.5-8.5,19-19,19s-19-8.4-19-18.8V382h38V390.3z M857.3,391.5
							c-0.2,1.3-1.5,2.3-2.8,2.5c0.2-1.2-0.1-2.4-0.1-3.7v-2C855.5,388.7,857.5,390.1,857.3,391.5z"/>
						<path fill="#121B1C" d="M848.5,438.5c0,1.4-1.1,2.5-2.5,2.5h-30c-1.4,0-2.5-1.1-2.5-2.5v-11c0-1.4,1.1-2.5,2.5-2.5h30
							c1.4,0,2.5,1.1,2.5,2.5V438.5z M818.5,436h25v-6h-25V436z"/>
					</g>
				</g>
				<g clip-path="url(#SVGID_10_)">
					<g>
						<path fill="#121B1C" d="M665.5,316.6c-0.1,0-1,0-1,0v-3.2c0-1.4,0.3-2.4-1.1-2.4h-43c-1.4,0-3.9,1-3.9,2.4v3.2
							c0,0,0.6,0,0.5,0c-4.3,0.6-7,4.6-6.4,8.9c0.5,4,4.1,6.8,8,6.8c0.2,0,0.6,0,0.8,0c2.6,6.7,8.2,11.9,15.1,14.1
							c0.2,2,0.7,9.1-2.9,13.3c-0.6,0.7-0.8,1.8-0.3,2.7c0.4,0.9,1.3,1.5,2.3,1.5h17.6c1,0,1.9-0.6,2.3-1.5c0.4-0.9,0.3-1.9-0.4-2.7
							c-4.2-5-2.9-13.5-2.8-13.7c6.4-2.4,11.5-7.4,14-13.8c0.3,0,0.6,0.1,0.9,0.1c3.9,0,6.9-2.9,7.5-6.8
							C673.2,321.2,669.8,317.2,665.5,316.6z M615.2,324.9c-0.2-1.4-0.7-2.7,1.3-3.2v2.2c0,1.2,0.4,2.3,0.6,3.4
							C616,327,615.4,326.1,615.2,324.9z M646.9,359H638c1.8-4,1.8-8.7,1.7-11.5c0.7,0.1,1.5,0.1,2.2,0.1c1.1,0,2.2,0,3.2-0.2
							C645,350.1,645,355,646.9,359z M659.5,323.6c0,10.5-8.5,19-19,19s-19-8.4-19-18.8V316h38V323.6z M667.3,324.9
							c-0.2,1.3-1.5,2.3-2.8,2.5c0.2-1.2-0.1-2.4-0.1-3.7v-2C665.5,322,667.5,323.4,667.3,324.9z"/>
						<path fill="#121B1C" d="M658.5,372.5c0,1.4-1.1,2.5-2.5,2.5h-30c-1.4,0-2.5-1.1-2.5-2.5v-11c0-1.4,1.1-2.5,2.5-2.5h30
							c1.4,0,2.5,1.1,2.5,2.5V372.5z M628.5,370h25v-6h-25V370z"/>
					</g>
				</g>
			</g>
		</g>
		<g clip-path="url(#SVGID_2_)">
			<g>
				<defs>
					<rect id="SVGID_11_" x="-23.5" y="-39" width="570" height="400"/>
				</defs>
				<clipPath id="SVGID_12_">
					<use xlink:href="#SVGID_11_"  overflow="visible"/>
				</clipPath>
				<g clip-path="url(#SVGID_12_)">
					<g>
						<path fill="#121B1C" d="M438.4,400.7c-1.2-0.7-1.6-2.3-0.8-3.4l29.5-48.8c0.3-0.6,0.9-1,1.5-1.2l0.6-0.1
							c0.6-0.2,1.3,0,1.8,0.4l37.7,22.8c1.2,0.7,1.6,2.2,0.9,3.3c-0.6,0.9-1.6,1.3-2.6,1.1l-16.6,4l4.5,15.8c0.7,0.8,0.8,2.1,0.2,3
							c-0.7,1.2-2.3,1.6-3.5,0.9l-35.9-21.7l-13.9,22.9C441.1,401,439.5,401.4,438.4,400.7z M458.2,372.6l30.1,18.2l-3.7-13
							c-0.2-0.7-0.1-1.4,0.3-2c0.3-0.6,0.9-0.9,1.5-1.1l14-3.4L470.1,353L458.2,372.6z"/>
						<path fill="#121B1C" d="M461.2,399.9l-13.9-22.9l-35.9,21.7c-1.2,0.7-2.8,0.3-3.5-0.9c-0.6-0.9-0.5-2.2,0.2-3l4.5-15.8
							l-16.6-4c-1,0.2-2-0.2-2.6-1.1c-0.7-1.2-0.3-2.6,0.9-3.3l37.7-22.8c0.6-0.3,1.2-0.5,1.8-0.4l0.6,0.1c0.6,0.2,1.2,0.6,1.5,1.2
							l29.5,48.8c0.7,1.2,0.3,2.7-0.8,3.4C463.5,401.4,461.9,401,461.2,399.9z M432.8,353l-30.4,18.4l14,3.4
							c0.7,0.2,1.2,0.5,1.5,1.1c0.3,0.6,0.5,1.3,0.3,2l-3.7,13l30.1-18.2L432.8,353z"/>
					</g>
				</g>
				<g clip-path="url(#SVGID_12_)">
					<g>
						<path fill="#121B1C" d="M248.4,334c-1.2-0.7-1.6-2.3-0.8-3.4l29.5-48.8c0.3-0.6,0.9-1,1.5-1.2l0.6-0.1c0.6-0.2,1.3,0,1.8,0.4
							l37.7,22.8c1.2,0.7,1.6,2.2,0.9,3.3c-0.6,0.9-1.6,1.3-2.6,1.1l-16.6,4l4.5,15.8c0.7,0.8,0.8,2.1,0.2,3
							c-0.7,1.2-2.3,1.6-3.5,0.9l-35.9-21.7l-13.9,22.9C251.1,334.4,249.5,334.7,248.4,334z M268.2,306l30.1,18.2l-3.7-13
							c-0.2-0.7-0.1-1.4,0.3-2c0.3-0.6,0.9-0.9,1.5-1.1l14-3.4l-30.4-18.4L268.2,306z"/>
						<path fill="#121B1C" d="M271.2,333.2l-13.9-22.9l-35.9,21.7c-1.2,0.7-2.8,0.3-3.5-0.9c-0.6-0.9-0.5-2.2,0.2-3l4.5-15.8
							l-16.6-4c-1,0.2-2-0.2-2.6-1.1c-0.7-1.2-0.3-2.6,0.9-3.3l37.7-22.8c0.6-0.3,1.2-0.5,1.8-0.4l0.6,0.1c0.6,0.2,1.2,0.6,1.5,1.2
							l29.5,48.8c0.7,1.2,0.3,2.7-0.8,3.4C273.5,334.7,271.9,334.4,271.2,333.2z M242.8,286.3l-30.4,18.4l14,3.4
							c0.7,0.2,1.2,0.5,1.5,1.1c0.3,0.6,0.5,1.3,0.3,2l-3.7,13l30.1-18.2L242.8,286.3z"/>
					</g>
				</g>
				<g clip-path="url(#SVGID_12_)">
					<g>
						<path fill="#121B1C" d="M58.4,267.4c-1.2-0.7-1.6-2.3-0.8-3.4L87,215.2c0.3-0.6,0.9-1,1.5-1.2l0.6-0.1c0.6-0.2,1.3,0,1.8,0.4
							l37.7,22.8c1.2,0.7,1.6,2.2,0.9,3.3c-0.6,0.9-1.6,1.3-2.6,1.1l-16.6,4l4.5,15.8c0.7,0.8,0.8,2.1,0.2,3
							c-0.7,1.2-2.3,1.6-3.5,0.9l-35.9-21.7l-13.9,22.9C61.1,267.7,59.5,268.1,58.4,267.4z M78.2,239.3l30.1,18.2l-3.7-13
							c-0.2-0.7-0.1-1.4,0.3-2c0.3-0.6,0.9-0.9,1.5-1.1l14-3.4l-30.4-18.4L78.2,239.3z"/>
						<path fill="#121B1C" d="M81.2,266.5l-13.9-22.9l-35.9,21.7c-1.2,0.7-2.8,0.3-3.5-0.9c-0.6-0.9-0.5-2.2,0.2-3l4.5-15.8l-16.6-4
							c-1,0.2-2-0.2-2.6-1.1c-0.7-1.2-0.3-2.6,0.9-3.3L52,214.3c0.6-0.3,1.2-0.5,1.8-0.4l0.6,0.1c0.6,0.2,1.2,0.6,1.5,1.2l29.5,48.8
							c0.7,1.2,0.3,2.7-0.8,3.4C83.5,268.1,81.9,267.7,81.2,266.5z M52.8,219.6L22.4,238l14,3.4c0.7,0.2,1.2,0.5,1.5,1.1
							c0.3,0.6,0.5,1.3,0.3,2l-3.7,13l30.1-18.2L52.8,219.6z"/>
					</g>
					<g>
						<path fill="#121B1C" d="M95.5,316.6c-0.1,0-1,0-1,0v-3.2c0-1.4,0.3-2.4-1.1-2.4h-43c-1.4,0-3.9,1-3.9,2.4v3.2c0,0,0.6,0,0.5,0
							c-4.3,0.6-7,4.6-6.4,8.9c0.5,4,4.1,6.8,8,6.8c0.2,0,0.6,0,0.8,0c2.6,6.7,8.2,11.9,15.1,14.1c0.2,2,0.7,9.1-2.9,13.3
							c-0.6,0.7-0.8,1.8-0.3,2.7c0.4,0.9,1.3,1.5,2.3,1.5h17.6c1,0,1.9-0.6,2.3-1.5c0.4-0.9,0.3-1.9-0.4-2.7
							c-4.2-5-2.9-13.5-2.8-13.7c6.4-2.4,11.5-7.4,14-13.8c0.3,0,0.6,0.1,0.9,0.1c3.9,0,6.9-2.9,7.5-6.8
							C103.2,321.2,99.8,317.2,95.5,316.6z M45.2,324.9c-0.2-1.4-0.7-2.7,1.3-3.2v2.2c0,1.2,0.4,2.3,0.6,3.4
							C46,327,45.4,326.1,45.2,324.9z M76.9,359H68c1.8-4,1.8-8.7,1.7-11.5c0.7,0.1,1.5,0.1,2.2,0.1c1.1,0,2.2,0,3.2-0.2
							C75,350.1,75,355,76.9,359z M89.5,323.6c0,10.5-8.5,19-19,19s-19-8.4-19-18.8V316h38V323.6z M97.3,324.9
							c-0.2,1.3-1.5,2.3-2.8,2.5c0.2-1.2-0.1-2.4-0.1-3.7v-2C95.5,322,97.5,323.4,97.3,324.9z"/>
						<path fill="#121B1C" d="M88.5,372.5c0,1.4-1.1,2.5-2.5,2.5H56c-1.4,0-2.5-1.1-2.5-2.5v-11c0-1.4,1.1-2.5,2.5-2.5h30
							c1.4,0,2.5,1.1,2.5,2.5V372.5z M58.5,370h25v-6h-25V370z"/>
					</g>
				</g>
				<g clip-path="url(#SVGID_12_)">
					<g>
						<path fill="#121B1C" d="M438.4,200.7c-1.2-0.7-1.6-2.3-0.8-3.4l29.5-48.8c0.3-0.6,0.9-1,1.5-1.2l0.6-0.1
							c0.6-0.2,1.3,0,1.8,0.4l37.7,22.8c1.2,0.7,1.6,2.2,0.9,3.3c-0.6,0.9-1.6,1.3-2.6,1.1l-16.6,4l4.5,15.8c0.7,0.8,0.8,2.1,0.2,3
							c-0.7,1.2-2.3,1.6-3.5,0.9l-35.9-21.7l-13.9,22.9C441.1,201,439.5,201.4,438.4,200.7z M458.2,172.6l30.1,18.2l-3.7-13
							c-0.2-0.7-0.1-1.4,0.3-2c0.3-0.6,0.9-0.9,1.5-1.1l14-3.4L470.1,153L458.2,172.6z"/>
						<path fill="#121B1C" d="M461.2,199.9l-13.9-22.9l-35.9,21.7c-1.2,0.7-2.8,0.3-3.5-0.9c-0.6-0.9-0.5-2.2,0.2-3l4.5-15.8
							l-16.6-4c-1,0.2-2-0.2-2.6-1.1c-0.7-1.2-0.3-2.6,0.9-3.3l37.7-22.8c0.6-0.3,1.2-0.5,1.8-0.4l0.6,0.1c0.6,0.2,1.2,0.6,1.5,1.2
							l29.5,48.8c0.7,1.2,0.3,2.7-0.8,3.4C463.5,201.4,461.9,201,461.2,199.9z M432.8,153l-30.4,18.4l14,3.4
							c0.7,0.2,1.2,0.5,1.5,1.1c0.3,0.6,0.5,1.3,0.3,2l-3.7,13l30.1-18.2L432.8,153z"/>
					</g>
					<g>
						<path fill="#121B1C" d="M475.5,249.9c-0.1,0-1,0-1,0v-3.2c0-1.4,0.3-2.7-1.1-2.7h-43c-1.4,0-3.9,1.4-3.9,2.7v3.2
							c0,0,0.6,0,0.5,0c-4.3,0.6-7,4.6-6.4,8.9c0.5,4,4.1,6.8,8,6.8c0.2,0,0.6,0,0.8,0c2.6,6.7,8.2,11.9,15.1,14.1
							c0.2,2,0.7,9.1-2.9,13.3c-0.6,0.7-0.8,1.7-0.3,2.5c0.4,0.9,1.3,1.3,2.3,1.3h17.6c1,0,1.9-0.4,2.3-1.3c0.4-0.9,0.3-1.9-0.4-2.6
							c-4.2-5-2.9-13.5-2.8-13.7c6.4-2.4,11.5-7.4,14-13.7c0.3,0,0.6,0.1,0.9,0.1c3.9,0,6.9-2.9,7.5-6.8
							C483.2,254.5,479.8,250.5,475.5,249.9z M425.2,258.2c-0.2-1.4-0.7-2.7,1.3-3.2v2.2c0,1.2,0.4,2.3,0.6,3.4
							C426,260.4,425.4,259.4,425.2,258.2z M456.9,292H448c1.8-4,1.8-8.6,1.7-11.3c0.7,0.1,1.5,0.2,2.2,0.2c1.1,0,2.2-0.2,3.2-0.3
							C455,283.2,455,288,456.9,292z M469.5,257c0,10.5-8.5,19-19,19s-19-8.4-19-18.8V249h38V257z M477.3,258.2
							c-0.2,1.3-1.5,2.3-2.8,2.5c0.2-1.2-0.1-2.4-0.1-3.7v-2C475.5,255.4,477.5,256.7,477.3,258.2z"/>
						<path fill="#121B1C" d="M468.5,305.5c0,1.4-1.1,2.5-2.5,2.5h-30c-1.4,0-2.5-1.1-2.5-2.5v-11c0-1.4,1.1-2.5,2.5-2.5h30
							c1.4,0,2.5,1.1,2.5,2.5V305.5z M438.5,303h25v-6h-25V303z"/>
					</g>
				</g>
				<g clip-path="url(#SVGID_12_)">
					<g>
						<path fill="#121B1C" d="M248.4,134c-1.2-0.7-1.6-2.3-0.8-3.4L277,81.8c0.3-0.6,0.9-1,1.5-1.2l0.6-0.1c0.6-0.2,1.3,0,1.8,0.4
							l37.7,22.8c1.2,0.7,1.6,2.2,0.9,3.3c-0.6,0.9-1.6,1.3-2.6,1.1l-16.6,4l4.5,15.8c0.7,0.8,0.8,2.1,0.2,3
							c-0.7,1.2-2.3,1.6-3.5,0.9l-35.9-21.7l-13.9,22.9C251.1,134.4,249.5,134.7,248.4,134z M268.2,106l30.1,18.2l-3.7-13
							c-0.2-0.7-0.1-1.4,0.3-2c0.3-0.6,0.9-0.9,1.5-1.1l14-3.4l-30.4-18.4L268.2,106z"/>
						<path fill="#121B1C" d="M271.2,133.2l-13.9-22.9l-35.9,21.7c-1.2,0.7-2.8,0.3-3.5-0.9c-0.6-0.9-0.5-2.2,0.2-3l4.5-15.8
							l-16.6-4c-1,0.2-2-0.2-2.6-1.1c-0.7-1.2-0.3-2.6,0.9-3.3L242,80.9c0.6-0.3,1.2-0.5,1.8-0.4l0.6,0.1c0.6,0.2,1.2,0.6,1.5,1.2
							l29.5,48.8c0.7,1.2,0.3,2.7-0.8,3.4C273.5,134.7,271.9,134.4,271.2,133.2z M242.8,86.3l-30.4,18.4l14,3.4
							c0.7,0.2,1.2,0.5,1.5,1.1c0.3,0.6,0.5,1.3,0.3,2l-3.7,13l30.1-18.2L242.8,86.3z"/>
					</g>
					<g>
						<path fill="#121B1C" d="M285.5,183.3c-0.1,0-1,0-1,0v-3.2c0-1.4,0.3-3.1-1.1-3.1h-43c-1.4,0-3.9,1.7-3.9,3.1v3.2
							c0,0,0.6,0,0.5,0c-4.3,0.6-7,4.6-6.4,8.9c0.5,4,4.1,6.8,8,6.8c0.2,0,0.6,0,0.8,0c2.6,6.7,8.2,11.9,15.1,14.1
							c0.2,2,0.7,9.1-2.9,13.3c-0.6,0.7-0.8,1.5-0.3,2.4c0.4,0.9,1.3,1.2,2.3,1.2h17.6c1,0,1.9-0.3,2.3-1.2c0.4-0.9,0.3-1.8-0.4-2.5
							c-4.2-5-2.9-13.4-2.8-13.6c6.4-2.4,11.5-7.4,14-13.7c0.3,0,0.6,0.1,0.9,0.1c3.9,0,6.9-2.9,7.5-6.8
							C293.2,187.9,289.8,183.9,285.5,183.3z M235.2,191.5c-0.2-1.4-0.7-2.7,1.3-3.2v2.2c0,1.2,0.4,2.3,0.6,3.4
							C236,193.7,235.4,192.8,235.2,191.5z M266.9,225H258c1.8-4,1.8-8.4,1.7-11.1c0.7,0.1,1.5,0.3,2.2,0.3c1.1,0,2.2-0.3,3.2-0.4
							C265,216.3,265,221,266.9,225z M279.5,190.3c0,10.5-8.5,19-19,19c-10.5,0-19-8.4-19-18.8V182h38V190.3z M287.3,191.5
							c-0.2,1.3-1.5,2.3-2.8,2.5c0.2-1.2-0.1-2.4-0.1-3.7v-2C285.5,188.7,287.5,190.1,287.3,191.5z"/>
						<path fill="#121B1C" d="M278.5,238.5c0,1.4-1.1,2.5-2.5,2.5h-30c-1.4,0-2.5-1.1-2.5-2.5v-11c0-1.4,1.1-2.5,2.5-2.5h30
							c1.4,0,2.5,1.1,2.5,2.5V238.5z M248.5,236h25v-6h-25V236z"/>
					</g>
				</g>
				<g clip-path="url(#SVGID_12_)">
					<g>
						<path fill="#121B1C" d="M58.4,67.4c-1.2-0.7-1.6-2.3-0.8-3.4L87,15.2c0.3-0.6,0.9-1,1.5-1.2l0.6-0.1c0.6-0.2,1.3,0,1.8,0.4
							L128.6,37c1.2,0.7,1.6,2.2,0.9,3.3c-0.6,0.9-1.6,1.3-2.6,1.1l-16.6,4l4.5,15.8c0.7,0.8,0.8,2.1,0.2,3
							c-0.7,1.2-2.3,1.6-3.5,0.9L75.7,43.6L61.8,66.5C61.1,67.7,59.5,68.1,58.4,67.4z M78.2,39.3l30.1,18.2l-3.7-13
							c-0.2-0.7-0.1-1.4,0.3-2c0.3-0.6,0.9-0.9,1.5-1.1l14-3.4L90.1,19.6L78.2,39.3z"/>
						<path fill="#121B1C" d="M81.2,66.5L67.3,43.6L31.5,65.3c-1.2,0.7-2.8,0.3-3.5-0.9c-0.6-0.9-0.5-2.2,0.2-3l4.5-15.8l-16.6-4
							c-1,0.2-2-0.2-2.6-1.1c-0.7-1.2-0.3-2.6,0.9-3.3L52,14.3c0.6-0.3,1.2-0.5,1.8-0.4l0.6,0.1c0.6,0.2,1.2,0.6,1.5,1.2l29.5,48.8
							c0.7,1.2,0.3,2.7-0.8,3.4C83.5,68.1,81.9,67.7,81.2,66.5z M52.8,19.6L22.4,38l14,3.4c0.7,0.2,1.2,0.5,1.5,1.1
							c0.3,0.6,0.5,1.3,0.3,2l-3.7,13l30.1-18.2L52.8,19.6z"/>
					</g>
					<g>
						<path fill="#121B1C" d="M95.5,116.6c-0.1,0-1,0-1,0v-3.2c0-1.4,0.3-2.4-1.1-2.4h-43c-1.4,0-3.9,1-3.9,2.4v3.2c0,0,0.6,0,0.5,0
							c-4.3,0.6-7,4.6-6.4,8.9c0.5,4,4.1,6.8,8,6.8c0.2,0,0.6,0,0.8,0c2.6,6.7,8.2,11.9,15.1,14.1c0.2,2,0.7,9.1-2.9,13.3
							c-0.6,0.7-0.8,1.8-0.3,2.7c0.4,0.9,1.3,1.5,2.3,1.5h17.6c1,0,1.9-0.6,2.3-1.5c0.4-0.9,0.3-1.9-0.4-2.7
							c-4.2-5-2.9-13.5-2.8-13.7c6.4-2.4,11.5-7.4,14-13.8c0.3,0,0.6,0.1,0.9,0.1c3.9,0,6.9-2.9,7.5-6.8
							C103.2,121.2,99.8,117.2,95.5,116.6z M45.2,124.9c-0.2-1.4-0.7-2.7,1.3-3.2v2.2c0,1.2,0.4,2.3,0.6,3.4
							C46,127,45.4,126.1,45.2,124.9z M76.9,159H68c1.8-4,1.8-8.7,1.7-11.5c0.7,0.1,1.5,0.1,2.2,0.1c1.1,0,2.2,0,3.2-0.2
							C75,150.1,75,155,76.9,159z M89.5,123.6c0,10.5-8.5,19-19,19s-19-8.4-19-18.8V116h38V123.6z M97.3,124.9
							c-0.2,1.3-1.5,2.3-2.8,2.5c0.2-1.2-0.1-2.4-0.1-3.7v-2C95.5,122,97.5,123.4,97.3,124.9z"/>
						<path fill="#121B1C" d="M88.5,172.5c0,1.4-1.1,2.5-2.5,2.5H56c-1.4,0-2.5-1.1-2.5-2.5v-11c0-1.4,1.1-2.5,2.5-2.5h30
							c1.4,0,2.5,1.1,2.5,2.5V172.5z M58.5,170h25v-6h-25V170z"/>
					</g>
				</g>
				<g clip-path="url(#SVGID_12_)">
					<g>
						<path fill="#121B1C" d="M438.4,0.7c-1.2-0.7-1.6-2.3-0.8-3.4L467-51.5c0.3-0.6,0.9-1,1.5-1.2l0.6-0.1c0.6-0.2,1.3,0,1.8,0.4
							l37.7,22.8c1.2,0.7,1.6,2.2,0.9,3.3c-0.6,0.9-1.6,1.3-2.6,1.1l-16.6,4l4.5,15.8c0.7,0.8,0.8,2.1,0.2,3
							c-0.7,1.2-2.3,1.6-3.5,0.9l-35.9-21.7L441.8-0.1C441.1,1,439.5,1.4,438.4,0.7z M458.2-27.4l30.1,18.2l-3.7-13
							c-0.2-0.7-0.1-1.4,0.3-2c0.3-0.6,0.9-0.9,1.5-1.1l14-3.4L470.1-47L458.2-27.4z"/>
						<path fill="#121B1C" d="M461.2-0.1l-13.9-22.9L411.5-1.4c-1.2,0.7-2.8,0.3-3.5-0.9c-0.6-0.9-0.5-2.2,0.2-3l4.5-15.8l-16.6-4
							c-1,0.2-2-0.2-2.6-1.1c-0.7-1.2-0.3-2.6,0.9-3.3L432-52.4c0.6-0.3,1.2-0.5,1.8-0.4l0.6,0.1c0.6,0.2,1.2,0.6,1.5,1.2l29.5,48.8
							c0.7,1.2,0.3,2.7-0.8,3.4C463.5,1.4,461.9,1,461.2-0.1z M432.8-47l-30.4,18.4l14,3.4c0.7,0.2,1.2,0.5,1.5,1.1
							c0.3,0.6,0.5,1.3,0.3,2l-3.7,13l30.1-18.2L432.8-47z"/>
					</g>
					<g>
						<path fill="#121B1C" d="M475.5,49.9c-0.1,0-1,0-1,0v-3.2c0-1.4,0.3-2.7-1.1-2.7h-43c-1.4,0-3.9,1.4-3.9,2.7v3.2
							c0,0,0.6,0,0.5,0c-4.3,0.6-7,4.6-6.4,8.9c0.5,4,4.1,6.8,8,6.8c0.2,0,0.6,0,0.8,0c2.6,6.7,8.2,11.9,15.1,14.1
							c0.2,2,0.7,9.1-2.9,13.3c-0.6,0.7-0.8,1.7-0.3,2.5c0.4,0.9,1.3,1.3,2.3,1.3h17.6c1,0,1.9-0.4,2.3-1.3c0.4-0.9,0.3-1.9-0.4-2.6
							c-4.2-5-2.9-13.5-2.8-13.7c6.4-2.4,11.5-7.4,14-13.7c0.3,0,0.6,0.1,0.9,0.1c3.9,0,6.9-2.9,7.5-6.8
							C483.2,54.5,479.8,50.5,475.5,49.9z M425.2,58.2c-0.2-1.4-0.7-2.7,1.3-3.2v2.2c0,1.2,0.4,2.3,0.6,3.4
							C426,60.4,425.4,59.4,425.2,58.2z M456.9,92H448c1.8-4,1.8-8.6,1.7-11.3c0.7,0.1,1.5,0.2,2.2,0.2c1.1,0,2.2-0.2,3.2-0.3
							C455,83.2,455,88,456.9,92z M469.5,57c0,10.5-8.5,19-19,19s-19-8.4-19-18.8V49h38V57z M477.3,58.2c-0.2,1.3-1.5,2.3-2.8,2.5
							c0.2-1.2-0.1-2.4-0.1-3.7v-2C475.5,55.4,477.5,56.7,477.3,58.2z"/>
						<path fill="#121B1C" d="M468.5,105.5c0,1.4-1.1,2.5-2.5,2.5h-30c-1.4,0-2.5-1.1-2.5-2.5v-11c0-1.4,1.1-2.5,2.5-2.5h30
							c1.4,0,2.5,1.1,2.5,2.5V105.5z M438.5,103h25v-6h-25V103z"/>
					</g>
				</g>
				<g clip-path="url(#SVGID_12_)">
					<g>
						<path fill="#121B1C" d="M285.5-16.7c-0.1,0-1,0-1,0v-3.2c0-1.4,0.3-3.1-1.1-3.1h-43c-1.4,0-3.9,1.7-3.9,3.1v3.2
							c0,0,0.6,0,0.5,0c-4.3,0.6-7,4.6-6.4,8.9c0.5,4,4.1,6.8,8,6.8c0.2,0,0.6,0,0.8,0c2.6,6.7,8.2,11.9,15.1,14.1
							c0.2,2,0.7,9.1-2.9,13.3c-0.6,0.7-0.8,1.5-0.3,2.4c0.4,0.9,1.3,1.2,2.3,1.2h17.6c1,0,1.9-0.3,2.3-1.2c0.4-0.9,0.3-1.8-0.4-2.5
							c-4.2-5-2.9-13.4-2.8-13.6c6.4-2.4,11.5-7.4,14-13.7c0.3,0,0.6,0.1,0.9,0.1c3.9,0,6.9-2.9,7.5-6.8
							C293.2-12.1,289.8-16.1,285.5-16.7z M235.2-8.5c-0.2-1.4-0.7-2.7,1.3-3.2v2.2c0,1.2,0.4,2.3,0.6,3.4
							C236-6.3,235.4-7.2,235.2-8.5z M266.9,25H258c1.8-4,1.8-8.4,1.7-11.1c0.7,0.1,1.5,0.3,2.2,0.3c1.1,0,2.2-0.3,3.2-0.4
							C265,16.3,265,21,266.9,25z M279.5-9.7c0,10.5-8.5,19-19,19c-10.5,0-19-8.4-19-18.8V-18h38V-9.7z M287.3-8.5
							c-0.2,1.3-1.5,2.3-2.8,2.5c0.2-1.2-0.1-2.4-0.1-3.7v-2C285.5-11.3,287.5-9.9,287.3-8.5z"/>
						<path fill="#121B1C" d="M278.5,38.5c0,1.4-1.1,2.5-2.5,2.5h-30c-1.4,0-2.5-1.1-2.5-2.5v-11c0-1.4,1.1-2.5,2.5-2.5h30
							c1.4,0,2.5,1.1,2.5,2.5V38.5z M248.5,36h25v-6h-25V36z"/>
					</g>
				</g>
				<g clip-path="url(#SVGID_12_)">
					<g>
						<path fill="#121B1C" d="M95.5-83.4c-0.1,0-1,0-1,0v-3.2c0-1.4,0.3-2.4-1.1-2.4h-43c-1.4,0-3.9,1-3.9,2.4v3.2c0,0,0.6,0,0.5,0
							c-4.3,0.6-7,4.6-6.4,8.9c0.5,4,4.1,6.8,8,6.8c0.2,0,0.6,0,0.8,0C52-61,57.6-55.7,64.5-53.5c0.2,2,0.7,9.1-2.9,13.3
							c-0.6,0.7-0.8,1.8-0.3,2.7c0.4,0.9,1.3,1.5,2.3,1.5h17.6c1,0,1.9-0.6,2.3-1.5c0.4-0.9,0.3-1.9-0.4-2.7
							c-4.2-5-2.9-13.5-2.8-13.7c6.4-2.4,11.5-7.4,14-13.8c0.3,0,0.6,0.1,0.9,0.1c3.9,0,6.9-2.9,7.5-6.8
							C103.2-78.8,99.8-82.8,95.5-83.4z M45.2-75.1c-0.2-1.4-0.7-2.7,1.3-3.2v2.2c0,1.2,0.4,2.3,0.6,3.4C46-73,45.4-73.9,45.2-75.1z
							 M76.9-41H68c1.8-4,1.8-8.7,1.7-11.5c0.7,0.1,1.5,0.1,2.2,0.1c1.1,0,2.2,0,3.2-0.2C75-49.9,75-45,76.9-41z M89.5-76.4
							c0,10.5-8.5,19-19,19s-19-8.4-19-18.8V-84h38V-76.4z M97.3-75.1c-0.2,1.3-1.5,2.3-2.8,2.5c0.2-1.2-0.1-2.4-0.1-3.7v-2
							C95.5-78,97.5-76.6,97.3-75.1z"/>
						<path fill="#121B1C" d="M88.5-27.5c0,1.4-1.1,2.5-2.5,2.5H56c-1.4,0-2.5-1.1-2.5-2.5v-11c0-1.4,1.1-2.5,2.5-2.5h30
							c1.4,0,2.5,1.1,2.5,2.5V-27.5z M58.5-30h25v-6h-25V-30z"/>
					</g>
				</g>
			</g>
		</g>
		<g clip-path="url(#SVGID_2_)">
			<g>
				<defs>
					<rect id="SVGID_13_" x="-23.5" y="361" width="570" height="400"/>
				</defs>
				<clipPath id="SVGID_14_">
					<use xlink:href="#SVGID_13_"  overflow="visible"/>
				</clipPath>
				<g clip-path="url(#SVGID_14_)">
					<g>
						<path fill="#121B1C" d="M438.4,800.7c-1.2-0.7-1.6-2.3-0.8-3.4l29.5-48.8c0.3-0.6,0.9-1,1.5-1.2l0.6-0.1
							c0.6-0.2,1.3,0,1.8,0.4l37.7,22.8c1.2,0.7,1.6,2.2,0.9,3.3c-0.6,0.9-1.6,1.3-2.6,1.1l-16.6,4l4.5,15.8c0.7,0.8,0.8,2.1,0.2,3
							c-0.7,1.2-2.3,1.6-3.5,0.9l-35.9-21.7l-13.9,22.9C441.1,801,439.5,801.4,438.4,800.7z M458.2,772.6l30.1,18.2l-3.7-13
							c-0.2-0.7-0.1-1.4,0.3-2c0.3-0.6,0.9-0.9,1.5-1.1l14-3.4L470.1,753L458.2,772.6z"/>
						<path fill="#121B1C" d="M461.2,799.9l-13.9-22.9l-35.9,21.7c-1.2,0.7-2.8,0.3-3.5-0.9c-0.6-0.9-0.5-2.2,0.2-3l4.5-15.8
							l-16.6-4c-1,0.2-2-0.2-2.6-1.1c-0.7-1.2-0.3-2.6,0.9-3.3l37.7-22.8c0.6-0.3,1.2-0.5,1.8-0.4l0.6,0.1c0.6,0.2,1.2,0.6,1.5,1.2
							l29.5,48.8c0.7,1.2,0.3,2.7-0.8,3.4C463.5,801.4,461.9,801,461.2,799.9z M432.8,753l-30.4,18.4l14,3.4
							c0.7,0.2,1.2,0.5,1.5,1.1c0.3,0.6,0.5,1.3,0.3,2l-3.7,13l30.1-18.2L432.8,753z"/>
					</g>
				</g>
				<g clip-path="url(#SVGID_14_)">
					<g>
						<path fill="#121B1C" d="M248.4,734c-1.2-0.7-1.6-2.3-0.8-3.4l29.5-48.8c0.3-0.6,0.9-1,1.5-1.2l0.6-0.1c0.6-0.2,1.3,0,1.8,0.4
							l37.7,22.8c1.2,0.7,1.6,2.2,0.9,3.3c-0.6,0.9-1.6,1.3-2.6,1.1l-16.6,4l4.5,15.8c0.7,0.8,0.8,2.1,0.2,3
							c-0.7,1.2-2.3,1.6-3.5,0.9l-35.9-21.7l-13.9,22.9C251.1,734.4,249.5,734.7,248.4,734z M268.2,706l30.1,18.2l-3.7-13
							c-0.2-0.7-0.1-1.4,0.3-2c0.3-0.6,0.9-0.9,1.5-1.1l14-3.4l-30.4-18.4L268.2,706z"/>
						<path fill="#121B1C" d="M271.2,733.2l-13.9-22.9l-35.9,21.7c-1.2,0.7-2.8,0.3-3.5-0.9c-0.6-0.9-0.5-2.2,0.2-3l4.5-15.8
							l-16.6-4c-1,0.2-2-0.2-2.6-1.1c-0.7-1.2-0.3-2.6,0.9-3.3l37.7-22.8c0.6-0.3,1.2-0.5,1.8-0.4l0.6,0.1c0.6,0.2,1.2,0.6,1.5,1.2
							l29.5,48.8c0.7,1.2,0.3,2.7-0.8,3.4C273.5,734.7,271.9,734.4,271.2,733.2z M242.8,686.3l-30.4,18.4l14,3.4
							c0.7,0.2,1.2,0.5,1.5,1.1c0.3,0.6,0.5,1.3,0.3,2l-3.7,13l30.1-18.2L242.8,686.3z"/>
					</g>
				</g>
				<g clip-path="url(#SVGID_14_)">
					<g>
						<path fill="#121B1C" d="M58.4,667.4c-1.2-0.7-1.6-2.3-0.8-3.4L87,615.2c0.3-0.6,0.9-1,1.5-1.2l0.6-0.1c0.6-0.2,1.3,0,1.8,0.4
							l37.7,22.8c1.2,0.7,1.6,2.2,0.9,3.3c-0.6,0.9-1.6,1.3-2.6,1.1l-16.6,4l4.5,15.8c0.7,0.8,0.8,2.1,0.2,3
							c-0.7,1.2-2.3,1.6-3.5,0.9l-35.9-21.7l-13.9,22.9C61.1,667.7,59.5,668.1,58.4,667.4z M78.2,639.3l30.1,18.2l-3.7-13
							c-0.2-0.7-0.1-1.4,0.3-2c0.3-0.6,0.9-0.9,1.5-1.1l14-3.4l-30.4-18.4L78.2,639.3z"/>
						<path fill="#121B1C" d="M81.2,666.5l-13.9-22.9l-35.9,21.7c-1.2,0.7-2.8,0.3-3.5-0.9c-0.6-0.9-0.5-2.2,0.2-3l4.5-15.8l-16.6-4
							c-1,0.2-2-0.2-2.6-1.1c-0.7-1.2-0.3-2.6,0.9-3.3L52,614.3c0.6-0.3,1.2-0.5,1.8-0.4l0.6,0.1c0.6,0.2,1.2,0.6,1.5,1.2l29.5,48.8
							c0.7,1.2,0.3,2.7-0.8,3.4C83.5,668.1,81.9,667.7,81.2,666.5z M52.8,619.6L22.4,638l14,3.4c0.7,0.2,1.2,0.5,1.5,1.1
							c0.3,0.6,0.5,1.3,0.3,2l-3.7,13l30.1-18.2L52.8,619.6z"/>
					</g>
					<g>
						<path fill="#121B1C" d="M95.5,716.6c-0.1,0-1,0-1,0v-3.2c0-1.4,0.3-2.4-1.1-2.4h-43c-1.4,0-3.9,1-3.9,2.4v3.2c0,0,0.6,0,0.5,0
							c-4.3,0.6-7,4.6-6.4,8.9c0.5,4,4.1,6.8,8,6.8c0.2,0,0.6,0,0.8,0c2.6,6.7,8.2,11.9,15.1,14.1c0.2,2,0.7,9.1-2.9,13.3
							c-0.6,0.7-0.8,1.8-0.3,2.7c0.4,0.9,1.3,1.5,2.3,1.5h17.6c1,0,1.9-0.6,2.3-1.5c0.4-0.9,0.3-1.9-0.4-2.7
							c-4.2-5-2.9-13.5-2.8-13.7c6.4-2.4,11.5-7.4,14-13.8c0.3,0,0.6,0.1,0.9,0.1c3.9,0,6.9-2.9,7.5-6.8
							C103.2,721.2,99.8,717.2,95.5,716.6z M45.2,724.9c-0.2-1.4-0.7-2.7,1.3-3.2v2.2c0,1.2,0.4,2.3,0.6,3.4
							C46,727,45.4,726.1,45.2,724.9z M76.9,759H68c1.8-4,1.8-8.7,1.7-11.5c0.7,0.1,1.5,0.1,2.2,0.1c1.1,0,2.2,0,3.2-0.2
							C75,750.1,75,755,76.9,759z M89.5,723.6c0,10.5-8.5,19-19,19s-19-8.4-19-18.8V716h38V723.6z M97.3,724.9
							c-0.2,1.3-1.5,2.3-2.8,2.5c0.2-1.2-0.1-2.4-0.1-3.7v-2C95.5,722,97.5,723.4,97.3,724.9z"/>
						<path fill="#121B1C" d="M88.5,772.5c0,1.4-1.1,2.5-2.5,2.5H56c-1.4,0-2.5-1.1-2.5-2.5v-11c0-1.4,1.1-2.5,2.5-2.5h30
							c1.4,0,2.5,1.1,2.5,2.5V772.5z M58.5,770h25v-6h-25V770z"/>
					</g>
				</g>
				<g clip-path="url(#SVGID_14_)">
					<g>
						<path fill="#121B1C" d="M438.4,600.7c-1.2-0.7-1.6-2.3-0.8-3.4l29.5-48.8c0.3-0.6,0.9-1,1.5-1.2l0.6-0.1
							c0.6-0.2,1.3,0,1.8,0.4l37.7,22.8c1.2,0.7,1.6,2.2,0.9,3.3c-0.6,0.9-1.6,1.3-2.6,1.1l-16.6,4l4.5,15.8c0.7,0.8,0.8,2.1,0.2,3
							c-0.7,1.2-2.3,1.6-3.5,0.9l-35.9-21.7l-13.9,22.9C441.1,601,439.5,601.4,438.4,600.7z M458.2,572.6l30.1,18.2l-3.7-13
							c-0.2-0.7-0.1-1.4,0.3-2c0.3-0.6,0.9-0.9,1.5-1.1l14-3.4L470.1,553L458.2,572.6z"/>
						<path fill="#121B1C" d="M461.2,599.9l-13.9-22.9l-35.9,21.7c-1.2,0.7-2.8,0.3-3.5-0.9c-0.6-0.9-0.5-2.2,0.2-3l4.5-15.8
							l-16.6-4c-1,0.2-2-0.2-2.6-1.1c-0.7-1.2-0.3-2.6,0.9-3.3l37.7-22.8c0.6-0.3,1.2-0.5,1.8-0.4l0.6,0.1c0.6,0.2,1.2,0.6,1.5,1.2
							l29.5,48.8c0.7,1.2,0.3,2.7-0.8,3.4C463.5,601.4,461.9,601,461.2,599.9z M432.8,553l-30.4,18.4l14,3.4
							c0.7,0.2,1.2,0.5,1.5,1.1c0.3,0.6,0.5,1.3,0.3,2l-3.7,13l30.1-18.2L432.8,553z"/>
					</g>
					<g>
						<path fill="#121B1C" d="M475.5,649.9c-0.1,0-1,0-1,0v-3.2c0-1.4,0.3-2.7-1.1-2.7h-43c-1.4,0-3.9,1.4-3.9,2.7v3.2
							c0,0,0.6,0,0.5,0c-4.3,0.6-7,4.6-6.4,8.9c0.5,4,4.1,6.8,8,6.8c0.2,0,0.6,0,0.8,0c2.6,6.7,8.2,11.9,15.1,14.1
							c0.2,2,0.7,9.1-2.9,13.3c-0.6,0.7-0.8,1.7-0.3,2.5c0.4,0.9,1.3,1.3,2.3,1.3h17.6c1,0,1.9-0.4,2.3-1.3c0.4-0.9,0.3-1.9-0.4-2.6
							c-4.2-5-2.9-13.5-2.8-13.7c6.4-2.4,11.5-7.4,14-13.7c0.3,0,0.6,0.1,0.9,0.1c3.9,0,6.9-2.9,7.5-6.8
							C483.2,654.5,479.8,650.5,475.5,649.9z M425.2,658.2c-0.2-1.4-0.7-2.7,1.3-3.2v2.2c0,1.2,0.4,2.3,0.6,3.4
							C426,660.4,425.4,659.4,425.2,658.2z M456.9,692H448c1.8-4,1.8-8.6,1.7-11.3c0.7,0.1,1.5,0.2,2.2,0.2c1.1,0,2.2-0.2,3.2-0.3
							C455,683.2,455,688,456.9,692z M469.5,657c0,10.5-8.5,19-19,19s-19-8.4-19-18.8V649h38V657z M477.3,658.2
							c-0.2,1.3-1.5,2.3-2.8,2.5c0.2-1.2-0.1-2.4-0.1-3.7v-2C475.5,655.4,477.5,656.7,477.3,658.2z"/>
						<path fill="#121B1C" d="M468.5,705.5c0,1.4-1.1,2.5-2.5,2.5h-30c-1.4,0-2.5-1.1-2.5-2.5v-11c0-1.4,1.1-2.5,2.5-2.5h30
							c1.4,0,2.5,1.1,2.5,2.5V705.5z M438.5,703h25v-6h-25V703z"/>
					</g>
				</g>
				<g clip-path="url(#SVGID_14_)">
					<g>
						<path fill="#121B1C" d="M248.4,534c-1.2-0.7-1.6-2.3-0.8-3.4l29.5-48.8c0.3-0.6,0.9-1,1.5-1.2l0.6-0.1c0.6-0.2,1.3,0,1.8,0.4
							l37.7,22.8c1.2,0.7,1.6,2.2,0.9,3.3c-0.6,0.9-1.6,1.3-2.6,1.1l-16.6,4l4.5,15.8c0.7,0.8,0.8,2.1,0.2,3
							c-0.7,1.2-2.3,1.6-3.5,0.9l-35.9-21.7l-13.9,22.9C251.1,534.4,249.5,534.7,248.4,534z M268.2,506l30.1,18.2l-3.7-13
							c-0.2-0.7-0.1-1.4,0.3-2c0.3-0.6,0.9-0.9,1.5-1.1l14-3.4l-30.4-18.4L268.2,506z"/>
						<path fill="#121B1C" d="M271.2,533.2l-13.9-22.9l-35.9,21.7c-1.2,0.7-2.8,0.3-3.5-0.9c-0.6-0.9-0.5-2.2,0.2-3l4.5-15.8
							l-16.6-4c-1,0.2-2-0.2-2.6-1.1c-0.7-1.2-0.3-2.6,0.9-3.3l37.7-22.8c0.6-0.3,1.2-0.5,1.8-0.4l0.6,0.1c0.6,0.2,1.2,0.6,1.5,1.2
							l29.5,48.8c0.7,1.2,0.3,2.7-0.8,3.4C273.5,534.7,271.9,534.4,271.2,533.2z M242.8,486.3l-30.4,18.4l14,3.4
							c0.7,0.2,1.2,0.5,1.5,1.1c0.3,0.6,0.5,1.3,0.3,2l-3.7,13l30.1-18.2L242.8,486.3z"/>
					</g>
					<g>
						<path fill="#121B1C" d="M285.5,583.3c-0.1,0-1,0-1,0v-3.2c0-1.4,0.3-3.1-1.1-3.1h-43c-1.4,0-3.9,1.7-3.9,3.1v3.2
							c0,0,0.6,0,0.5,0c-4.3,0.6-7,4.6-6.4,8.9c0.5,4,4.1,6.8,8,6.8c0.2,0,0.6,0,0.8,0c2.6,6.7,8.2,11.9,15.1,14.1
							c0.2,2,0.7,9.1-2.9,13.3c-0.6,0.7-0.8,1.5-0.3,2.4c0.4,0.9,1.3,1.2,2.3,1.2h17.6c1,0,1.9-0.3,2.3-1.2c0.4-0.9,0.3-1.8-0.4-2.5
							c-4.2-5-2.9-13.4-2.8-13.6c6.4-2.4,11.5-7.4,14-13.7c0.3,0,0.6,0.1,0.9,0.1c3.9,0,6.9-2.9,7.5-6.8
							C293.2,587.9,289.8,583.9,285.5,583.3z M235.2,591.5c-0.2-1.4-0.7-2.7,1.3-3.2v2.2c0,1.2,0.4,2.3,0.6,3.4
							C236,593.7,235.4,592.8,235.2,591.5z M266.9,625H258c1.8-4,1.8-8.4,1.7-11.1c0.7,0.1,1.5,0.3,2.2,0.3c1.1,0,2.2-0.3,3.2-0.4
							C265,616.3,265,621,266.9,625z M279.5,590.3c0,10.5-8.5,19-19,19c-10.5,0-19-8.4-19-18.8V582h38V590.3z M287.3,591.5
							c-0.2,1.3-1.5,2.3-2.8,2.5c0.2-1.2-0.1-2.4-0.1-3.7v-2C285.5,588.7,287.5,590.1,287.3,591.5z"/>
						<path fill="#121B1C" d="M278.5,638.5c0,1.4-1.1,2.5-2.5,2.5h-30c-1.4,0-2.5-1.1-2.5-2.5v-11c0-1.4,1.1-2.5,2.5-2.5h30
							c1.4,0,2.5,1.1,2.5,2.5V638.5z M248.5,636h25v-6h-25V636z"/>
					</g>
				</g>
				<g clip-path="url(#SVGID_14_)">
					<g>
						<path fill="#121B1C" d="M58.4,467.4c-1.2-0.7-1.6-2.3-0.8-3.4L87,415.2c0.3-0.6,0.9-1,1.5-1.2l0.6-0.1c0.6-0.2,1.3,0,1.8,0.4
							l37.7,22.8c1.2,0.7,1.6,2.2,0.9,3.3c-0.6,0.9-1.6,1.3-2.6,1.1l-16.6,4l4.5,15.8c0.7,0.8,0.8,2.1,0.2,3
							c-0.7,1.2-2.3,1.6-3.5,0.9l-35.9-21.7l-13.9,22.9C61.1,467.7,59.5,468.1,58.4,467.4z M78.2,439.3l30.1,18.2l-3.7-13
							c-0.2-0.7-0.1-1.4,0.3-2c0.3-0.6,0.9-0.9,1.5-1.1l14-3.4l-30.4-18.4L78.2,439.3z"/>
						<path fill="#121B1C" d="M81.2,466.5l-13.9-22.9l-35.9,21.7c-1.2,0.7-2.8,0.3-3.5-0.9c-0.6-0.9-0.5-2.2,0.2-3l4.5-15.8l-16.6-4
							c-1,0.2-2-0.2-2.6-1.1c-0.7-1.2-0.3-2.6,0.9-3.3L52,414.3c0.6-0.3,1.2-0.5,1.8-0.4l0.6,0.1c0.6,0.2,1.2,0.6,1.5,1.2l29.5,48.8
							c0.7,1.2,0.3,2.7-0.8,3.4C83.5,468.1,81.9,467.7,81.2,466.5z M52.8,419.6L22.4,438l14,3.4c0.7,0.2,1.2,0.5,1.5,1.1
							c0.3,0.6,0.5,1.3,0.3,2l-3.7,13l30.1-18.2L52.8,419.6z"/>
					</g>
					<g>
						<path fill="#121B1C" d="M95.5,516.6c-0.1,0-1,0-1,0v-3.2c0-1.4,0.3-2.4-1.1-2.4h-43c-1.4,0-3.9,1-3.9,2.4v3.2c0,0,0.6,0,0.5,0
							c-4.3,0.6-7,4.6-6.4,8.9c0.5,4,4.1,6.8,8,6.8c0.2,0,0.6,0,0.8,0c2.6,6.7,8.2,11.9,15.1,14.1c0.2,2,0.7,9.1-2.9,13.3
							c-0.6,0.7-0.8,1.8-0.3,2.7c0.4,0.9,1.3,1.5,2.3,1.5h17.6c1,0,1.9-0.6,2.3-1.5c0.4-0.9,0.3-1.9-0.4-2.7
							c-4.2-5-2.9-13.5-2.8-13.7c6.4-2.4,11.5-7.4,14-13.8c0.3,0,0.6,0.1,0.9,0.1c3.9,0,6.9-2.9,7.5-6.8
							C103.2,521.2,99.8,517.2,95.5,516.6z M45.2,524.9c-0.2-1.4-0.7-2.7,1.3-3.2v2.2c0,1.2,0.4,2.3,0.6,3.4
							C46,527,45.4,526.1,45.2,524.9z M76.9,559H68c1.8-4,1.8-8.7,1.7-11.5c0.7,0.1,1.5,0.1,2.2,0.1c1.1,0,2.2,0,3.2-0.2
							C75,550.1,75,555,76.9,559z M89.5,523.6c0,10.5-8.5,19-19,19s-19-8.4-19-18.8V516h38V523.6z M97.3,524.9
							c-0.2,1.3-1.5,2.3-2.8,2.5c0.2-1.2-0.1-2.4-0.1-3.7v-2C95.5,522,97.5,523.4,97.3,524.9z"/>
						<path fill="#121B1C" d="M88.5,572.5c0,1.4-1.1,2.5-2.5,2.5H56c-1.4,0-2.5-1.1-2.5-2.5v-11c0-1.4,1.1-2.5,2.5-2.5h30
							c1.4,0,2.5,1.1,2.5,2.5V572.5z M58.5,570h25v-6h-25V570z"/>
					</g>
				</g>
				<g clip-path="url(#SVGID_14_)">
					<g>
						<path fill="#121B1C" d="M438.4,400.7c-1.2-0.7-1.6-2.3-0.8-3.4l29.5-48.8c0.3-0.6,0.9-1,1.5-1.2l0.6-0.1
							c0.6-0.2,1.3,0,1.8,0.4l37.7,22.8c1.2,0.7,1.6,2.2,0.9,3.3c-0.6,0.9-1.6,1.3-2.6,1.1l-16.6,4l4.5,15.8c0.7,0.8,0.8,2.1,0.2,3
							c-0.7,1.2-2.3,1.6-3.5,0.9l-35.9-21.7l-13.9,22.9C441.1,401,439.5,401.4,438.4,400.7z M458.2,372.6l30.1,18.2l-3.7-13
							c-0.2-0.7-0.1-1.4,0.3-2c0.3-0.6,0.9-0.9,1.5-1.1l14-3.4L470.1,353L458.2,372.6z"/>
						<path fill="#121B1C" d="M461.2,399.9l-13.9-22.9l-35.9,21.7c-1.2,0.7-2.8,0.3-3.5-0.9c-0.6-0.9-0.5-2.2,0.2-3l4.5-15.8
							l-16.6-4c-1,0.2-2-0.2-2.6-1.1c-0.7-1.2-0.3-2.6,0.9-3.3l37.7-22.8c0.6-0.3,1.2-0.5,1.8-0.4l0.6,0.1c0.6,0.2,1.2,0.6,1.5,1.2
							l29.5,48.8c0.7,1.2,0.3,2.7-0.8,3.4C463.5,401.4,461.9,401,461.2,399.9z M432.8,353l-30.4,18.4l14,3.4
							c0.7,0.2,1.2,0.5,1.5,1.1c0.3,0.6,0.5,1.3,0.3,2l-3.7,13l30.1-18.2L432.8,353z"/>
					</g>
					<g>
						<path fill="#121B1C" d="M475.5,449.9c-0.1,0-1,0-1,0v-3.2c0-1.4,0.3-2.7-1.1-2.7h-43c-1.4,0-3.9,1.4-3.9,2.7v3.2
							c0,0,0.6,0,0.5,0c-4.3,0.6-7,4.6-6.4,8.9c0.5,4,4.1,6.8,8,6.8c0.2,0,0.6,0,0.8,0c2.6,6.7,8.2,11.9,15.1,14.1
							c0.2,2,0.7,9.1-2.9,13.3c-0.6,0.7-0.8,1.7-0.3,2.5c0.4,0.9,1.3,1.3,2.3,1.3h17.6c1,0,1.9-0.4,2.3-1.3c0.4-0.9,0.3-1.9-0.4-2.6
							c-4.2-5-2.9-13.5-2.8-13.7c6.4-2.4,11.5-7.4,14-13.7c0.3,0,0.6,0.1,0.9,0.1c3.9,0,6.9-2.9,7.5-6.8
							C483.2,454.5,479.8,450.5,475.5,449.9z M425.2,458.2c-0.2-1.4-0.7-2.7,1.3-3.2v2.2c0,1.2,0.4,2.3,0.6,3.4
							C426,460.4,425.4,459.4,425.2,458.2z M456.9,492H448c1.8-4,1.8-8.6,1.7-11.3c0.7,0.1,1.5,0.2,2.2,0.2c1.1,0,2.2-0.2,3.2-0.3
							C455,483.2,455,488,456.9,492z M469.5,457c0,10.5-8.5,19-19,19s-19-8.4-19-18.8V449h38V457z M477.3,458.2
							c-0.2,1.3-1.5,2.3-2.8,2.5c0.2-1.2-0.1-2.4-0.1-3.7v-2C475.5,455.4,477.5,456.7,477.3,458.2z"/>
						<path fill="#121B1C" d="M468.5,505.5c0,1.4-1.1,2.5-2.5,2.5h-30c-1.4,0-2.5-1.1-2.5-2.5v-11c0-1.4,1.1-2.5,2.5-2.5h30
							c1.4,0,2.5,1.1,2.5,2.5V505.5z M438.5,503h25v-6h-25V503z"/>
					</g>
				</g>
				<g clip-path="url(#SVGID_14_)">
					<g>
						<path fill="#121B1C" d="M285.5,383.3c-0.1,0-1,0-1,0v-3.2c0-1.4,0.3-3.1-1.1-3.1h-43c-1.4,0-3.9,1.7-3.9,3.1v3.2
							c0,0,0.6,0,0.5,0c-4.3,0.6-7,4.6-6.4,8.9c0.5,4,4.1,6.8,8,6.8c0.2,0,0.6,0,0.8,0c2.6,6.7,8.2,11.9,15.1,14.1
							c0.2,2,0.7,9.1-2.9,13.3c-0.6,0.7-0.8,1.5-0.3,2.4c0.4,0.9,1.3,1.2,2.3,1.2h17.6c1,0,1.9-0.3,2.3-1.2c0.4-0.9,0.3-1.8-0.4-2.5
							c-4.2-5-2.9-13.4-2.8-13.6c6.4-2.4,11.5-7.4,14-13.7c0.3,0,0.6,0.1,0.9,0.1c3.9,0,6.9-2.9,7.5-6.8
							C293.2,387.9,289.8,383.9,285.5,383.3z M235.2,391.5c-0.2-1.4-0.7-2.7,1.3-3.2v2.2c0,1.2,0.4,2.3,0.6,3.4
							C236,393.7,235.4,392.8,235.2,391.5z M266.9,425H258c1.8-4,1.8-8.4,1.7-11.1c0.7,0.1,1.5,0.3,2.2,0.3c1.1,0,2.2-0.3,3.2-0.4
							C265,416.3,265,421,266.9,425z M279.5,390.3c0,10.5-8.5,19-19,19c-10.5,0-19-8.4-19-18.8V382h38V390.3z M287.3,391.5
							c-0.2,1.3-1.5,2.3-2.8,2.5c0.2-1.2-0.1-2.4-0.1-3.7v-2C285.5,388.7,287.5,390.1,287.3,391.5z"/>
						<path fill="#121B1C" d="M278.5,438.5c0,1.4-1.1,2.5-2.5,2.5h-30c-1.4,0-2.5-1.1-2.5-2.5v-11c0-1.4,1.1-2.5,2.5-2.5h30
							c1.4,0,2.5,1.1,2.5,2.5V438.5z M248.5,436h25v-6h-25V436z"/>
					</g>
				</g>
				<g clip-path="url(#SVGID_14_)">
					<g>
						<path fill="#121B1C" d="M95.5,316.6c-0.1,0-1,0-1,0v-3.2c0-1.4,0.3-2.4-1.1-2.4h-43c-1.4,0-3.9,1-3.9,2.4v3.2c0,0,0.6,0,0.5,0
							c-4.3,0.6-7,4.6-6.4,8.9c0.5,4,4.1,6.8,8,6.8c0.2,0,0.6,0,0.8,0c2.6,6.7,8.2,11.9,15.1,14.1c0.2,2,0.7,9.1-2.9,13.3
							c-0.6,0.7-0.8,1.8-0.3,2.7c0.4,0.9,1.3,1.5,2.3,1.5h17.6c1,0,1.9-0.6,2.3-1.5c0.4-0.9,0.3-1.9-0.4-2.7
							c-4.2-5-2.9-13.5-2.8-13.7c6.4-2.4,11.5-7.4,14-13.8c0.3,0,0.6,0.1,0.9,0.1c3.9,0,6.9-2.9,7.5-6.8
							C103.2,321.2,99.8,317.2,95.5,316.6z M45.2,324.9c-0.2-1.4-0.7-2.7,1.3-3.2v2.2c0,1.2,0.4,2.3,0.6,3.4
							C46,327,45.4,326.1,45.2,324.9z M76.9,359H68c1.8-4,1.8-8.7,1.7-11.5c0.7,0.1,1.5,0.1,2.2,0.1c1.1,0,2.2,0,3.2-0.2
							C75,350.1,75,355,76.9,359z M89.5,323.6c0,10.5-8.5,19-19,19s-19-8.4-19-18.8V316h38V323.6z M97.3,324.9
							c-0.2,1.3-1.5,2.3-2.8,2.5c0.2-1.2-0.1-2.4-0.1-3.7v-2C95.5,322,97.5,323.4,97.3,324.9z"/>
						<path fill="#121B1C" d="M88.5,372.5c0,1.4-1.1,2.5-2.5,2.5H56c-1.4,0-2.5-1.1-2.5-2.5v-11c0-1.4,1.1-2.5,2.5-2.5h30
							c1.4,0,2.5,1.1,2.5,2.5V372.5z M58.5,370h25v-6h-25V370z"/>
					</g>
				</g>
			</g>
		</g>
	</g>
</g>
</svg>
