<?xml version="1.0" encoding="UTF-8" standalone="no"?>
<svg width="1440px" height="69px" viewBox="0 0 1440 69" version="1.1" xmlns="http://www.w3.org/2000/svg" xmlns:xlink="http://www.w3.org/1999/xlink" xmlns:sketch="http://www.bohemiancoding.com/sketch/ns">
    <!-- Generator: Sketch 3.3.2 (12043) - http://www.bohemiancoding.com/sketch -->
    <title>Imported Layers</title>
    <desc>Created with Sketch.</desc>
    <defs>
        <linearGradient x1="60.7235544%" y1="-496.662946%" x2="70.5323439%" y2="249.877232%" id="linearGradient-1">
            <stop stop-color="#113785" offset="0%"></stop>
            <stop stop-color="#3151E0" offset="24.783942%"></stop>
            <stop stop-color="#D983E5" offset="100%"></stop>
        </linearGradient>
    </defs>
    <g id="Page-1" stroke="none" stroke-width="1" fill="none" fill-rule="evenodd" sketch:type="MSPage">
        <g id="Desktop-HD" sketch:type="MSArtboardGroup" transform="translate(0.000000, -1093.000000)" fill="url(#linearGradient-1)">
            <path d="M1436.4802,1116.57049 C1430.62938,1116.57049 1425.64569,1120.32066 1423.74144,1125.55 L1377.69248,1116.13098 C1377.73583,1115.79016 1377.76436,1115.44361 1377.77348,1115.09131 C1377.93436,1109.45574 1373.50403,1104.7382 1367.89966,1104.57639 L1367.60643,1104.57295 C1362.06709,1104.57295 1357.60482,1108.93705 1357.44508,1114.50836 C1357.40401,1115.95197 1357.66871,1117.33246 1358.17187,1118.59361 L1323.87704,1142.6977 C1322.6893,1141.2759 1320.90941,1140.36934 1318.92301,1140.36934 C1317.20473,1140.36934 1315.64618,1141.04984 1314.48583,1142.15262 L1272.80787,1117.99115 L1272.44619,1118.62344 C1272.76908,1117.72262 1272.97103,1116.76328 1273.03036,1115.76262 C1273.36124,1110.13508 1269.07695,1105.28443 1263.48056,1104.94934 C1257.88874,1104.61197 1253.05908,1108.95426 1252.72934,1114.55541 C1252.67343,1115.49525 1252.7533,1116.42131 1252.94498,1117.31869 L1178.4657,1142.99836 C1178.2124,1141.88525 1177.69441,1140.84672 1176.89574,1139.99295 C1175.71143,1138.72607 1174.10725,1137.99967 1172.37984,1137.94574 L1172.17903,1137.94344 C1170.21203,1137.94344 1168.47891,1138.82934 1167.2946,1140.21213 L1131.5633,1113.37689 C1132.60271,1111.51213 1133.22453,1109.37082 1133.29527,1107.07344 C1133.40595,1103.4277 1132.09841,1099.95754 1129.61455,1097.29984 C1127.13069,1094.64328 1123.76487,1093.1182 1120.1412,1093.00574 C1119.99972,1093.0023 1119.85938,1093 1119.71791,1093 C1112.33935,1093 1106.38128,1098.81459 1106.15423,1106.23574 C1106.12114,1107.30525 1106.22497,1108.35639 1106.43148,1109.38 L1041.90133,1129.71672 C1041.65146,1127.67869 1040.80259,1125.76574 1039.41747,1124.19705 C1037.61362,1122.15557 1035.12747,1120.94148 1032.41656,1120.77967 C1028.1859,1120.52492 1024.42075,1122.92328 1022.67623,1126.51393 L990.145309,1112.40721 C990.243431,1108.82918 987.436681,1105.83295 983.87576,1105.72164 L983.674951,1105.71934 C980.157386,1105.71934 977.317548,1108.48951 977.209157,1112.02738 C977.197748,1112.39918 977.225131,1112.76295 977.274192,1113.11869 L931.548124,1128.49344 C931.183018,1125.67164 929.96676,1123.04033 927.991766,1120.92656 C925.506765,1118.27 922.142088,1116.74492 918.517273,1116.63246 C918.375794,1116.62902 918.235457,1116.62672 918.093978,1116.62672 C912.352691,1116.62672 907.486516,1120.15426 905.495549,1125.21148 L859.609747,1114.34082 C859.699883,1113.83705 859.764917,1113.3241 859.779749,1112.79623 C859.940624,1107.16066 855.510294,1102.44311 849.905922,1102.28131 L849.612696,1102.27787 C844.073358,1102.27787 839.611081,1106.64197 839.451348,1112.21328 C839.423965,1113.16574 839.53806,1114.08721 839.757124,1114.96967 L766.106173,1142.93066 C765.377103,1140.14098 762.85445,1138.07426 759.854879,1138.07426 C757.828542,1138.07426 756.018987,1139.01639 754.831252,1140.48754 L718.28417,1114.75852 C719.276801,1112.86279 719.846138,1110.70885 719.846138,1108.4218 C719.846138,1100.89279 713.755718,1094.76721 706.268769,1094.76721 C698.782961,1094.76721 692.692541,1100.89279 692.692541,1108.4218 C692.692541,1109.50164 692.830597,1110.54705 693.067915,1111.55459 L629.182402,1133.87426 C628.440781,1129.10279 624.40294,1125.37557 619.432938,1125.23213 L619.139713,1125.22869 C614.986635,1125.22869 611.438264,1127.68213 609.855759,1131.25787 L576.925505,1118.16902 C576.915236,1114.58984 574.018351,1111.68082 570.456288,1111.68082 C566.88738,1111.68082 563.984789,1114.60016 563.984789,1118.18852 C563.984789,1118.56033 564.023582,1118.92295 564.082912,1119.27754 L518.845172,1136.05689 C517.793211,1129.57328 512.200248,1124.60328 505.460625,1124.60328 C499.609806,1124.60328 494.626113,1128.35344 492.721858,1133.58279 L446.6729,1124.16377 C446.716256,1123.82295 446.74478,1123.47639 446.753908,1123.1241 C446.913641,1117.48738 442.484453,1112.77098 436.88008,1112.60918 L436.585713,1112.60574 C431.047516,1112.60574 426.584099,1116.96984 426.426647,1122.54115 C426.386713,1123.9641 426.640005,1125.34689 427.150013,1126.62869 L392.857458,1150.73049 C391.668583,1149.30869 389.889833,1148.40213 387.90343,1148.40213 C386.186292,1148.40213 384.626606,1149.08262 383.467395,1150.18426 L342.072394,1126.18803 C342.141992,1125.62918 342.189912,1125.06459 342.189912,1124.48738 C342.189912,1116.95836 336.099493,1110.83279 328.612543,1110.83279 C321.126735,1110.83279 315.037457,1116.95836 315.037457,1124.48738 C315.037457,1124.95098 315.061417,1125.40885 315.105914,1125.86098 L258.298887,1144.44197 C257.208134,1139.54082 252.855389,1135.8641 247.658338,1135.8641 C242.563972,1135.8641 238.28653,1139.39967 237.090809,1144.15508 L180.140022,1131.8477 C179.788608,1124.63197 173.857922,1118.86557 166.596882,1118.86557 C159.111074,1118.86557 153.021795,1124.99115 153.021795,1132.52016 C153.021795,1132.98377 153.045755,1133.44164 153.090252,1133.89377 L96.1291966,1152.52525 C95.1799217,1150.11426 92.8443861,1148.40213 90.1140799,1148.40213 C88.0820384,1148.40213 86.2679193,1149.35 85.0813258,1150.82803 L13.5753712,1118.6682 C14.0625591,1117.47361 14.3363884,1116.16885 14.3363884,1114.79984 C14.3363884,1109.16082 9.77484886,1104.57295 4.16819421,1104.57295 C-1.43846045,1104.57295 -6,1109.16082 -6,1114.79984 C-6,1120.44 -1.43846045,1125.02672 4.16819421,1125.02672 C7.59676507,1125.02672 10.6271425,1123.3077 12.4697854,1120.68557 L83.9814448,1152.8477 C83.7658042,1153.49721 83.643722,1154.18803 83.643722,1154.90984 C83.643722,1158.4982 86.5463125,1161.41869 90.1140799,1161.41869 C93.6818473,1161.41869 96.5844377,1158.4982 96.5844377,1154.90984 C96.5844377,1154.86967 96.5798739,1154.83066 96.578733,1154.79164 L153.527238,1136.16361 C155.11773,1141.9277 160.367265,1146.17475 166.596882,1146.17475 C173.524763,1146.17475 179.246654,1140.92705 180.063578,1134.17836 L236.766778,1146.4318 C236.762214,1146.56836 236.74624,1146.70148 236.74624,1146.83918 C236.74624,1152.89131 241.640939,1157.81426 247.658338,1157.81426 C253.674595,1157.81426 258.569294,1152.89131 258.569294,1146.83918 C258.569294,1146.81508 258.565871,1146.79213 258.565871,1146.76803 L315.5429,1128.13082 C317.133392,1133.89492 322.382927,1138.14197 328.612543,1138.14197 C334.693836,1138.14197 339.853236,1134.10148 341.576078,1128.54852 L382.102813,1152.04328 C381.678377,1152.90967 381.433072,1153.87934 381.433072,1154.90984 C381.433072,1158.4982 384.335662,1161.41869 387.90343,1161.41869 C391.471197,1161.41869 394.373788,1158.4982 394.373788,1154.90984 C394.373788,1154.14443 394.235732,1153.41344 393.992709,1152.7318 L428.24533,1128.65754 C428.533991,1129.0741 428.845472,1129.47918 429.199168,1129.85557 C431.063489,1131.84082 433.586142,1132.97689 436.300475,1133.05607 L436.595982,1133.05951 C440.989801,1133.05951 444.696765,1130.3077 446.1241,1126.3923 L492.117152,1135.79984 C491.972251,1136.59852 491.885538,1137.41787 491.885538,1138.25787 C491.885538,1145.78689 497.974817,1151.91246 505.460625,1151.91246 C512.888244,1151.91246 518.933026,1145.88213 519.028866,1138.43459 L564.85762,1121.43721 C565.976897,1123.3823 568.064846,1124.69623 570.456288,1124.69623 C573.225387,1124.69623 575.587164,1122.93475 576.509056,1120.46984 L609.178031,1133.45541 C609.069641,1134.01082 608.995478,1134.57885 608.978364,1135.1641 C608.819771,1140.80197 613.24896,1145.51836 618.853333,1145.67902 L619.14884,1145.68246 C624.51019,1145.68246 628.850384,1141.58918 629.266832,1136.27377 L693.765039,1113.73951 C695.831309,1118.63492 700.657551,1122.07639 706.268769,1122.07639 C710.663729,1122.07639 714.565796,1119.95689 717.048515,1116.68984 L753.63439,1142.44639 L753.875132,1142.10098 C753.560228,1142.86639 753.38338,1143.70295 753.38338,1144.58197 C753.38338,1148.17033 756.28597,1151.09082 759.854879,1151.09082 C763.175059,1151.09082 765.915634,1148.56164 766.280739,1145.31754 L840.545524,1117.12361 C842.180513,1120.35623 845.475592,1122.61803 849.326316,1122.7282 L849.621824,1122.73164 C853.83309,1122.73164 857.416831,1120.20475 858.963966,1116.54639 L904.831513,1127.41246 C904.664933,1128.20656 904.556543,1129.02246 904.530301,1129.86246 C904.30211,1137.38803 910.20199,1143.69951 917.684375,1143.93016 C917.825854,1143.93361 917.966191,1143.9359 918.10767,1143.9359 C925.426898,1143.9359 931.34047,1138.21311 931.657655,1130.87574 L977.982725,1115.30016 C979.042673,1117.27852 981.088406,1118.65787 983.478707,1118.73246 L983.679515,1118.73475 C986.39613,1118.73475 988.691732,1117.07426 989.654699,1114.69197 L1021.91978,1128.68393 C1021.79313,1129.23475 1021.69957,1129.80049 1021.66534,1130.38344 C1021.50447,1133.11115 1022.4081,1135.73672 1024.21195,1137.77934 C1026.01581,1139.82197 1028.50195,1141.03607 1031.214,1141.19672 C1031.41823,1141.20934 1031.62018,1141.21508 1031.82213,1141.21508 C1037.01461,1141.21508 1041.34112,1137.25951 1041.90817,1132.11967 L1107.06129,1111.58557 C1107.68539,1113.20475 1108.61641,1114.70574 1109.83381,1116.00934 C1112.31881,1118.66705 1115.68235,1120.19213 1119.3083,1120.30344 C1119.44978,1120.30689 1119.59012,1120.30918 1119.7316,1120.30918 C1124.00333,1120.30918 1127.79016,1118.35262 1130.27288,1115.27148 L1166.02814,1142.12508 L1166.26432,1141.80836 C1165.93687,1142.55656 1165.74062,1143.38049 1165.71438,1144.25262 C1165.60485,1147.83754 1168.4173,1150.84639 1171.98393,1150.95656 L1172.18474,1150.95885 C1175.47069,1150.95885 1178.13368,1148.53066 1178.56382,1145.32902 L1178.58207,1145.38525 L1253.66949,1119.49557 C1254.08023,1120.37574 1254.61762,1121.20197 1255.27709,1121.95016 C1257.08094,1123.99164 1259.56709,1125.20574 1262.278,1125.36639 C1262.48223,1125.37902 1262.68646,1125.38475 1262.88841,1125.38475 C1266.71289,1125.38475 1270.06388,1123.23541 1271.79585,1120.05213 L1313.12239,1144.00934 C1312.69681,1144.87574 1312.45151,1145.84656 1312.45151,1146.87705 C1312.45151,1150.46541 1315.3541,1153.38475 1318.92301,1153.38475 C1322.49077,1153.38475 1325.39336,1150.46541 1325.39336,1146.87705 C1325.39336,1146.11164 1325.25531,1145.38066 1325.01343,1144.69902 L1359.26947,1120.62246 C1361.0505,1123.19639 1363.97021,1124.92689 1367.32005,1125.02328 L1367.61556,1125.02672 C1372.00938,1125.02672 1375.71634,1122.27607 1377.14368,1118.35951 L1423.13559,1127.76705 C1422.99069,1128.56574 1422.90397,1129.38508 1422.90397,1130.22508 C1422.90397,1137.7541 1428.99439,1143.87967 1436.4802,1143.87967 C1443.96715,1143.87967 1450.05757,1137.7541 1450.05757,1130.22508 C1450.05757,1122.69607 1443.96715,1116.57049 1436.4802,1116.57049 L1436.4802,1116.57049 Z M4.16819421,1122.73164 C-0.179986688,1122.73164 -3.71808927,1119.17426 -3.71808927,1114.79984 C-3.71808927,1110.42656 -0.179986688,1106.86803 4.16819421,1106.86803 C8.5163751,1106.86803 12.0544777,1110.42656 12.0544777,1114.79984 C12.0544777,1119.17426 8.5163751,1122.73164 4.16819421,1122.73164 L4.16819421,1122.73164 Z M90.1140799,1159.12246 C87.8047862,1159.12246 85.9256327,1157.23246 85.9256327,1154.90984 C85.9256327,1152.58607 87.8047862,1150.69721 90.1140799,1150.69721 C92.4233735,1150.69721 94.302527,1152.58607 94.302527,1154.90984 C94.302527,1157.23246 92.4233735,1159.12246 90.1140799,1159.12246 L90.1140799,1159.12246 Z M166.596882,1143.87967 C160.369547,1143.87967 155.302565,1138.78459 155.302565,1132.52016 C155.302565,1126.25689 160.369547,1121.16066 166.596882,1121.16066 C172.825357,1121.16066 177.89234,1126.25689 177.89234,1132.52016 C177.89234,1138.78459 172.825357,1143.87967 166.596882,1143.87967 L166.596882,1143.87967 Z M247.658338,1155.51918 C242.899413,1155.51918 239.028151,1151.62557 239.028151,1146.83918 C239.028151,1142.05393 242.899413,1138.15918 247.658338,1138.15918 C252.416121,1138.15918 256.287383,1142.05393 256.287383,1146.83918 C256.287383,1151.62557 252.416121,1155.51918 247.658338,1155.51918 L247.658338,1155.51918 Z M328.612543,1135.84689 C322.385209,1135.84689 317.319367,1130.7518 317.319367,1124.48738 C317.319367,1118.2241 322.385209,1113.12787 328.612543,1113.12787 C334.841019,1113.12787 339.908002,1118.2241 339.908002,1124.48738 C339.908002,1130.7518 334.841019,1135.84689 328.612543,1135.84689 L328.612543,1135.84689 Z M387.90343,1159.12246 C385.594136,1159.12246 383.714983,1157.23246 383.714983,1154.90984 C383.714983,1152.58607 385.594136,1150.69721 387.90343,1150.69721 C390.212724,1150.69721 392.091877,1152.58607 392.091877,1154.90984 C392.091877,1157.23246 390.212724,1159.12246 387.90343,1159.12246 L387.90343,1159.12246 Z M436.595982,1130.76443 L436.365509,1130.76098 C434.260446,1130.70131 432.303708,1129.81885 430.856977,1128.27885 C429.411386,1126.74 428.646946,1124.72492 428.707417,1122.60656 C428.829499,1118.28492 432.291157,1114.90082 436.585713,1114.90082 L436.813904,1114.90426 C441.160944,1115.02934 444.596361,1118.6877 444.473138,1123.05984 C444.351056,1127.37918 440.890538,1130.76443 436.595982,1130.76443 L436.595982,1130.76443 Z M505.460625,1149.61738 C499.233291,1149.61738 494.167449,1144.5223 494.167449,1138.25787 C494.167449,1131.99459 499.233291,1126.89836 505.460625,1126.89836 C511.6891,1126.89836 516.756083,1131.99459 516.756083,1138.25787 C516.756083,1144.5223 511.6891,1149.61738 505.460625,1149.61738 L505.460625,1149.61738 Z M570.456288,1122.40115 C568.146995,1122.40115 566.2667,1120.51115 566.2667,1118.18852 C566.2667,1115.86475 568.146995,1113.9759 570.456288,1113.9759 C572.766723,1113.9759 574.644735,1115.86475 574.644735,1118.18852 C574.644735,1120.51115 572.766723,1122.40115 570.456288,1122.40115 L570.456288,1122.40115 Z M619.14884,1143.38738 L618.918367,1143.38393 C614.571327,1143.26 611.135911,1139.60164 611.260275,1135.22951 C611.382357,1130.90787 614.844016,1127.52377 619.139713,1127.52377 L619.367904,1127.52721 C623.714944,1127.6523 627.15036,1131.31066 627.024855,1135.68279 C626.903914,1140.00213 623.444537,1143.38738 619.14884,1143.38738 L619.14884,1143.38738 Z M706.268769,1119.78131 C700.040294,1119.78131 694.974452,1114.68623 694.974452,1108.4218 C694.974452,1102.15852 700.040294,1097.0623 706.268769,1097.0623 C712.497244,1097.0623 717.564227,1102.15852 717.564227,1108.4218 C717.564227,1114.68623 712.497244,1119.78131 706.268769,1119.78131 L706.268769,1119.78131 Z M759.854879,1148.79459 C757.545585,1148.79459 755.665291,1146.90459 755.665291,1144.58197 C755.665291,1142.2582 757.545585,1140.36934 759.854879,1140.36934 C762.165313,1140.36934 764.043326,1142.2582 764.043326,1144.58197 C764.043326,1146.90459 762.165313,1148.79459 759.854879,1148.79459 L759.854879,1148.79459 Z M849.621824,1120.43656 L849.391351,1120.43311 C845.044311,1120.30918 841.608894,1116.65082 841.733258,1112.27869 C841.855341,1107.95705 845.316999,1104.57295 849.612696,1104.57295 L849.840887,1104.57639 C854.187927,1104.70148 857.623344,1108.35984 857.497839,1112.73197 C857.376897,1117.05131 853.917521,1120.43656 849.621824,1120.43656 L849.621824,1120.43656 Z M918.10767,1141.64082 L917.753973,1141.63508 C911.530062,1141.44344 906.620531,1136.19344 906.812211,1129.93246 C907.000469,1123.75869 911.955638,1118.9218 918.093978,1118.9218 L918.447674,1118.92754 C921.463219,1119.02049 924.261983,1120.28967 926.328253,1122.49869 C928.395664,1124.70885 929.482995,1127.59721 929.389436,1130.63016 C929.201179,1136.80393 924.246009,1141.64082 918.10767,1141.64082 L918.10767,1141.64082 Z M983.679515,1116.43967 L983.549446,1116.43738 C981.240153,1116.36623 979.420329,1114.41885 979.491068,1112.09738 C979.560666,1109.80803 981.398745,1108.01443 983.674951,1108.01443 L983.806161,1108.01672 C986.114314,1108.08787 987.935279,1110.0341 987.863399,1112.35672 C987.7938,1114.64607 985.955721,1116.43967 983.679515,1116.43967 L983.679515,1116.43967 Z M1039.68787,1131.45639 C1039.43002,1135.80098 1035.67742,1139.14951 1031.34863,1138.90623 C1029.24585,1138.78115 1027.31649,1137.84016 1025.91882,1136.25541 C1024.52001,1134.6718 1023.81832,1132.63377 1023.94269,1130.51885 C1024.18914,1126.33377 1027.64167,1123.05754 1031.80615,1123.05754 C1031.96361,1123.05754 1032.12106,1123.06213 1032.28193,1123.07131 C1034.38357,1123.19639 1036.31293,1124.13738 1037.7106,1125.72098 C1039.10941,1127.30574 1039.8111,1129.34148 1039.68787,1131.45639 L1039.68787,1131.45639 Z M1119.7316,1118.0141 L1119.3779,1118.00836 C1116.36236,1117.91541 1113.56359,1116.64738 1111.49732,1114.43721 C1109.42991,1112.22705 1108.34258,1109.33984 1108.43614,1106.30574 C1108.6244,1100.13197 1113.57957,1095.29508 1119.71791,1095.29508 L1120.0716,1095.30082 C1123.08715,1095.39377 1125.88591,1096.66295 1127.95218,1098.87197 C1130.01959,1101.08213 1131.10692,1103.97049 1131.01336,1107.00344 C1130.82511,1113.17721 1125.86994,1118.0141 1119.7316,1118.0141 L1119.7316,1118.0141 Z M1172.18474,1148.66377 L1172.05353,1148.66148 C1169.74538,1148.59148 1167.92555,1146.64295 1167.99629,1144.32148 C1168.06589,1142.03213 1169.90283,1140.23852 1172.17903,1140.23852 L1172.31024,1140.24082 C1173.42952,1140.27525 1174.46665,1140.74574 1175.23337,1141.56508 C1176.00009,1142.38557 1176.40285,1143.45508 1176.36862,1144.58082 C1176.29902,1146.87016 1174.46094,1148.66377 1172.18474,1148.66377 L1172.18474,1148.66377 Z M1270.75301,1115.62721 C1270.49516,1119.96951 1266.80873,1123.31344 1262.41263,1123.0759 C1260.30985,1122.95082 1258.38163,1122.00984 1256.98282,1120.42623 C1255.58515,1118.84148 1254.88232,1116.80574 1255.00669,1114.69082 C1255.25427,1110.50459 1258.70795,1107.22721 1262.87129,1107.22721 C1263.02989,1107.22721 1263.18734,1107.2318 1263.34479,1107.23984 C1267.68612,1107.49918 1271.00859,1111.26197 1270.75301,1115.62721 L1270.75301,1115.62721 Z M1318.92301,1151.09082 C1316.61371,1151.09082 1314.73342,1149.19967 1314.73342,1146.87705 C1314.73342,1144.55328 1316.61371,1142.66443 1318.92301,1142.66443 C1321.23344,1142.66443 1323.11145,1144.55328 1323.11145,1146.87705 C1323.11145,1149.19967 1321.23344,1151.09082 1318.92301,1151.09082 L1318.92301,1151.09082 Z M1367.61556,1122.73164 L1367.38509,1122.7282 C1363.03805,1122.60426 1359.60377,1118.9459 1359.72699,1114.57377 C1359.84908,1110.25213 1363.31073,1106.86803 1367.60643,1106.86803 L1367.83462,1106.87148 C1372.18166,1106.99656 1375.61708,1110.65492 1375.49157,1115.02705 C1375.37063,1119.34639 1371.91126,1122.73164 1367.61556,1122.73164 L1367.61556,1122.73164 Z M1436.4802,1141.58459 C1430.25173,1141.58459 1425.18588,1136.48951 1425.18588,1130.22508 C1425.18588,1123.9618 1430.25173,1118.86557 1436.4802,1118.86557 C1442.70868,1118.86557 1447.77566,1123.9618 1447.77566,1130.22508 C1447.77566,1136.48951 1442.70868,1141.58459 1436.4802,1141.58459 L1436.4802,1141.58459 Z" id="Imported-Layers" sketch:type="MSShapeGroup"></path>
        </g>
    </g>
</svg>