<?xml version="1.0" encoding="UTF-8" standalone="no"?>
<svg width="1283px" height="61px" viewBox="0 0 1283 61" version="1.1" xmlns="http://www.w3.org/2000/svg" xmlns:xlink="http://www.w3.org/1999/xlink" xmlns:sketch="http://www.bohemiancoding.com/sketch/ns">
    <!-- Generator: Sketch 3.3.2 (12043) - http://www.bohemiancoding.com/sketch -->
    <title>Imported Layers</title>
    <desc>Created with Sketch.</desc>
    <defs>
        <linearGradient x1="56.5963881%" y1="-422.723214%" x2="42.3923881%" y2="477.639806%" id="linearGradient-1">
            <stop stop-color="#113785" offset="0%"></stop>
            <stop stop-color="#3151E0" offset="9.2355269%"></stop>
            <stop stop-color="#D983E5" offset="100%"></stop>
        </linearGradient>
    </defs>
    <g id="Page-1" stroke="none" stroke-width="1" fill="none" fill-rule="evenodd" sketch:type="MSPage">
        <g id="Desktop-HD" sketch:type="MSArtboardGroup" transform="translate(0.000000, -1102.000000)" fill="url(#linearGradient-1)">
            <path d="M1270.64445,1122.87364 C1265.46424,1122.87364 1261.05178,1126.19472 1259.36579,1130.82574 L1218.59492,1122.48442 C1218.6333,1122.18259 1218.65856,1121.87569 1218.66664,1121.5637 C1218.80908,1116.57293 1214.88655,1112.39515 1209.92454,1112.25186 L1209.66493,1112.24881 C1204.7605,1112.24881 1200.80969,1116.11359 1200.66826,1121.04745 C1200.6319,1122.32588 1200.86626,1123.54842 1201.31175,1124.66528 L1170.94775,1146.01147 C1169.89616,1144.75234 1168.32027,1143.94951 1166.56155,1143.94951 C1165.04022,1143.94951 1163.66031,1144.55214 1162.63296,1145.52875 L1125.73209,1124.13175 L1125.41186,1124.6917 C1125.69774,1123.89395 1125.87655,1123.04437 1125.92908,1122.1582 C1126.22203,1117.17455 1122.4288,1112.87889 1117.47387,1112.58214 C1112.52298,1112.28337 1108.24688,1116.12883 1107.95494,1121.08912 C1107.90544,1121.92142 1107.97616,1122.74153 1108.14587,1123.53623 L1042.20333,1146.27772 C1041.97907,1145.29197 1041.52045,1144.37227 1040.81332,1143.61618 C1039.76475,1142.49425 1038.34444,1141.85097 1036.81503,1141.8032 L1036.63724,1141.80117 C1034.89569,1141.80117 1033.36122,1142.58571 1032.31265,1143.81029 L1000.67684,1120.04543 C1001.59712,1118.39404 1002.14767,1116.49773 1002.2103,1114.46321 C1002.30829,1111.2346 1001.15062,1108.16148 998.951457,1105.80786 C996.752294,1103.45526 993.772263,1102.10467 990.563931,1102.00508 C990.438669,1102.00203 990.314417,1102 990.189154,1102 C983.656319,1102 978.381159,1107.14931 978.180133,1113.72135 C978.150838,1114.66849 978.242764,1115.59937 978.425607,1116.50586 L921.29184,1134.51572 C921.070611,1132.71088 920.319037,1131.0168 919.092678,1129.62759 C917.495583,1127.8197 915.294401,1126.74451 912.894213,1126.60122 C909.148465,1126.37561 905.814871,1128.49956 904.270305,1131.67939 L875.46805,1119.18671 C875.554926,1116.01806 873.069883,1113.36465 869.91711,1113.26607 L869.739319,1113.26404 C866.624933,1113.26404 864.110595,1115.71725 864.014628,1118.85033 C864.004526,1119.17959 864.028771,1119.50174 864.072208,1119.81678 L823.58722,1133.43241 C823.263962,1130.93347 822.18711,1128.60322 820.438489,1126.7313 C818.238316,1124.3787 815.259295,1123.02811 812.049953,1122.92852 C811.924691,1122.92547 811.800439,1122.92344 811.675176,1122.92344 C806.59195,1122.92344 802.283532,1126.04737 800.520767,1130.52595 L759.894354,1120.89908 C759.974158,1120.45295 760.031738,1119.99869 760.044871,1119.53121 C760.187306,1114.54044 756.264777,1110.36267 751.302772,1110.21938 L751.043156,1110.21633 C746.138731,1110.21633 742.187917,1114.0811 742.046492,1119.01496 C742.022247,1119.85845 742.123265,1120.67449 742.31722,1121.45598 L677.108074,1146.21777 C676.462569,1143.74728 674.22906,1141.91702 671.573297,1141.91702 C669.779217,1141.91702 668.177071,1142.75136 667.125474,1144.05418 L634.767384,1121.26899 C635.646241,1119.59016 636.150321,1117.68267 636.150321,1115.65729 C636.150321,1108.98972 630.75798,1103.56501 624.129178,1103.56501 C617.501386,1103.56501 612.109045,1108.98972 612.109045,1115.65729 C612.109045,1116.61358 612.231276,1117.53938 612.441394,1118.43164 L555.878379,1138.19757 C555.221762,1133.97203 551.646735,1130.67127 547.24639,1130.54424 L546.986774,1130.5412 C543.309718,1130.5412 540.168058,1132.71392 538.766938,1135.88054 L509.61112,1124.28927 C509.602028,1121.1196 507.037181,1118.54343 503.883399,1118.54343 C500.723555,1118.54343 498.153657,1121.12875 498.153657,1124.30654 C498.153657,1124.63581 498.188003,1124.95694 498.240532,1125.27096 L458.187901,1140.13047 C457.256515,1134.38869 452.304612,1129.98734 446.337478,1129.98734 C441.157275,1129.98734 436.744808,1133.30843 435.058818,1137.93945 L394.287948,1129.59812 C394.326335,1129.2963 394.35159,1128.98939 394.359671,1128.67741 C394.501096,1123.68562 390.579577,1119.50886 385.617572,1119.36557 L385.356946,1119.36252 C380.453532,1119.36252 376.501707,1123.22729 376.362302,1128.16115 C376.326946,1129.4213 376.551206,1130.64587 377.002756,1131.78101 L346.640783,1153.12517 C345.588175,1151.86605 344.013305,1151.06321 342.254581,1151.06321 C340.73426,1151.06321 339.353344,1151.66585 338.327001,1152.64144 L301.676656,1131.39078 C301.738277,1130.89586 301.780705,1130.39587 301.780705,1129.8847 C301.780705,1123.21713 296.388363,1117.79242 289.759561,1117.79242 C283.13177,1117.79242 277.740439,1123.21713 277.740439,1129.8847 C277.740439,1130.29526 277.761652,1130.70075 277.801049,1131.10115 L227.505192,1147.55616 C226.53946,1143.21578 222.685623,1139.95974 218.084252,1139.95974 C213.573798,1139.95974 209.786633,1143.09079 208.727964,1147.3021 L158.304824,1136.40289 C157.993688,1130.01275 152.742772,1124.90613 146.313986,1124.90613 C139.686194,1124.90613 134.294863,1130.33083 134.294863,1136.99841 C134.294863,1137.40897 134.316077,1137.81445 134.355474,1138.21485 L83.923242,1154.71458 C83.0827721,1152.57945 81.0149334,1151.06321 78.5975724,1151.06321 C76.7984417,1151.06321 75.1922553,1151.90263 74.141668,1153.21155 L10.8316601,1124.73133 C11.263007,1123.67342 11.5054503,1122.51795 11.5054503,1121.30558 C11.5054503,1116.31176 7.4667502,1112.24881 2.50272514,1112.24881 C-2.46129992,1112.24881 -6.5,1116.31176 -6.5,1121.30558 C-6.5,1126.30041 -2.46129992,1130.36234 2.50272514,1130.36234 C5.53831637,1130.36234 8.22135474,1128.84 9.85279561,1126.51789 L73.1678543,1155.00014 C72.9769303,1155.57534 72.868841,1156.18711 72.868841,1156.82633 C72.868841,1160.00412 75.4387392,1162.59046 78.5975724,1162.59046 C81.7564056,1162.59046 84.3263038,1160.00412 84.3263038,1156.82633 C84.3263038,1156.79076 84.3222631,1156.75621 84.3212529,1156.72166 L134.742373,1140.22498 C136.150564,1145.32957 140.798403,1149.09069 146.313986,1149.09069 C152.4478,1149.09069 157.513853,1144.44341 158.237142,1138.46688 L208.441073,1149.31832 C208.437032,1149.43926 208.42289,1149.55714 208.42289,1149.67909 C208.42289,1155.03876 212.756562,1159.39844 218.084252,1159.39844 C223.410932,1159.39844 227.744605,1155.03876 227.744605,1149.67909 C227.744605,1149.65775 227.741574,1149.63743 227.741574,1149.61608 L278.187948,1133.11128 C279.596139,1138.21587 284.243978,1141.97698 289.759561,1141.97698 C295.143821,1141.97698 299.711856,1138.39879 301.237228,1133.48119 L337.118825,1154.28775 C336.743038,1155.05502 336.52585,1155.91374 336.52585,1156.82633 C336.52585,1160.00412 339.095748,1162.59046 342.254581,1162.59046 C345.413414,1162.59046 347.983312,1160.00412 347.983312,1156.82633 C347.983312,1156.1485 347.861081,1155.50115 347.645912,1154.8975 L377.972529,1133.57773 C378.228105,1133.94663 378.503884,1134.30536 378.81704,1134.63869 C380.467674,1136.39679 382.701182,1137.40287 385.104401,1137.47299 L385.366038,1137.47604 C389.256241,1137.47604 392.538316,1135.03909 393.802052,1131.57167 L434.523422,1139.90283 C434.395129,1140.61014 434.318356,1141.33573 434.318356,1142.07962 C434.318356,1148.7472 439.709687,1154.1719 446.337478,1154.1719 C452.913751,1154.1719 458.265685,1148.83154 458.35054,1142.23612 L498.926445,1127.18353 C499.917431,1128.90606 501.766061,1130.06966 503.883399,1130.06966 C506.335106,1130.06966 508.426179,1128.50973 509.242404,1126.32683 L538.166891,1137.82664 C538.070924,1138.31851 538.005262,1138.82155 537.99011,1139.33983 C537.849695,1144.33263 541.771214,1148.50939 546.733218,1148.65167 L546.994855,1148.65472 C551.741691,1148.65472 555.584417,1145.02978 555.953132,1140.32254 L613.058614,1120.36657 C614.88805,1124.70186 619.161112,1127.74957 624.129178,1127.74957 C628.020392,1127.74957 631.475208,1125.87257 633.673359,1122.97933 L666.065795,1145.78891 L666.278943,1145.48302 C666.000133,1146.16086 665.843555,1146.9017 665.843555,1147.68014 C665.843555,1150.85793 668.413453,1153.44427 671.573297,1153.44427 C674.512921,1153.44427 676.939374,1151.20447 677.262631,1148.33155 L743.015255,1123.36347 C744.462843,1126.22623 747.380243,1128.22924 750.789601,1128.3268 L751.051237,1128.32985 C754.779812,1128.32985 757.952788,1126.09208 759.322592,1122.8523 L799.932843,1132.47511 C799.785356,1133.17835 799.689389,1133.9009 799.666155,1134.64479 C799.464119,1141.30931 804.68776,1146.89865 811.312522,1147.10291 C811.437784,1147.10596 811.562036,1147.108 811.687298,1147.108 C818.167604,1147.108 823.403367,1142.03999 823.684197,1135.54213 L864.69953,1121.74866 C865.637987,1123.50066 867.44924,1124.72219 869.565568,1124.78824 L869.743359,1124.79027 C872.148598,1124.79027 874.181081,1123.31977 875.033673,1121.21005 L903.600556,1133.6011 C903.488426,1134.0889 903.405591,1134.58991 903.375286,1135.10616 C903.23285,1137.52177 904.032913,1139.84694 905.630008,1141.65585 C907.227103,1143.46476 909.428285,1144.53995 911.829483,1144.68222 C912.010305,1144.6934 912.189107,1144.69848 912.367909,1144.69848 C916.965239,1144.69848 920.795842,1141.19549 921.297901,1136.64374 L978.983226,1118.45908 C979.535795,1119.893 980.360102,1121.22224 981.437964,1122.3767 C983.638136,1124.73032 986.616147,1126.0809 989.8265,1126.17948 C989.951762,1126.18253 990.076014,1126.18456 990.201276,1126.18456 C993.983391,1126.18456 997.336179,1124.45187 999.53433,1121.72325 L1031.19135,1145.50436 L1031.40046,1145.22388 C1031.11054,1145.88647 1030.93679,1146.61613 1030.91356,1147.38848 C1030.81658,1150.56322 1033.30667,1153.22781 1036.46449,1153.32537 L1036.64229,1153.3274 C1039.55161,1153.3274 1041.90937,1151.17703 1042.2902,1148.34171 L1042.30637,1148.39151 L1108.78733,1125.46404 C1109.15099,1126.2435 1109.62679,1126.9752 1110.21067,1127.63779 C1111.80777,1129.44569 1114.00895,1130.52087 1116.40914,1130.66314 C1116.58996,1130.67432 1116.77078,1130.6794 1116.94958,1130.6794 C1120.33571,1130.6794 1123.30261,1128.77598 1124.83606,1125.95692 L1161.42579,1147.17303 C1161.049,1147.9403 1160.83181,1148.80004 1160.83181,1149.71263 C1160.83181,1152.89042 1163.40171,1155.47574 1166.56155,1155.47574 C1169.72038,1155.47574 1172.29028,1152.89042 1172.29028,1149.71263 C1172.29028,1149.03479 1172.16805,1148.38745 1171.95389,1147.7838 L1202.28354,1126.46199 C1203.86043,1128.74143 1206.44548,1130.27392 1209.41137,1130.35929 L1209.67301,1130.36234 C1213.56321,1130.36234 1216.84529,1127.9264 1218.10902,1124.45796 L1258.82938,1132.78913 C1258.70109,1133.49643 1258.62431,1134.22203 1258.62431,1134.96592 C1258.62431,1141.63349 1264.01666,1147.0582 1270.64445,1147.0582 C1277.27325,1147.0582 1282.66559,1141.63349 1282.66559,1134.96592 C1282.66559,1128.29835 1277.27325,1122.87364 1270.64445,1122.87364 L1270.64445,1122.87364 Z M2.50272514,1128.32985 C-1.34707126,1128.32985 -4.47963978,1125.1795 -4.47963978,1121.30558 C-4.47963978,1117.43267 -1.34707126,1114.2813 2.50272514,1114.2813 C6.35252153,1114.2813 9.48509005,1117.43267 9.48509005,1121.30558 C9.48509005,1125.1795 6.35252153,1128.32985 2.50272514,1128.32985 L2.50272514,1128.32985 Z M78.5975724,1160.55696 C76.5529679,1160.55696 74.8892013,1158.88321 74.8892013,1156.82633 C74.8892013,1154.76844 76.5529679,1153.0957 78.5975724,1153.0957 C80.642177,1153.0957 82.3059436,1154.76844 82.3059436,1156.82633 C82.3059436,1158.88321 80.642177,1160.55696 78.5975724,1160.55696 L78.5975724,1160.55696 Z M146.313986,1147.0582 C140.800423,1147.0582 136.314213,1142.54608 136.314213,1136.99841 C136.314213,1131.45175 140.800423,1126.93861 146.313986,1126.93861 C151.828559,1126.93861 156.314769,1131.45175 156.314769,1136.99841 C156.314769,1142.54608 151.828559,1147.0582 146.313986,1147.0582 L146.313986,1147.0582 Z M218.084252,1157.36596 C213.870791,1157.36596 210.44325,1153.91784 210.44325,1149.67909 C210.44325,1145.44136 213.870791,1141.99223 218.084252,1141.99223 C222.296703,1141.99223 225.724244,1145.44136 225.724244,1149.67909 C225.724244,1153.91784 222.296703,1157.36596 218.084252,1157.36596 L218.084252,1157.36596 Z M289.759561,1139.9445 C284.245998,1139.9445 279.760799,1135.43237 279.760799,1129.8847 C279.760799,1124.33805 284.245998,1119.82491 289.759561,1119.82491 C295.274135,1119.82491 299.760345,1124.33805 299.760345,1129.8847 C299.760345,1135.43237 295.274135,1139.9445 289.759561,1139.9445 L289.759561,1139.9445 Z M342.254581,1160.55696 C340.209977,1160.55696 338.54621,1158.88321 338.54621,1156.82633 C338.54621,1154.76844 340.209977,1153.0957 342.254581,1153.0957 C344.299186,1153.0957 345.962952,1154.76844 345.962952,1156.82633 C345.962952,1158.88321 344.299186,1160.55696 342.254581,1160.55696 L342.254581,1160.55696 Z M385.366038,1135.44355 L385.161981,1135.4405 C383.298199,1135.38766 381.56574,1134.60617 380.284832,1133.24237 C379.004933,1131.87959 378.328113,1130.09506 378.381652,1128.21908 C378.489742,1124.39191 381.554628,1121.39501 385.356946,1121.39501 L385.558982,1121.39805 C389.407768,1121.50882 392.449421,1124.74861 392.340321,1128.6205 C392.232232,1132.44564 389.168356,1135.44355 385.366038,1135.44355 L385.366038,1135.44355 Z M446.337478,1152.13942 C440.823915,1152.13942 436.338716,1147.6273 436.338716,1142.07962 C436.338716,1136.53297 440.823915,1132.01983 446.337478,1132.01983 C451.852052,1132.01983 456.338262,1136.53297 456.338262,1142.07962 C456.338262,1147.6273 451.852052,1152.13942 446.337478,1152.13942 L446.337478,1152.13942 Z M503.883399,1128.03717 C501.838794,1128.03717 500.174017,1126.36342 500.174017,1124.30654 C500.174017,1122.24865 501.838794,1120.57591 503.883399,1120.57591 C505.929013,1120.57591 507.59177,1122.24865 507.59177,1124.30654 C507.59177,1126.36342 505.929013,1128.03717 503.883399,1128.03717 L503.883399,1128.03717 Z M546.994855,1146.62223 L546.790799,1146.61918 C542.942013,1146.50943 539.90036,1143.26964 540.01047,1139.39776 C540.118559,1135.57058 543.183446,1132.57368 546.986774,1132.57368 L547.18881,1132.57673 C551.037596,1132.6875 554.079248,1135.92729 553.968128,1139.79917 C553.861049,1143.62431 550.798183,1146.62223 546.994855,1146.62223 L546.994855,1146.62223 Z M624.129178,1125.71709 C618.614605,1125.71709 614.129405,1121.20497 614.129405,1115.65729 C614.129405,1110.11064 618.614605,1105.5975 624.129178,1105.5975 C629.643751,1105.5975 634.129961,1110.11064 634.129961,1115.65729 C634.129961,1121.20497 629.643751,1125.71709 624.129178,1125.71709 L624.129178,1125.71709 Z M671.573297,1151.41077 C669.528692,1151.41077 667.863915,1149.73702 667.863915,1147.68014 C667.863915,1145.62225 669.528692,1143.94951 671.573297,1143.94951 C673.618912,1143.94951 675.281668,1145.62225 675.281668,1147.68014 C675.281668,1149.73702 673.618912,1151.41077 671.573297,1151.41077 L671.573297,1151.41077 Z M751.051237,1126.29736 L750.847181,1126.29431 C746.998395,1126.18456 743.956742,1122.94478 744.066852,1119.07289 C744.174941,1115.24572 747.239828,1112.24881 751.043156,1112.24881 L751.245192,1112.25186 C755.093978,1112.36263 758.13563,1115.60242 758.024511,1119.47431 C757.917431,1123.29945 754.854565,1126.29736 751.051237,1126.29736 L751.051237,1126.29736 Z M811.687298,1145.07551 L811.374143,1145.07043 C805.86361,1144.90071 801.516805,1140.2514 801.686515,1134.70678 C801.853195,1129.23939 806.240407,1124.95592 811.675176,1124.95592 L811.988332,1124.961 C814.658238,1125.04332 817.13621,1126.16728 818.965646,1128.12355 C820.796092,1130.08084 821.758794,1132.63872 821.675959,1135.32465 C821.50928,1140.79204 817.122067,1145.07551 811.687298,1145.07551 L811.687298,1145.07551 Z M869.743359,1122.75779 L869.628199,1122.75575 C867.583594,1122.69275 865.972357,1120.96818 866.034988,1118.91232 C866.096609,1116.88492 867.724009,1115.29653 869.739319,1115.29653 L869.855489,1115.29856 C871.899084,1115.36157 873.511331,1117.08512 873.44769,1119.14199 C873.386069,1121.1694 871.758669,1122.75779 869.743359,1122.75779 L869.743359,1122.75779 Z M919.332091,1136.05635 C919.10379,1139.90385 915.781308,1142.86924 911.948684,1142.6538 C910.086922,1142.54303 908.378708,1141.70971 907.141237,1140.30628 C905.902756,1138.90386 905.281496,1137.09901 905.391605,1135.22608 C905.609804,1131.51984 908.666609,1128.61846 912.353767,1128.61846 C912.493171,1128.61846 912.632576,1128.62253 912.775012,1128.63066 C914.635764,1128.74143 916.343978,1129.57475 917.581449,1130.97716 C918.81993,1132.3806 919.44119,1134.18341 919.332091,1136.05635 L919.332091,1136.05635 Z M990.201276,1124.15207 L989.888121,1124.14699 C987.218215,1124.06468 984.740243,1122.94173 982.910807,1120.98444 C981.08036,1119.02716 980.117659,1116.47029 980.200493,1113.78334 C980.367173,1108.31595 984.754385,1104.03249 990.189154,1104.03249 L990.50231,1104.03757 C993.172216,1104.11988 995.650188,1105.24385 997.479624,1107.20012 C999.31007,1109.1574 1000.27277,1111.71529 1000.18994,1114.40122 C1000.02326,1119.86861 995.636045,1124.15207 990.201276,1124.15207 L990.201276,1124.15207 Z M1036.64229,1151.29492 L1036.52612,1151.29289 C1034.48252,1151.23089 1032.87128,1149.50531 1032.93392,1147.44945 C1032.99554,1145.42205 1034.62193,1143.83366 1036.63724,1143.83366 L1036.75341,1143.83569 C1037.74439,1143.86618 1038.66265,1144.28284 1039.34149,1145.00844 C1040.02033,1145.73505 1040.37692,1146.68219 1040.34662,1147.67912 C1040.285,1149.70653 1038.6576,1151.29492 1036.64229,1151.29492 L1036.64229,1151.29492 Z M1123.91276,1122.03829 C1123.68446,1125.88375 1120.42056,1128.84509 1116.52834,1128.63472 C1114.66658,1128.52395 1112.95937,1127.69063 1111.72089,1126.28822 C1110.48342,1124.88478 1109.86115,1123.08197 1109.97126,1121.20903 C1110.19047,1117.50178 1113.24829,1114.59939 1116.93443,1114.59939 C1117.07485,1114.59939 1117.21425,1114.60345 1117.35366,1114.61056 C1121.19739,1114.84024 1124.13904,1118.1725 1123.91276,1122.03829 L1123.91276,1122.03829 Z M1166.56155,1153.44427 C1164.51695,1153.44427 1162.85217,1151.7695 1162.85217,1149.71263 C1162.85217,1147.65473 1164.51695,1145.982 1166.56155,1145.982 C1168.60717,1145.982 1170.26992,1147.65473 1170.26992,1149.71263 C1170.26992,1151.7695 1168.60717,1153.44427 1166.56155,1153.44427 L1166.56155,1153.44427 Z M1209.67301,1128.32985 L1209.46895,1128.3268 C1205.62016,1128.21705 1202.57952,1124.97726 1202.68862,1121.10538 C1202.79671,1117.2782 1205.8616,1114.2813 1209.66493,1114.2813 L1209.86696,1114.28435 C1213.71575,1114.39512 1216.7574,1117.6349 1216.64628,1121.50679 C1216.5392,1125.33193 1213.47634,1128.32985 1209.67301,1128.32985 L1209.67301,1128.32985 Z M1270.64445,1145.02571 C1265.12987,1145.02571 1260.64468,1140.51359 1260.64468,1134.96592 C1260.64468,1129.41926 1265.12987,1124.90613 1270.64445,1124.90613 C1276.15902,1124.90613 1280.64523,1129.41926 1280.64523,1134.96592 C1280.64523,1140.51359 1276.15902,1145.02571 1270.64445,1145.02571 L1270.64445,1145.02571 Z" id="Imported-Layers" sketch:type="MSShapeGroup"></path>
        </g>
    </g>
</svg>