<?xml version="1.0" encoding="UTF-8" standalone="no"?>
<svg width="177px" height="31px" viewBox="0 0 177 31" version="1.1" xmlns="http://www.w3.org/2000/svg" xmlns:xlink="http://www.w3.org/1999/xlink" xmlns:sketch="http://www.bohemiancoding.com/sketch/ns">
    <!-- Generator: Sketch 3.2.2 (9983) - http://www.bohemiancoding.com/sketch -->
    <title>Imported Layers</title>
    <desc>Created with Sketch.</desc>
    <defs></defs>
    <g id="Welcome" stroke="none" stroke-width="1" fill="none" fill-rule="evenodd" sketch:type="MSPage">
        <g id="Landing" sketch:type="MSArtboardGroup" transform="translate(-136.000000, -45.000000)">
            <g id="Imported-Layers" sketch:type="MSLayerGroup" transform="translate(136.000000, 45.000000)">
                <path d="M6.98580702,3.13290323 C4.93840351,3.13290323 3.47375439,4.84232258 3.47375439,7.16593548 C3.47375439,9.56283871 4.90321053,11.1989677 6.93405263,11.1989677 C7.58926316,11.1989677 8.07057895,11.0874839 8.69163158,10.6219355 C9.18950877,10.2503226 9.4482807,10.1945806 9.72361404,10.1945806 C10.4295439,10.1945806 11.0319649,10.752 11.0319649,11.6263226 C11.0319649,12.0165161 10.8777368,12.4996129 10.3612281,12.9465806 C9.68842105,13.5411613 8.32935088,14.116129 6.83157895,14.116129 C3.07835088,14.116129 0.27222807,11.291871 0.27222807,7.16593548 C0.27222807,2.94606452 3.16529825,0.251870968 6.88229825,0.251870968 C8.17408772,0.251870968 9.55178947,0.679225806 10.2049298,1.18090323 C10.8249474,1.664 10.9118947,2.14812903 10.9118947,2.53729032 C10.9118947,3.35483871 10.3260351,3.968 9.56835088,3.968 C9.29301754,3.968 9.0352807,3.89470968 8.56949123,3.57780645 C8.17408772,3.31767742 7.65757895,3.13290323 6.98580702,3.13290323" id="Fill-1" fill="#FFCE00" sketch:type="MSShapeGroup"></path>
                <path d="M21.1758246,11.1803871 L15.9258596,11.1803871 L15.3224035,12.7597419 C14.9445965,13.7455484 14.3421754,13.9489032 13.876386,13.9489032 C13.1187018,13.9489032 12.4469298,13.3914839 12.4469298,12.4252903 C12.4469298,12.1837419 12.4821228,11.9236129 12.637386,11.5334194 L16.6659474,1.97987097 C17.216614,0.660645161 18.0250175,0.419096774 18.6108772,0.419096774 C19.2143333,0.419096774 19.9709825,0.603870968 20.5392456,1.97987097 L24.532614,11.4962581 C24.6702807,11.8492903 24.7054737,12.1651613 24.7054737,12.3509677 C24.7054737,13.3739355 23.9995439,13.9489032 23.2418596,13.9489032 C22.7595088,13.9489032 22.1405263,13.7630968 21.7606491,12.7411613 L21.1758246,11.1803871 L21.1758246,11.1803871 Z M16.8884912,8.63380645 L20.2111228,8.63380645 L18.5591228,4.26529032 L16.8884912,8.63380645 L16.8884912,8.63380645 Z" id="Fill-2" fill="#FFCE00" sketch:type="MSShapeGroup"></path>
                <path d="M30.4471053,8.54090323 L29.3975263,8.54090323 L29.3975263,12.2023226 C29.3975263,13.6887742 28.4162632,13.9489032 27.9515088,13.9489032 C27.4867544,13.9489032 26.5044561,13.6887742 26.5044561,12.2023226 L26.5044561,2.42580645 C26.5044561,1.18090323 27.0385614,0.603870968 28.1916491,0.603870968 L31.1540702,0.603870968 C34.5450175,0.603870968 35.8181754,2.40722581 35.8181754,4.58219355 C35.8181754,6.34735484 34.8721053,7.59329032 33.3401754,8.11354839 L35.5956316,11.3661935 C35.8699298,11.7749677 35.9734386,12.1465806 35.9734386,12.4624516 C35.9734386,13.3181935 35.3534211,13.9489032 34.5450175,13.9489032 C34.1661754,13.9489032 33.6838246,13.7816774 33.2884211,13.1313548 L30.4471053,8.54090323 L30.4471053,8.54090323 Z M30.9470526,3.17006452 L29.3799298,3.17006452 L29.3799298,6.23587097 L30.774193,6.23587097 C31.7223333,6.23587097 32.9095789,5.97677419 32.9095789,4.63793548 C32.9095789,3.41058065 31.824807,3.17006452 30.9470526,3.17006452 L30.9470526,3.17006452 Z" id="Fill-3" fill="#FFCE00" sketch:type="MSShapeGroup"></path>
                <path d="M42.3371579,8.54090323 L41.288614,8.54090323 L41.288614,12.2023226 C41.288614,13.6887742 40.3063158,13.9489032 39.8415614,13.9489032 C39.376807,13.9489032 38.3955439,13.6887742 38.3955439,12.2023226 L38.3955439,2.42580645 C38.3955439,1.18090323 38.928614,0.603870968 40.0827368,0.603870968 L43.0441228,0.603870968 C46.4350702,0.603870968 47.7092632,2.40722581 47.7092632,4.58219355 C47.7092632,6.34735484 46.7621579,7.59329032 45.2302281,8.11354839 L47.4856842,11.3661935 C47.7610175,11.7749677 47.8634912,12.1465806 47.8634912,12.4624516 C47.8634912,13.3181935 47.2445088,13.9489032 46.4350702,13.9489032 C46.0562281,13.9489032 45.5738772,13.7816774 45.1795088,13.1313548 L42.3371579,8.54090323 L42.3371579,8.54090323 Z M42.8371053,3.17006452 L41.2710175,3.17006452 L41.2710175,6.23587097 L42.6652807,6.23587097 C43.612386,6.23587097 44.7996316,5.97677419 44.7996316,4.63793548 C44.7996316,3.41058065 43.7148596,3.17006452 42.8371053,3.17006452 L42.8371053,3.17006452 Z" id="Fill-4" fill="#FFCE00" sketch:type="MSShapeGroup"></path>
                <path d="M56.9660526,5.77135484 C58.1719298,5.77135484 58.327193,6.64464516 58.327193,7.03587097 C58.327193,7.4436129 58.1719298,8.31793548 56.9660526,8.31793548 L53.0927544,8.31793548 L53.0927544,11.0503226 L57.5353509,11.0503226 C58.740193,11.0503226 58.929614,11.9607742 58.929614,12.4067097 C58.929614,12.8536774 58.740193,13.7630968 57.5353509,13.7630968 L51.9396667,13.7630968 C50.7865789,13.7630968 50.2524737,13.1870968 50.2524737,11.9421935 L50.2524737,2.42580645 C50.2524737,1.18090323 50.7865789,0.603870968 51.9396667,0.603870968 L57.2248246,0.603870968 C58.4296667,0.603870968 58.6190877,1.51535484 58.6190877,1.94270968 C58.6190877,2.38864516 58.4296667,3.30012903 57.2248246,3.30012903 L53.0927544,3.30012903 L53.0927544,5.77135484 L56.9660526,5.77135484" id="Fill-5" fill="#FFCE00" sketch:type="MSShapeGroup"></path>
                <path d="M65.1401404,8.54090323 L64.0905614,8.54090323 L64.0905614,12.2023226 C64.0905614,13.6887742 63.1092982,13.9489032 62.6445439,13.9489032 C62.1787544,13.9489032 61.1974912,13.6887742 61.1974912,12.2023226 L61.1974912,2.42580645 C61.1974912,1.18090323 61.7315965,0.603870968 62.8846842,0.603870968 L65.8460702,0.603870968 C69.2380526,0.603870968 70.5112105,2.40722581 70.5112105,4.58219355 C70.5112105,6.34735484 69.5641053,7.59329032 68.0332105,8.11354839 L70.2876316,11.3661935 C70.5629649,11.7749677 70.6664737,12.1465806 70.6664737,12.4624516 C70.6664737,13.3181935 70.0464561,13.9489032 69.2380526,13.9489032 C68.8581754,13.9489032 68.3768596,13.7816774 67.9814561,13.1313548 L65.1401404,8.54090323 L65.1401404,8.54090323 Z M65.6390526,3.17006452 L64.0729649,3.17006452 L64.0729649,6.23587097 L65.4672281,6.23587097 C66.4143333,6.23587097 67.602614,5.97677419 67.602614,4.63793548 C67.602614,3.41058065 66.5178421,3.17006452 65.6390526,3.17006452 L65.6390526,3.17006452 Z" id="Fill-6" fill="#FFCE00" sketch:type="MSShapeGroup"></path>
                <path d="M80.8952105,11.1803871 L75.6452456,11.1803871 L75.0417895,12.7597419 C74.6639825,13.7455484 74.0615614,13.9489032 73.596807,13.9489032 C72.8380877,13.9489032 72.1673509,13.3914839 72.1673509,12.4252903 C72.1673509,12.1837419 72.2015088,11.9236129 72.3567719,11.5334194 L76.3853333,1.97987097 C76.936,0.660645161 77.7444035,0.419096774 78.3302632,0.419096774 C78.9337193,0.419096774 79.6903684,0.603870968 80.2586316,1.97987097 L84.2530351,11.4962581 C84.3896667,11.8492903 84.4248596,12.1651613 84.4248596,12.3509677 C84.4248596,13.3739355 83.7189298,13.9489032 82.9612456,13.9489032 C82.4799298,13.9489032 81.8599123,13.7630968 81.4810702,12.7411613 L80.8952105,11.1803871 L80.8952105,11.1803871 Z M76.6089123,8.63380645 L79.9315439,8.63380645 L78.2785088,4.26529032 L76.6089123,8.63380645 L76.6089123,8.63380645 Z" id="Fill-7" fill="#FFCE00" sketch:type="MSShapeGroup"></path>
                <path d="M6.90092982,31.0110968 C3.09594737,31.0110968 0.27222807,28.1868387 0.27222807,24.0227097 C0.27222807,19.803871 3.09594737,17.1458065 6.90092982,17.1458065 C10.7214386,17.1458065 13.5451579,19.803871 13.5451579,24.0227097 C13.5451579,28.1868387 10.7214386,31.0110968 6.90092982,31.0110968 L6.90092982,31.0110968 Z M6.90092982,20.0082581 C4.83385965,20.0082581 3.42303509,21.7187097 3.42303509,24.0227097 C3.42303509,26.4020645 4.85145614,28.1114839 6.90092982,28.1114839 C8.94936842,28.1114839 10.395386,26.4020645 10.395386,24.0227097 C10.395386,21.7187097 8.96592982,20.0082581 6.90092982,20.0082581 L6.90092982,20.0082581 Z" id="Fill-8" fill="#213235" sketch:type="MSShapeGroup"></path>
                <path d="M15.9424211,19.3207742 C15.9424211,18.075871 16.4765263,17.499871 17.629614,17.499871 L20.4181404,17.499871 C23.0865965,17.499871 25.1867895,18.5393548 25.1867895,21.5504516 C25.1867895,24.5997419 22.8971754,25.696 20.3498246,25.696 L18.8862105,25.696 L18.8862105,29.060129 C18.8862105,30.5837419 17.8873509,30.843871 17.4225965,30.843871 C16.9402456,30.843871 15.9424211,30.5837419 15.9424211,29.060129 L15.9424211,19.3207742 L15.9424211,19.3207742 Z M20.1769649,20.064 L18.8862105,20.064 L18.8862105,23.168 L20.1252105,23.168 C21.2275789,23.168 22.243,22.8149677 22.243,21.5700645 C22.243,20.3055484 21.2275789,20.064 20.1769649,20.064 L20.1769649,20.064 Z" id="Fill-9" fill="#213235" sketch:type="MSShapeGroup"></path>
                <path d="M33.8722105,22.6663226 C35.0770526,22.6663226 35.2323158,23.5396129 35.2323158,23.9298065 C35.2323158,24.3396129 35.0770526,25.2129032 33.8722105,25.2129032 L29.9989123,25.2129032 L29.9989123,27.9442581 L34.4404737,27.9442581 C35.6453158,27.9442581 35.8347368,28.8557419 35.8347368,29.3016774 C35.8347368,29.7476129 35.6453158,30.6580645 34.4404737,30.6580645 L28.8458246,30.6580645 C27.6917018,30.6580645 27.1586316,30.0820645 27.1586316,28.836129 L27.1586316,19.3207742 C27.1586316,18.075871 27.6917018,17.499871 28.8458246,17.499871 L34.1309825,17.499871 C35.3358246,17.499871 35.5252456,18.4092903 35.5252456,18.8376774 C35.5252456,19.2836129 35.3358246,20.1940645 34.1309825,20.1940645 L29.9989123,20.1940645 L29.9989123,22.6663226 L33.8722105,22.6663226" id="Fill-10" fill="#213235" sketch:type="MSShapeGroup"></path>
                <path d="M40.9439298,22.3504516 L40.8921754,22.3504516 L40.9439298,29.1344516 C40.9615263,30.6023226 39.9968246,30.843871 39.5155088,30.843871 C39.0507544,30.843871 38.1036491,30.6023226 38.1036491,29.1344516 L38.1036491,19.488 C38.1036491,17.6299355 39.3260877,17.3130323 39.8591579,17.3130323 C40.4967719,17.3130323 41.099193,17.5917419 41.7192105,18.5579355 L46.350193,25.7889032 L46.4019474,25.7889032 L46.350193,19.0234839 C46.3325965,17.5545806 47.2962632,17.3130323 47.7620526,17.3130323 C48.2433684,17.3130323 49.1904737,17.5545806 49.1904737,19.0234839 L49.1904737,28.6689032 C49.1904737,30.528 47.9680351,30.843871 47.4339298,30.843871 C46.7973509,30.843871 46.1949298,30.5651613 45.5749123,29.5989677 L40.9439298,22.3504516" id="Fill-11" fill="#213235" sketch:type="MSShapeGroup"></path>
                <path d="M53.8959825,30.6580645 C52.7428947,30.6580645 52.2087895,30.0820645 52.2087895,28.836129 L52.2087895,19.3207742 C52.2087895,18.075871 52.7428947,17.499871 53.8959825,17.499871 L56.616193,17.499871 C60.0764912,17.499871 63.5885439,19.0606452 63.5885439,24.0412903 C63.5885439,28.6689032 60.1106491,30.6580645 56.7538596,30.6580645 L53.8959825,30.6580645 L53.8959825,30.6580645 Z M56.5468421,20.2126452 L55.0832281,20.2126452 L55.0832281,27.908129 L56.4785263,27.908129 C58.5787193,27.908129 60.5236491,26.9780645 60.5236491,24.0412903 C60.5236491,21.0859355 58.5787193,20.2126452 56.5468421,20.2126452 L56.5468421,20.2126452 Z" id="Fill-12" fill="#213235" sketch:type="MSShapeGroup"></path>
                <path d="M73.2096842,28.0743226 L67.9586842,28.0743226 L67.3562632,29.6547097 C66.9774211,30.6394839 66.375,30.843871 65.9102456,30.843871 C65.1525614,30.843871 64.4807895,30.2864516 64.4807895,29.3202581 C64.4807895,29.0787097 64.5159825,28.8175484 64.6712456,28.4283871 L68.699807,18.8748387 C69.2504737,17.5545806 70.0599123,17.3130323 70.6447368,17.3130323 C71.2471579,17.3130323 72.0048421,17.499871 72.5731053,18.8748387 L76.5664737,28.3901935 C76.7051754,28.7442581 76.7393333,29.060129 76.7393333,29.2449032 C76.7393333,30.267871 76.0334035,30.843871 75.2757193,30.843871 C74.7933684,30.843871 74.174386,30.6580645 73.7955439,29.636129 L73.2096842,28.0743226 L73.2096842,28.0743226 Z M68.923386,25.5287742 L72.2460175,25.5287742 L70.5929825,21.1612903 L68.923386,25.5287742 L68.923386,25.5287742 Z" id="Fill-13" fill="#213235" sketch:type="MSShapeGroup"></path>
                <path d="M77.5187544,20.2126452 C76.3128772,20.2126452 76.1244912,19.3021935 76.1244912,18.8562581 C76.1244912,18.4092903 76.3128772,17.499871 77.5187544,17.499871 L84.9041053,17.499871 C86.1089474,17.499871 86.2983684,18.4092903 86.2983684,18.8562581 C86.2983684,19.3021935 86.1089474,20.2126452 84.9041053,20.2126452 L82.682807,20.2126452 L82.682807,29.060129 C82.682807,30.5837419 81.6849825,30.843871 81.219193,30.843871 C80.7378772,30.843871 79.7390175,30.5837419 79.7390175,29.060129 L79.7390175,20.2126452 L77.5187544,20.2126452" id="Fill-14" fill="#213235" sketch:type="MSShapeGroup"></path>
                <path d="M94.3855088,28.0743226 L89.1345088,28.0743226 L88.5320877,29.6547097 C88.1542807,30.6394839 87.5508246,30.843871 87.0860702,30.843871 C86.328386,30.843871 85.656614,30.2864516 85.656614,29.3202581 C85.656614,29.0787097 85.691807,28.8175484 85.8470702,28.4283871 L89.8756316,18.8748387 C90.4262982,17.5545806 91.2357368,17.3130323 91.8205614,17.3130323 C92.4229825,17.3130323 93.1806667,17.499871 93.7489298,18.8748387 L97.7422982,28.3901935 C97.881,28.7442581 97.9151579,29.060129 97.9151579,29.2449032 C97.9151579,30.267871 97.2092281,30.843871 96.4515439,30.843871 C95.969193,30.843871 95.3502105,30.6580645 94.9713684,29.636129 L94.3855088,28.0743226 L94.3855088,28.0743226 Z M90.0992105,25.5287742 L93.4218421,25.5287742 L91.768807,21.1612903 L90.0992105,25.5287742 L90.0992105,25.5287742 Z" id="Fill-15" fill="#213235" sketch:type="MSShapeGroup"></path>
                <path d="M109.890088,19.1535484 C110.560825,17.4812903 111.336105,17.3130323 111.886772,17.3130323 C112.472632,17.3130323 113.643316,17.6299355 113.643316,19.4508387 L113.643316,29.115871 C113.643316,30.6023226 112.678614,30.843871 112.21386,30.843871 C111.749105,30.843871 110.767842,30.6023226 110.785439,29.115871 L110.837193,23.0565161 L110.785439,23.0565161 L108.219456,29.376 C107.703982,30.6766452 107.118123,30.843871 106.584018,30.843871 C106.050947,30.843871 105.447491,30.6580645 104.949614,29.376 L102.48714,23.0565161 L102.435386,23.0565161 L102.470579,29.1716129 C102.470579,30.6023226 101.540035,30.843871 101.092877,30.843871 C100.644684,30.843871 99.7151754,30.6023226 99.7151754,29.1716129 L99.7151754,19.4508387 C99.7151754,17.6299355 100.921053,17.3130323 101.505877,17.3130323 C102.056544,17.3130323 102.848386,17.4812903 103.520158,19.1535484 L106.670965,27.0895484 L106.739281,27.0895484 L109.890088,19.1535484" id="Fill-16" fill="#213235" sketch:type="MSShapeGroup"></path>
                <path d="M123.670211,18.1316129 C124.151526,17.4245161 124.582123,17.3130323 124.943368,17.3130323 C125.666895,17.3130323 126.303474,17.9086452 126.303474,18.7819355 C126.303474,19.0792258 126.217561,19.4322581 125.872877,19.9153548 L123.084351,23.7068387 L126.406982,28.0557419 C126.785825,28.5574194 126.888298,28.9300645 126.888298,29.2645161 C126.888298,30.1749677 126.269316,30.843871 125.408123,30.843871 C125.030316,30.843871 124.599719,30.7323871 124.048018,29.952 L121.155982,25.956129 L118.453368,29.9891613 C117.971018,30.7138065 117.52386,30.843871 117.145018,30.843871 C116.335579,30.843871 115.699,30.1935484 115.699,29.3202581 C115.699,29.0043871 115.767316,28.6503226 116.180316,28.0743226 L119.382877,23.6882581 L116.594351,20.0454194 C116.180316,19.5065806 116.112,19.1349677 116.112,18.8005161 C116.112,17.9633548 116.749614,17.3130323 117.540421,17.3130323 C117.93686,17.3130323 118.384018,17.4812903 118.832211,18.1316129 L121.259491,21.5700645 L123.670211,18.1316129" id="Fill-17" fill="#213235" sketch:type="MSShapeGroup"></path>
                <path d="M130.834053,30.843871 C129.887982,30.843871 129.078544,30.0634839 129.078544,29.0415484 C129.078544,28.0381935 129.870386,27.2010323 130.834053,27.2010323 C131.764596,27.2010323 132.556439,28 132.556439,29.0229677 C132.556439,30.0449032 131.764596,30.843871 130.834053,30.843871" id="Fill-18" fill="#213235" sketch:type="MSShapeGroup"></path>
                <path d="M136.860333,30.6580645 C135.242491,30.6580645 135.018912,29.6732903 135.018912,29.1716129 C135.018912,28.6503226 135.138982,28.1300645 136.000175,27.2753548 L139.942825,23.4095484 C140.545246,22.8149677 140.940649,22.1832258 140.940649,21.3832258 C140.940649,20.4541935 140.338228,19.803871 139.426316,19.803871 C138.736947,19.803871 138.238035,20.1940645 137.927509,20.7886452 C137.652175,21.3285161 137.17086,21.8105806 136.567404,21.8105806 C135.793158,21.8105806 135.259053,21.179871 135.259053,20.3984516 C135.259053,20.0825806 135.380158,19.7109677 135.500228,19.488 C136.29207,18.0387097 137.807439,17.1458065 139.580544,17.1458065 C141.818404,17.1458065 143.987947,18.427871 143.987947,21.179871 C143.987947,23.0565161 142.972526,24.1527742 141.852561,25.2314839 L139.029877,27.9442581 L142.783105,27.9442581 C143.987947,27.9442581 144.177368,28.8557419 144.177368,29.3016774 C144.177368,29.7476129 143.987947,30.6580645 142.783105,30.6580645 L136.860333,30.6580645" id="Fill-19" fill="#213235" sketch:type="MSShapeGroup"></path>
                <path d="M150.92614,31.0110968 C147.465842,31.0110968 146.139895,27.7770323 146.139895,24.0412903 C146.139895,20.324129 147.465842,17.1458065 150.92614,17.1458065 C154.368842,17.1458065 155.677193,20.324129 155.677193,24.0412903 C155.677193,27.7770323 154.368842,31.0110968 150.92614,31.0110968 L150.92614,31.0110968 Z M150.92614,19.7852903 C149.394211,19.7852903 149.101281,22.3876129 149.101281,24.0412903 C149.101281,25.7331613 149.394211,28.3354839 150.92614,28.3354839 C152.440474,28.3354839 152.716842,25.7331613 152.716842,24.0412903 C152.716842,22.3876129 152.440474,19.7852903 150.92614,19.7852903 L150.92614,19.7852903 Z" id="Fill-20" fill="#213235" sketch:type="MSShapeGroup"></path>
                <path d="M160.967526,17.8704516 C161.518193,17.4430968 161.947754,17.3130323 162.293474,17.3130323 C162.912456,17.3130323 164.08314,17.5917419 164.08314,19.5065806 L164.08314,29.0972903 C164.08314,30.6023226 163.101877,30.843871 162.637123,30.843871 C162.172368,30.843871 161.191105,30.6023226 161.191105,29.0972903 L161.191105,20.9930323 L159.882754,22.0903226 C159.573263,22.3504516 159.246175,22.4433548 158.987404,22.4433548 C158.29907,22.4433548 157.764965,21.8673548 157.764965,21.0859355 C157.764965,20.6771613 157.937825,20.2683871 158.470895,19.8410323 L160.967526,17.8704516" id="Fill-21" fill="#213235" sketch:type="MSShapeGroup"></path>
                <path d="M168.44086,19.172129 C168.475018,18.0387097 168.957368,17.499871 170.006947,17.499871 L174.759035,17.499871 C175.946281,17.499871 176.153298,18.3917419 176.153298,18.8376774 C176.153298,19.2836129 175.946281,20.1754839 174.759035,20.1754839 L171.074123,20.1754839 L170.970614,22.2575484 C171.33186,22.1646452 171.831807,22.1264516 172.193053,22.1264516 C174.63793,22.1264516 176.600456,23.5396129 176.600456,26.3091613 C176.600456,29.5060645 174.293246,31.0110968 171.900123,31.0110968 C170.419947,31.0110968 169.077439,30.4165161 168.285596,29.5246452 C168.010263,29.2087742 167.803246,28.7628387 167.803246,28.3354839 C167.803246,27.5354839 168.389105,26.9409032 169.145754,26.9409032 C169.490439,26.9409032 169.783368,27.0338065 170.317474,27.6469677 C170.695281,28.0743226 171.229386,28.3716129 171.865965,28.3716129 C172.847228,28.3716129 173.690825,27.7212903 173.690825,26.4578065 C173.690825,24.8970323 172.382474,24.4500645 171.195228,24.4500645 C170.678719,24.4500645 170.299877,24.5058065 170.006947,24.5615484 C169.749211,24.6183226 169.559789,24.6544516 169.352772,24.6544516 C169.042246,24.6544516 168.233842,24.5243871 168.285596,23.2980645 L168.44086,19.172129" id="Fill-22" fill="#213235" sketch:type="MSShapeGroup"></path>
            </g>
        </g>
    </g>
</svg>