<?xml version="1.0" encoding="UTF-8" standalone="no"?>
<svg width="196px" height="32px" viewBox="0 0 196 32" version="1.1" xmlns="http://www.w3.org/2000/svg" xmlns:xlink="http://www.w3.org/1999/xlink" xmlns:sketch="http://www.bohemiancoding.com/sketch/ns">
    <!-- Generator: Sketch 3.2.2 (9983) - http://www.bohemiancoding.com/sketch -->
    <title>Imported Layers</title>
    <desc>Created with Sketch.</desc>
    <defs></defs>
    <g id="Welcome" stroke="none" stroke-width="1" fill="none" fill-rule="evenodd" sketch:type="MSPage">
        <g id="Landing" sketch:type="MSArtboardGroup" transform="translate(-136.000000, -1284.000000)" fill="#FFFFFF">
            <g id="Imported-Layers" sketch:type="MSLayerGroup" transform="translate(136.000000, 1284.000000)">
                <path d="M16.0333902,0.0549618321 C7.21043915,0.0549618321 0.0582835634,7.15896183 0.0582835634,15.9228092 C0.0582835634,24.6866565 7.21043915,31.7906565 16.0333902,31.7906565 C24.8560954,31.7906565 32.0087428,24.6866565 32.0087428,15.9228092 C32.0087428,7.15896183 24.8560954,0.0549618321 16.0333902,0.0549618321 L16.0333902,0.0549618321 Z M14.2206976,23.3526718 L8.32077792,17.324458 L14.390138,11.4638168 L16.207995,13.3200611 L12.0071518,17.376 L16.090936,21.5477252 L14.2206976,23.3526718 L14.2206976,23.3526718 Z M17.326941,20.3822901 L15.5095759,18.5243359 L19.7101731,14.469374 L15.6268808,10.2966718 L17.4968733,8.49196947 L23.3972848,14.5214046 L17.326941,20.3822901 L17.326941,20.3822901 Z" id="Fill-1" sketch:type="MSShapeGroup"></path>
                <path d="M47.1437792,24.3886412 C45.506675,24.7203664 44.1078695,24.8859847 42.9481004,24.8859847 C41.7875935,24.8859847 40.8538269,24.7633588 40.1468005,24.5188397 C39.4392823,24.2745649 38.8630866,23.9308702 38.4182133,23.4887328 C37.97334,23.047084 37.6233927,22.4705954 37.3693551,21.76 C36.8925119,20.4658321 36.6542133,18.7053435 36.6542133,16.4792672 C36.6542133,12.9118779 37.2262284,10.5512061 38.3707503,9.39896183 C39.3082058,8.43627481 40.7384893,7.95432061 42.6618469,7.95432061 C43.9809737,7.95432061 45.4749511,8.12018321 47.1437792,8.45166412 L47.0724617,9.73044275 C45.4191267,9.43047328 44.0923764,9.28024427 43.0909812,9.28024427 C42.0895859,9.28024427 41.314931,9.38699237 40.7665245,9.60024427 C40.2181179,9.81325191 39.7732447,10.0973435 39.4314128,10.4525191 C39.0895809,10.8076947 38.8313626,11.3016183 38.6567578,11.9328244 C38.3387804,13.0061679 38.1799147,14.3479695 38.1799147,15.958229 C38.1799147,17.5687328 38.2352472,18.7727634 38.3466499,19.5698321 C38.4578068,20.3669008 38.6724969,21.0892214 38.9904743,21.7365496 C39.3082058,22.3838779 39.7771794,22.8494656 40.3971493,23.1338015 C41.0168733,23.4178931 41.8751418,23.5598168 42.9719548,23.5598168 C44.068522,23.5598168 45.4351117,23.4098321 47.0724617,23.1101069 L47.1437792,24.3886412" id="Fill-2" sketch:type="MSShapeGroup"></path>
                <path d="M48.0615609,18.7053435 C48.0615609,16.4792672 48.4388055,14.9007634 49.1940326,13.9693435 C49.948522,13.0379237 51.2361706,12.5718473 53.055995,12.5718473 C54.8758193,12.5718473 56.1629762,13.0379237 56.9182033,13.9693435 C57.6729385,14.9007634 58.050675,16.4792672 58.050675,18.7053435 C58.050675,20.9314198 57.7049084,22.5177405 57.0136211,23.4650382 C56.3220878,24.4123359 55.0068959,24.8859847 53.0680452,24.8859847 C51.1287026,24.8859847 49.8098218,24.4123359 49.1104191,23.4650382 C48.4110163,22.5177405 48.0615609,20.9314198 48.0615609,18.7053435 L48.0615609,18.7053435 Z M49.5395533,18.6696794 C49.5395533,20.5405802 49.7579322,21.8352366 50.1951819,22.5534046 C50.6321857,23.2720611 51.585872,23.631145 53.055995,23.631145 C54.5261179,23.631145 55.483739,23.2679084 55.9288582,22.5416794 C56.3737315,21.8156947 56.596537,20.5249466 56.596537,18.6696794 C56.596537,16.8149008 56.3461882,15.5439389 55.8452447,14.8572824 C55.344793,14.1703817 54.4186499,13.8271756 53.0680452,13.8271756 C51.7169486,13.8271756 50.7912974,14.1667176 50.2905997,14.845313 C49.7899021,15.5243969 49.5395533,16.7987786 49.5395533,18.6696794 L49.5395533,18.6696794 Z" id="Fill-3" sketch:type="MSShapeGroup"></path>
                <path d="M68.8478896,7.55175573 L68.8478896,24.6492824 L67.4173601,24.6492824 L67.4173601,23.7730687 C66.1616813,24.5154198 64.8902635,24.8859847 63.6031066,24.8859847 C63.0148607,24.8859847 62.5062936,24.8188092 62.0771593,24.6847023 C61.6480251,24.5505954 61.2105295,24.2860458 60.7659021,23.8912977 C59.8599247,23.0864122 59.406936,21.5115725 59.406936,19.1670229 C59.406936,16.8229618 59.7883614,15.1377099 60.551458,14.1112672 C61.3143087,13.0850687 62.6017114,12.5718473 64.4134203,12.5718473 C65.1128231,12.5718473 66.1139724,12.6749313 67.4173601,12.8798779 L67.4173601,7.55175573 L68.8478896,7.55175573 L68.8478896,7.55175573 Z M62.7089335,23.4413435 C63.0028105,23.552 63.3842359,23.6072061 63.8532095,23.6072061 C64.3219373,23.6072061 64.8624743,23.5207328 65.4745747,23.3465649 C66.0861832,23.173374 66.5669611,23.0075115 66.9166625,22.8494656 L67.4173601,22.5888244 L67.4173601,14.1112672 C66.1456964,13.9217099 65.160532,13.8271756 64.4613752,13.8271756 C63.1100326,13.8271756 62.176266,14.2378015 61.6598294,15.0585649 C61.1431468,15.8795725 60.8851744,17.1505344 60.8851744,18.8712061 C60.8851744,20.8920916 61.1950364,22.2099542 61.8150063,22.8260153 C62.1167528,23.1259847 62.4145646,23.3311756 62.7089335,23.4413435 L62.7089335,23.4413435 Z" id="Fill-4" sketch:type="MSShapeGroup"></path>
                <path d="M79.0253802,23.4650382 L79.740522,23.3941985 L79.7879849,24.5545038 C77.9920151,24.7753282 76.4741832,24.8859847 75.2344893,24.8859847 C73.5181982,24.8701069 72.3178519,24.3649466 71.6346801,23.3702595 C70.9512622,22.3758168 70.6096763,20.8447023 70.6096763,18.7764275 C70.6096763,14.6403664 72.2462886,12.5718473 75.5207428,12.5718473 C77.0941531,12.5718473 78.2701531,13.0181374 79.0492346,13.9099847 C79.8275784,14.8020763 80.2171192,16.2271756 80.2171192,18.1843053 L80.1696562,19.3211603 L72.0638143,19.3211603 C72.0638143,20.773374 72.3141631,21.8513588 72.8148607,22.5534046 C73.3155583,23.2564275 74.1735809,23.6072061 75.3896662,23.6072061 C76.6055056,23.6072061 77.8171644,23.5598168 79.0253802,23.4650382 L79.0253802,23.4650382 Z M72.0638143,18.1371603 L78.7868356,18.1371603 C78.7868356,16.5740458 78.5281255,15.4611298 78.0119348,14.7979237 C77.4954981,14.1349618 76.6687077,13.8032366 75.5325471,13.8032366 C74.3961405,13.8032366 73.5339373,14.1469313 72.9459373,14.8335878 C72.3576913,15.5202443 72.0638143,16.6211908 72.0638143,18.1371603 L72.0638143,18.1371603 Z" id="Fill-5" sketch:type="MSShapeGroup"></path>
                <path d="M90.1823789,16.3373435 L90.1823789,22.6838473 C90.2458269,23.2679084 90.7622635,23.6152672 91.7321807,23.7254351 L91.6606173,24.8625344 C90.4364166,24.8625344 89.5385546,24.5469313 88.9665395,23.9152366 C87.4723162,24.5625649 85.9783388,24.8859847 84.4846073,24.8859847 C83.4195182,24.8859847 82.6089586,24.5821069 82.0526826,23.9743511 C81.4964065,23.3665954 81.2185144,22.4981985 81.2185144,21.3694046 C81.2185144,20.240855 81.5003413,19.4042137 82.0647327,18.8594809 C82.6286324,18.3145038 83.514936,17.9793588 84.7229059,17.8525802 L88.7757039,17.4502595 L88.7757039,16.3373435 C88.7757039,15.453313 88.5811794,14.8179542 88.1916386,14.4310229 C87.8020979,14.0443359 87.2817265,13.8508702 86.6302785,13.8508702 C85.6128984,13.8508702 84.2937716,13.9454046 82.6726524,14.1349618 L81.9336562,14.2060458 L81.8618469,13.0694351 C83.6103538,12.7379542 85.13999,12.5718473 86.4514931,12.5718473 C87.7625044,12.5718473 88.71201,12.8798779 89.3005019,13.4954504 C89.888256,14.1112672 90.1823789,15.0585649 90.1823789,16.3373435 L90.1823789,16.3373435 Z M82.6965069,21.2863511 C82.6965069,22.8812214 83.3558243,23.6782901 84.675197,23.6782901 C85.247458,23.6782901 85.8750514,23.6113588 86.5587152,23.4767634 C87.2416412,23.343145 87.7824241,23.2046412 88.1798344,23.0627176 L88.7757039,22.8494656 L88.7757039,18.5631756 L84.8898871,18.9657405 C84.1108055,19.0292519 83.5505947,19.2498321 83.2090088,19.6289466 C82.8671769,20.0078168 82.6965069,20.5606107 82.6965069,21.2863511 L82.6965069,21.2863511 Z" id="Fill-6" sketch:type="MSShapeGroup"></path>
                <path d="M94.313872,24.6492824 L92.907197,24.6492824 L92.907197,12.8087939 L94.313872,12.8087939 L94.313872,13.6850076 C95.6489837,12.943145 96.9445019,12.5718473 98.1994429,12.5718473 C99.7888381,12.5718473 100.849501,12.9905344 101.382414,13.8271756 C101.914836,14.6640611 102.181415,16.1951756 102.181415,18.4210076 L102.181415,24.6492824 L100.75064,24.6492824 L100.75064,18.4923359 C100.75064,16.6768855 100.575789,15.4491603 100.226088,14.8098931 C99.8763864,14.1703817 99.1292748,13.8508702 97.9852447,13.8508702 C97.4284768,13.8508702 96.8446575,13.9334351 96.2330489,14.099542 C95.6207026,14.2651603 95.1482861,14.4351756 94.8145696,14.6083664 L94.313872,14.845313 L94.313872,24.6492824" id="Fill-7" sketch:type="MSShapeGroup"></path>
                <path d="M113.297591,7.55175573 L113.297591,24.6492824 L111.867307,24.6492824 L111.867307,23.7730687 C110.611383,24.5154198 109.339965,24.8859847 108.052808,24.8859847 C107.464562,24.8859847 106.955995,24.8188092 106.526861,24.6847023 C106.097972,24.5505954 105.660477,24.2860458 105.215604,23.8912977 C104.309872,23.0864122 103.856637,21.5115725 103.856637,19.1670229 C103.856637,16.8229618 104.238309,15.1377099 105.001159,14.1112672 C105.763764,13.0850687 107.051413,12.5718473 108.863368,12.5718473 C109.562524,12.5718473 110.563674,12.6749313 111.867307,12.8798779 L111.867307,7.55175573 L113.297591,7.55175573 L113.297591,7.55175573 Z M107.158389,23.4413435 C107.452512,23.552 107.833691,23.6072061 108.303403,23.6072061 C108.771639,23.6072061 109.31193,23.5207328 109.92403,23.3465649 C110.535885,23.173374 111.016908,23.0075115 111.366364,22.8494656 L111.867307,22.5888244 L111.867307,14.1112672 C110.595644,13.9217099 109.610233,13.8271756 108.910831,13.8271756 C107.559734,13.8271756 106.626213,14.2378015 106.109777,15.0585649 C105.593094,15.8795725 105.334876,17.1505344 105.334876,18.8712061 C105.334876,20.8920916 105.644738,22.2099542 106.264708,22.8260153 C106.566208,23.1259847 106.864266,23.3311756 107.158389,23.4413435 L107.158389,23.4413435 Z" id="Fill-8" sketch:type="MSShapeGroup"></path>
                <path d="M115.099955,18.7053435 C115.099955,16.4792672 115.477199,14.9007634 116.232673,13.9693435 C116.987162,13.0379237 118.274319,12.5718473 120.094881,12.5718473 C121.914213,12.5718473 123.202108,13.0379237 123.956597,13.9693435 C124.711332,14.9007634 125.088823,16.4792672 125.088823,18.7053435 C125.088823,20.9314198 124.743548,22.5177405 124.052261,23.4650382 C123.360728,24.4123359 122.04529,24.8859847 120.106685,24.8859847 C118.167343,24.8859847 116.848216,24.4123359 116.149059,23.4650382 C115.449164,22.5177405 115.099955,20.9314198 115.099955,18.7053435 L115.099955,18.7053435 Z M116.578193,18.6696794 C116.578193,20.5405802 116.796326,21.8352366 117.233822,22.5534046 C117.67058,23.2720611 118.624266,23.631145 120.094881,23.631145 C121.564512,23.631145 122.522133,23.2679084 122.967252,22.5416794 C123.41188,21.8156947 123.634931,20.5249466 123.634931,18.6696794 C123.634931,16.8149008 123.384828,15.5439389 122.883639,14.8572824 C122.382941,14.1703817 121.45729,13.8271756 120.106685,13.8271756 C118.755343,13.8271756 117.829691,14.1667176 117.32924,14.845313 C116.828542,15.5243969 116.578193,16.7987786 116.578193,18.6696794 L116.578193,18.6696794 Z" id="Fill-9" sketch:type="MSShapeGroup"></path>
                <path d="M127.571654,24.6492824 L127.571654,8.42772519 L132.172612,8.42772519 L135.820376,21.0972824 L139.467649,8.42772519 L144.092708,8.42772519 L144.092708,24.6492824 L141.42273,24.6492824 L141.42273,11.340458 L141.064913,11.340458 L137.202951,23.9863206 L134.437556,23.9863206 L130.575348,11.340458 L130.217777,11.340458 L130.217777,24.6492824 L127.571654,24.6492824" id="Fill-10" sketch:type="MSShapeGroup"></path>
                <path d="M155.504482,22.5177405 L156.172161,22.4469008 L156.21987,24.3649466 C154.407915,24.7281832 152.802535,24.9096794 151.403975,24.9096794 C149.639975,24.9096794 148.372246,24.4279695 147.601526,23.4650382 C146.830314,22.5023511 146.445199,20.9634198 146.445199,18.8475115 C146.445199,14.6479389 148.169606,12.5481527 151.618665,12.5481527 C154.956075,12.5481527 156.625149,14.3560305 156.625149,17.9712977 L156.458168,19.8182595 L149.067468,19.8182595 C149.083699,20.797313 149.297897,21.5157252 149.711538,21.9734962 C150.124442,22.4312672 150.895408,22.6599084 152.024191,22.6599084 C153.152236,22.6599084 154.312743,22.6127634 155.504482,22.5177405 L155.504482,22.5177405 Z M148.352572,9.32787786 L153.97878,6.93593893 L154.78934,9.16201527 L148.972542,11.0092214 L148.352572,9.32787786 L148.352572,9.32787786 Z M154.074198,17.8291298 C154.074198,16.6610076 153.887297,15.8439084 153.513987,15.3780763 C153.140432,14.9127328 152.508657,14.6796947 151.618665,14.6796947 C150.728427,14.6796947 150.080913,14.924458 149.67588,15.4137405 C149.270354,15.9032672 149.059598,16.7086412 149.044105,17.8291298 L154.074198,17.8291298 L154.074198,17.8291298 Z" id="Fill-11" sketch:type="MSShapeGroup"></path>
                <path d="M157.864843,12.8087939 L160.630238,12.8087939 L162.966745,16.9055267 L165.326861,12.8087939 L168.092502,12.8087939 L164.540156,18.6342595 L168.092502,24.6492824 L165.326861,24.6492824 L162.966745,20.5999389 L160.630238,24.6492824 L157.864843,24.6492824 L161.32128,18.7053435 L157.864843,12.8087939" id="Fill-12" sketch:type="MSShapeGroup"></path>
                <path d="M169.951674,8.07254962 L172.550088,8.07254962 L172.550088,10.7959695 L169.951674,10.7959695 L169.951674,8.07254962 Z M169.951674,12.8087939 L172.550088,12.8087939 L172.550088,24.6492824 L169.951674,24.6492824 L169.951674,12.8087939 Z" id="Fill-13" sketch:type="MSShapeGroup"></path>
                <path d="M180.03596,12.5481527 C180.878243,12.5481527 181.871769,12.6590534 183.016045,12.8798779 L183.611915,12.9983511 L183.516497,15.0348702 C182.260818,14.9085802 181.331232,14.845313 180.727247,14.845313 C179.519031,14.845313 178.708472,15.1140153 178.295568,15.6504427 C177.882173,16.1876031 177.675844,17.1979237 177.675844,18.6816489 C177.675844,20.1656183 177.874304,21.1918168 178.271714,21.76 C178.668878,22.3284275 179.495423,22.6127634 180.751102,22.6127634 L183.540351,22.4232061 L183.611915,24.4834198 C182.00678,24.7677557 180.798811,24.9096794 179.988497,24.9096794 C178.176296,24.9096794 176.900944,24.4243053 176.161947,23.453313 C175.422705,22.4825649 175.05333,20.8920916 175.05333,18.6816489 C175.05333,16.4714504 175.442625,14.8966107 176.22146,13.957374 C177.00005,13.0181374 178.271714,12.5481527 180.03596,12.5481527" id="Fill-14" sketch:type="MSShapeGroup"></path>
                <path d="M186.532487,14.0875725 C187.35067,13.0616183 188.713817,12.5481527 190.621189,12.5481527 C192.528316,12.5481527 193.890971,13.0616183 194.709892,14.0875725 C195.528075,15.1140153 195.937536,16.6531908 195.937536,18.7053435 C195.937536,20.7577405 195.540125,22.3049771 194.745305,23.3465649 C193.95073,24.3886412 192.575779,24.9096794 190.621189,24.9096794 C188.666354,24.9096794 187.291403,24.3886412 186.496582,23.3465649 C185.702008,22.3049771 185.304597,20.7577405 185.304597,18.7053435 C185.304597,16.6531908 185.713812,15.1140153 186.532487,14.0875725 L186.532487,14.0875725 Z M188.475272,21.7836947 C188.840713,22.4153893 189.555854,22.7309924 190.621189,22.7309924 C191.685787,22.7309924 192.400683,22.4153893 192.767107,21.7836947 C193.132055,21.1524885 193.315267,20.1184733 193.315267,18.6816489 C193.315267,17.2450687 193.120005,16.2271756 192.730956,15.6269924 C192.341415,15.0270534 191.638324,14.727084 190.621189,14.727084 C189.603809,14.727084 188.900718,15.0270534 188.511423,15.6269924 C188.12139,16.2271756 187.927112,17.2450687 187.927112,18.6816489 C187.927112,20.1184733 188.109586,21.1524885 188.475272,21.7836947 L188.475272,21.7836947 Z" id="Fill-15" sketch:type="MSShapeGroup"></path>
            </g>
        </g>
    </g>
</svg>