<?xml version="1.0" encoding="UTF-8" standalone="no"?>
<svg width="157px" height="157px" viewBox="0 0 157 157" version="1.1" xmlns="http://www.w3.org/2000/svg" xmlns:xlink="http://www.w3.org/1999/xlink" xmlns:sketch="http://www.bohemiancoding.com/sketch/ns">
    <!-- Generator: Sketch 3.2.2 (9983) - http://www.bohemiancoding.com/sketch -->
    <title>Group</title>
    <desc>Created with Sketch.</desc>
    <defs>
        <path id="path-1" d="M120,46.003845 L120,0 L0,0 L0,22.4345796 C12.9452096,47.5456723 39.1323972,64.717 69.33,64.717 C88.6747268,64.717 106.373682,57.6703267 120,46.003845"></path>
        <path id="path-3" d="M26.1621855,0 L0,0 L0,46.003845 C13.5209817,34.4275496 23.0320493,18.3025956 26.1621855,1.42108547e-14"></path>
        <path id="path-5" d="M120,19.528155 L120,92 L0,92 L0,43.0974204 C12.9452096,17.9863277 39.1323972,0.815 69.33,0.815 C88.6747268,0.815 106.373682,7.86167333 120,19.528155"></path>
        <path id="path-7" d="M26.1621855,73 L0,73 L0,0.528154981 C16.6985674,14.8250125 27.281,36.0597268 27.281,59.766 C27.281,64.2770885 26.8978034,68.6986802 26.1621855,73"></path>
    </defs>
    <g id="Welcome" stroke="none" stroke-width="1" fill="none" fill-rule="evenodd" sketch:type="MSPage">
        <g id="Landing" sketch:type="MSArtboardGroup" transform="translate(-993.000000, -752.000000)">
            <g id="Group" sketch:type="MSLayerGroup" transform="translate(993.000000, 752.000000)">
                <path d="M156.281,78.766 C156.281,121.817 121.381,156.717 78.33,156.717 C35.279,156.717 0.379,121.817 0.379,78.766 C0.379,35.715 35.279,0.815 78.33,0.815 C121.381,0.815 156.281,35.715 156.281,78.766" id="Fill-1" fill="#FFCE00" sketch:type="MSShapeGroup"></path>
                <g id="Group-16" transform="translate(9.000000, 92.000000)">
                    <mask id="mask-2" sketch:name="Clip 6" fill="white">
                        <use xlink:href="#path-1"></use>
                    </mask>
                    <g id="Clip-6"></g>
                    <path d="M120,0 L113.475,0 C113.116,0.795 112.916,1.677 112.916,2.605 C112.916,6.103 115.752,8.939 119.25,8.939 C119.503,8.939 119.754,8.924 120,8.895 L120,0" id="Fill-5" fill="#FEC800" sketch:type="MSShapeGroup" mask="url(#mask-2)"></path>
                    <path d="M116.585,27.439 C115.635,27.439 114.726,27.982 114.307,28.904 C113.736,30.161 114.292,31.643 115.549,32.214 L120,34.237 L120,28.745 L117.617,27.663 C117.282,27.511 116.931,27.439 116.585,27.439" id="Fill-7" fill="#FEC800" sketch:type="MSShapeGroup" mask="url(#mask-2)"></path>
                    <path d="M89.25,21.272 C85.752,21.272 82.916,24.107 82.916,27.605 C82.916,31.103 85.752,33.939 89.25,33.939 C92.747,33.939 95.583,31.103 95.583,27.605 C95.583,24.107 92.747,21.272 89.25,21.272" id="Fill-8" fill="#FEC800" sketch:type="MSShapeGroup" mask="url(#mask-2)"></path>
                    <path d="M86.585,52.439 C85.635,52.439 84.726,52.982 84.307,53.904 C83.736,55.161 84.292,56.643 85.549,57.214 L93.549,60.85 C93.563,60.856 93.576,60.862 93.59,60.868 C94.67,60.515 95.735,60.14 96.794,59.742 C96.817,59.698 96.838,59.654 96.859,59.608 C97.43,58.352 96.875,56.87 95.617,56.298 L87.617,52.662 C87.282,52.511 86.931,52.439 86.585,52.439" id="Fill-9" fill="#FEC800" sketch:type="MSShapeGroup" mask="url(#mask-2)"></path>
                    <path d="M59.25,46.272 C55.752,46.272 52.916,49.107 52.916,52.605 C52.916,56.103 55.752,58.938 59.25,58.938 C62.747,58.938 65.583,56.103 65.583,52.605 C65.583,49.107 62.747,46.272 59.25,46.272" id="Fill-10" fill="#FEC800" sketch:type="MSShapeGroup" mask="url(#mask-2)"></path>
                    <path d="M59.407,13.926 C59.209,13.926 59.01,14.041 58.859,14.27 L54.631,18.499 C54.171,18.8 54.171,19.294 54.631,19.596 L58.859,23.824 C59.01,24.054 59.209,24.169 59.407,24.169 C59.606,24.169 59.805,24.054 59.956,23.824 L64.184,19.596 C64.644,19.294 64.644,18.8 64.184,18.499 L59.956,14.27 C59.805,14.041 59.606,13.926 59.407,13.926" id="Fill-11" fill="#FEC800" sketch:type="MSShapeGroup" mask="url(#mask-2)"></path>
                    <path d="M29.407,38.926 C29.209,38.926 29.01,39.041 28.859,39.271 L24.631,43.499 C24.171,43.8 24.171,44.294 24.631,44.596 L28.859,48.824 C29.01,49.054 29.209,49.169 29.407,49.169 C29.606,49.169 29.805,49.054 29.956,48.824 L34.184,44.596 C34.644,44.294 34.644,43.8 34.184,43.499 L29.956,39.271 C29.805,39.041 29.606,38.926 29.407,38.926" id="Fill-12" fill="#FEC800" sketch:type="MSShapeGroup" mask="url(#mask-2)"></path>
                    <path d="M5.024,0 L0,0 L0,8.895 C3.144,8.524 5.583,5.849 5.583,2.605 C5.583,1.677 5.383,0.795 5.024,0" id="Fill-13" fill="#FEC800" sketch:type="MSShapeGroup" mask="url(#mask-2)"></path>
                    <path d="M5.217,31.116 C5.82,31.988 6.443,32.847 7.081,33.693 C7.128,32.701 6.577,31.734 5.617,31.298 L5.217,31.116" id="Fill-14" fill="#FEC800" sketch:type="MSShapeGroup" mask="url(#mask-2)"></path>
                    <path d="M26.585,2.439 C25.635,2.439 24.726,2.982 24.307,3.904 C23.736,5.161 24.292,6.643 25.549,7.214 L33.549,10.85 C33.884,11.002 34.235,11.075 34.582,11.075 C35.532,11.075 36.441,10.53 36.859,9.608 C37.43,8.352 36.875,6.87 35.617,6.298 L27.617,2.663 C27.282,2.511 26.931,2.439 26.585,2.439" id="Fill-15" fill="#FEC800" sketch:type="MSShapeGroup" mask="url(#mask-2)"></path>
                </g>
                <g id="Group-21" transform="translate(129.000000, 92.000000)">
                    <mask id="mask-4" sketch:name="Clip 18" fill="white">
                        <use xlink:href="#path-3"></use>
                    </mask>
                    <g id="Clip-18"></g>
                    <path d="M5.024,0 L0,0 L0,8.895 C3.144,8.524 5.583,5.849 5.583,2.605 C5.583,1.677 5.383,0.795 5.024,0" id="Fill-17" fill="#FEC800" sketch:type="MSShapeGroup" mask="url(#mask-4)"></path>
                    <path d="M0,28.745 L0,34.237 L3.549,35.85 C3.884,36.002 4.235,36.075 4.582,36.075 C5.532,36.075 6.44,35.53 6.859,34.608 C7.43,33.352 6.875,31.87 5.617,31.298 L0,28.745" id="Fill-19" fill="#FEC800" sketch:type="MSShapeGroup" mask="url(#mask-4)"></path>
                    <path d="M25.67,2.612 C25.086,2.841 24.587,3.288 24.307,3.904 C23.882,4.84 24.081,5.902 24.731,6.618 C25.078,5.295 25.391,3.961 25.67,2.612" id="Fill-20" fill="#FEC800" sketch:type="MSShapeGroup" mask="url(#mask-4)"></path>
                </g>
                <g id="Group-40" transform="translate(9.000000, 0.000000)">
                    <mask id="mask-6" sketch:name="Clip 27" fill="white">
                        <use xlink:href="#path-5"></use>
                    </mask>
                    <g id="Clip-27"></g>
                    <path d="M119.25,88.272 C116.68,88.272 114.469,89.802 113.475,92 L120,92 L120,88.316 C119.754,88.287 119.503,88.272 119.25,88.272" id="Fill-26" fill="#FEC800" sketch:type="MSShapeGroup" mask="url(#mask-6)"></path>
                    <path d="M119.407,55.926 C119.209,55.926 119.01,56.041 118.859,56.271 L114.631,60.499 C114.171,60.801 114.171,61.294 114.631,61.596 L118.859,65.824 C119.01,66.054 119.209,66.169 119.407,66.169 C119.606,66.169 119.805,66.054 119.956,65.824 L120,65.78 L120,56.315 L119.956,56.271 C119.805,56.041 119.606,55.926 119.407,55.926" id="Fill-28" fill="#FEC800" sketch:type="MSShapeGroup" mask="url(#mask-6)"></path>
                    <path d="M89.407,80.926 C89.209,80.926 89.01,81.041 88.859,81.271 L84.631,85.499 C84.171,85.801 84.171,86.294 84.631,86.596 L88.859,90.824 C89.01,91.054 89.209,91.169 89.407,91.169 C89.606,91.169 89.805,91.054 89.956,90.824 L94.184,86.596 C94.644,86.294 94.644,85.801 94.184,85.499 L89.956,81.271 C89.805,81.041 89.606,80.926 89.407,80.926" id="Fill-29" fill="#FEC800" sketch:type="MSShapeGroup" mask="url(#mask-6)"></path>
                    <path d="M0,88.316 L0,92 L5.024,92 C4.129,90.019 2.244,88.581 0,88.316" id="Fill-30" fill="#FEC800" sketch:type="MSShapeGroup" mask="url(#mask-6)"></path>
                    <path d="M0,56.315 L0,65.78 L4.184,61.596 C4.644,61.294 4.644,60.801 4.184,60.499 L0,56.315" id="Fill-31" fill="#FEC800" sketch:type="MSShapeGroup" mask="url(#mask-6)"></path>
                    <path d="M116.585,19.439 C115.635,19.439 114.726,19.982 114.307,20.904 C113.736,22.161 114.292,23.643 115.549,24.214 L120,26.237 L120,20.745 L117.617,19.663 C117.282,19.511 116.931,19.439 116.585,19.439" id="Fill-32" fill="#FEC800" sketch:type="MSShapeGroup" mask="url(#mask-6)"></path>
                    <path d="M89.25,13.272 C85.752,13.272 82.916,16.107 82.916,19.605 C82.916,23.103 85.752,25.939 89.25,25.939 C92.747,25.939 95.583,23.103 95.583,19.605 C95.583,16.107 92.747,13.272 89.25,13.272" id="Fill-33" fill="#FEC800" sketch:type="MSShapeGroup" mask="url(#mask-6)"></path>
                    <path d="M86.585,44.439 C85.635,44.439 84.726,44.982 84.307,45.904 C83.736,47.161 84.292,48.643 85.549,49.214 L93.549,52.85 C93.884,53.002 94.235,53.075 94.582,53.075 C95.532,53.075 96.441,52.53 96.859,51.608 C97.43,50.352 96.875,48.87 95.617,48.298 L87.617,44.662 C87.282,44.511 86.931,44.439 86.585,44.439" id="Fill-34" fill="#FEC800" sketch:type="MSShapeGroup" mask="url(#mask-6)"></path>
                    <path d="M59.25,38.272 C55.752,38.272 52.916,41.107 52.916,44.605 C52.916,48.103 55.752,50.939 59.25,50.939 C62.747,50.939 65.583,48.103 65.583,44.605 C65.583,41.107 62.747,38.272 59.25,38.272" id="Fill-35" fill="#FEC800" sketch:type="MSShapeGroup" mask="url(#mask-6)"></path>
                    <path d="M59.407,5.926 C59.209,5.926 59.01,6.041 58.859,6.271 L54.631,10.499 C54.171,10.801 54.171,11.294 54.631,11.596 L58.859,15.824 C59.01,16.054 59.209,16.169 59.407,16.169 C59.606,16.169 59.805,16.054 59.956,15.824 L64.184,11.596 C64.644,11.294 64.644,10.801 64.184,10.499 L59.956,6.271 C59.805,6.041 59.606,5.926 59.407,5.926" id="Fill-36" fill="#FEC800" sketch:type="MSShapeGroup" mask="url(#mask-6)"></path>
                    <path d="M56.585,69.439 C55.635,69.439 54.726,69.982 54.307,70.904 C53.736,72.161 54.292,73.643 55.549,74.214 L63.549,77.85 C63.884,78.002 64.235,78.075 64.582,78.075 C65.532,78.075 66.44,77.53 66.859,76.608 C67.43,75.351 66.875,73.87 65.617,73.298 L57.617,69.663 C57.282,69.511 56.931,69.439 56.585,69.439" id="Fill-37" fill="#FEC800" sketch:type="MSShapeGroup" mask="url(#mask-6)"></path>
                    <path d="M29.25,63.272 C25.752,63.272 22.916,66.108 22.916,69.605 C22.916,73.103 25.752,75.939 29.25,75.939 C32.747,75.939 35.583,73.103 35.583,69.605 C35.583,66.108 32.747,63.272 29.25,63.272" id="Fill-38" fill="#FEC800" sketch:type="MSShapeGroup" mask="url(#mask-6)"></path>
                    <path d="M29.407,30.926 C29.209,30.926 29.01,31.041 28.859,31.271 L24.631,35.499 C24.171,35.801 24.171,36.294 24.631,36.596 L28.859,40.824 C29.01,41.054 29.209,41.169 29.407,41.169 C29.606,41.169 29.805,41.054 29.956,40.824 L34.184,36.596 C34.644,36.294 34.644,35.801 34.184,35.499 L29.956,31.271 C29.805,31.041 29.606,30.926 29.407,30.926" id="Fill-39" fill="#FEC800" sketch:type="MSShapeGroup" mask="url(#mask-6)"></path>
                </g>
                <g id="Group-46" transform="translate(129.000000, 19.000000)">
                    <mask id="mask-8" sketch:name="Clip 42" fill="white">
                        <use xlink:href="#path-7"></use>
                    </mask>
                    <g id="Clip-42"></g>
                    <path d="M0,69.316 L0,73 L5.024,73 C4.129,71.019 2.244,69.581 0,69.316" id="Fill-41" fill="#FEC800" sketch:type="MSShapeGroup" mask="url(#mask-8)"></path>
                    <path d="M0,37.315 L0,46.78 L4.184,42.596 C4.644,42.294 4.644,41.801 4.184,41.499 L0,37.315" id="Fill-43" fill="#FEC800" sketch:type="MSShapeGroup" mask="url(#mask-8)"></path>
                    <path d="M25.925,45.214 C24.119,46.329 22.916,48.327 22.916,50.605 C22.916,53.393 24.717,55.759 27.218,56.606 C27.064,52.729 26.626,48.925 25.925,45.214" id="Fill-44" fill="#FEC800" sketch:type="MSShapeGroup" mask="url(#mask-8)"></path>
                    <path d="M0,1.745 L0,7.237 L3.549,8.85 C3.884,9.002 4.235,9.075 4.582,9.075 C5.532,9.075 6.44,8.53 6.859,7.608 C6.906,7.505 6.945,7.4 6.977,7.295 C5.622,5.807 4.211,4.372 2.746,2.994 L0,1.745" id="Fill-45" fill="#FEC800" sketch:type="MSShapeGroup" mask="url(#mask-8)"></path>
                </g>
                <path d="M102.428,54.786 C102.326,54.772 102,54.777 102,54.776 L102,51.583 C102,50.202 101.138,49 99.757,49 L56.757,49 C55.376,49 54,50.202 54,51.583 L54,54.78 L53.944,54.786 C49.616,55.385 46.644,59.392 47.241,63.721 C47.788,67.683 51.226,70.563 55.12,70.563 C55.349,70.563 55.597,70.536 55.829,70.515 C58.42,77.197 63.982,82.434 70.902,84.642 C71.125,86.67 71.598,93.724 68.018,97.972 C67.391,98.716 67.255,99.714 67.664,100.596 C68.074,101.477 68.961,102 69.933,102 L87.573,102 C88.546,102 89.43,101.477 89.841,100.596 C90.25,99.714 90.112,98.695 89.485,97.951 C85.291,92.974 86.63,84.465 86.664,84.252 C93.044,81.86 98.139,76.832 100.615,70.499 C100.904,70.53 101.192,70.561 101.477,70.561 C105.37,70.561 108.712,67.682 109.259,63.719 C109.856,59.391 106.756,55.385 102.428,54.786 L102.428,54.786 Z M52.13,63.037 C51.933,61.613 52,60.289 54,59.861 L54,62.031 C54,63.203 54.154,64.354 54.32,65.481 C53.167,65.218 52.301,64.276 52.13,63.037 L52.13,63.037 Z M83.172,97 L74.329,97 C76.087,93 76.177,88.346 76.018,85.636 C76.756,85.704 77.502,85.763 78.257,85.763 C79.358,85.763 80.441,85.651 81.503,85.507 C81.324,88.143 81.364,93 83.172,97 L83.172,97 Z M97,61.807 C97,72.27 88.477,80.784 78,80.784 C67.523,80.784 59,72.372 59,62.031 L59,54 L97,54 L97,61.807 L97,61.807 Z M104.242,63.037 C104.064,64.327 102.995,65.295 101.778,65.507 C101.965,64.3 102,63.065 102,61.807 L102,59.833 C103,60.22 104.444,61.573 104.242,63.037 L104.242,63.037 Z" id="Fill-47" fill="#FFFFFF" sketch:type="MSShapeGroup"></path>
                <path d="M96,110.5 C96,111.881 94.881,113 93.5,113 L63.5,113 C62.119,113 61,111.881 61,110.5 L61,99.5 C61,98.119 62.119,97 63.5,97 L93.5,97 C94.881,97 96,98.119 96,99.5 L96,110.5 L96,110.5 Z M66,108 L91,108 L91,102 L66,102 L66,108 Z" id="Fill-48" fill="#FFFFFF" sketch:type="MSShapeGroup"></path>
            </g>
        </g>
    </g>
</svg>