<?xml version="1.0" encoding="UTF-8" standalone="no"?>
<svg width="157px" height="156px" viewBox="0 0 157 156" version="1.1" xmlns="http://www.w3.org/2000/svg" xmlns:xlink="http://www.w3.org/1999/xlink" xmlns:sketch="http://www.bohemiancoding.com/sketch/ns">
    <!-- Generator: Sketch 3.2.2 (9983) - http://www.bohemiancoding.com/sketch -->
    <title>Group</title>
    <desc>Created with Sketch.</desc>
    <defs>
        <path id="path-1" d="M55,53.368927 L55,0 L0.0248014786,0 C7.69421112,26.0657594 28.6194272,46.4555516 55,53.368927"></path>
        <path id="path-3" d="M94.6071985,0 L0,0 L0,53.368927 C6.32737501,55.0270986 12.9685854,55.91 19.816,55.91 C55.2121762,55.91 85.0982825,32.3176265 94.6071985,2.13162821e-14"></path>
        <path id="path-5" d="M4.02480148,98 L59,98 L59,0.549009217 C25.5459632,9.31587496 0.865,39.7545737 0.865,75.959 C0.865,83.6138238 1.96839075,91.0109474 4.02480148,98"></path>
        <path id="path-7" d="M94.6071985,100 L0,100 L0,2.54900922 C6.32737501,0.890876075 12.9685854,0.008 19.816,0.008 C62.867,0.008 97.767,34.907 97.767,77.959 C97.767,85.6138238 96.6636093,93.0109474 94.6071985,100"></path>
    </defs>
    <g id="Welcome" stroke="none" stroke-width="1" fill="none" fill-rule="evenodd" sketch:type="MSPage">
        <g id="Landing" sketch:type="MSArtboardGroup" transform="translate(-290.000000, -752.000000)">
            <g id="Group" sketch:type="MSLayerGroup" transform="translate(290.000000, 752.000000)">
                <path d="M156.767,77.959 C156.767,121.01 121.867,155.91 78.816,155.91 C35.765,155.91 0.865,121.01 0.865,77.959 C0.865,34.907 35.765,0.008 78.816,0.008 C121.867,0.008 156.767,34.907 156.767,77.959" id="Fill-1" fill="#FFCE00" sketch:type="MSShapeGroup"></path>
                <g id="Group-6" transform="translate(4.000000, 100.000000)">
                    <mask id="mask-2" sketch:name="Clip 3" fill="white">
                        <use xlink:href="#path-1"></use>
                    </mask>
                    <g id="Clip-3"></g>
                    <path d="M55,0 L48.475,0 C48.116,0.795 47.916,1.677 47.916,2.605 C47.916,6.103 50.752,8.939 54.25,8.939 C54.503,8.939 54.754,8.924 55,8.895 L55,0" id="Fill-2" fill="#FEC800" sketch:type="MSShapeGroup" mask="url(#mask-2)"></path>
                    <path d="M51.585,27.439 C50.635,27.439 49.726,27.982 49.307,28.904 C48.736,30.161 49.292,31.643 50.549,32.214 L55,34.237 L55,28.745 L52.617,27.662 C52.282,27.511 51.931,27.438 51.585,27.439" id="Fill-4" fill="#FEC800" sketch:type="MSShapeGroup" mask="url(#mask-2)"></path>
                    <path d="M24.25,21.272 C20.752,21.272 17.916,24.107 17.916,27.605 C17.916,31.103 20.752,33.939 24.25,33.939 C27.748,33.939 30.583,31.103 30.583,27.605 C30.583,24.107 27.748,21.272 24.25,21.272" id="Fill-5" fill="#FEC800" sketch:type="MSShapeGroup" mask="url(#mask-2)"></path>
                </g>
                <g id="Group-13" transform="translate(59.000000, 100.000000)">
                    <mask id="mask-4" sketch:name="Clip 8" fill="white">
                        <use xlink:href="#path-3"></use>
                    </mask>
                    <g id="Clip-8"></g>
                    <path d="M59.407,13.926 C59.209,13.926 59.01,14.041 58.859,14.271 L54.631,18.499 C54.171,18.8 54.171,19.294 54.631,19.596 L58.859,23.824 C59.01,24.054 59.209,24.169 59.407,24.169 C59.606,24.169 59.805,24.054 59.956,23.824 L64.184,19.596 C64.644,19.294 64.644,18.8 64.184,18.499 L59.956,14.271 C59.805,14.041 59.606,13.926 59.407,13.926" id="Fill-7" fill="#FEC800" sketch:type="MSShapeGroup" mask="url(#mask-4)"></path>
                    <path d="M29.407,38.925 C29.209,38.925 29.01,39.041 28.859,39.27 L24.631,43.499 C24.171,43.801 24.171,44.294 24.631,44.596 L28.859,48.824 C29.01,49.054 29.209,49.169 29.407,49.169 C29.606,49.169 29.805,49.054 29.956,48.824 L34.184,44.596 C34.644,44.294 34.644,43.801 34.184,43.499 L29.956,39.27 C29.805,39.041 29.606,38.925 29.407,38.925" id="Fill-9" fill="#FEC800" sketch:type="MSShapeGroup" mask="url(#mask-4)"></path>
                    <path d="M5.024,0 L0,0 L0,8.895 C3.144,8.524 5.583,5.849 5.583,2.605 C5.583,1.677 5.383,0.795 5.024,0" id="Fill-10" fill="#FEC800" sketch:type="MSShapeGroup" mask="url(#mask-4)"></path>
                    <path d="M0,28.745 L0,34.237 L3.549,35.85 C3.884,36.002 4.236,36.075 4.582,36.075 C5.532,36.075 6.441,35.53 6.859,34.608 C7.43,33.352 6.875,31.87 5.617,31.298 L0,28.745" id="Fill-11" fill="#FEC800" sketch:type="MSShapeGroup" mask="url(#mask-4)"></path>
                    <path d="M26.585,2.439 C25.635,2.439 24.726,2.982 24.307,3.904 C23.736,5.161 24.292,6.643 25.549,7.214 L33.549,10.85 C33.884,11.002 34.236,11.075 34.582,11.075 C35.532,11.075 36.441,10.53 36.859,9.608 C37.43,8.352 36.875,6.87 35.617,6.298 L27.617,2.663 C27.282,2.511 26.931,2.439 26.585,2.439" id="Fill-12" fill="#FEC800" sketch:type="MSShapeGroup" mask="url(#mask-4)"></path>
                </g>
                <g id="Group-23" transform="translate(0.000000, 2.000000)">
                    <mask id="mask-6" sketch:name="Clip 15" fill="white">
                        <use xlink:href="#path-5"></use>
                    </mask>
                    <g id="Clip-15"></g>
                    <path d="M58.25,94.272 C55.681,94.272 53.469,95.802 52.475,98 L59,98 L59,94.316 C58.754,94.287 58.503,94.272 58.25,94.272" id="Fill-14" fill="#FEC800" sketch:type="MSShapeGroup" mask="url(#mask-6)"></path>
                    <path d="M58.407,61.926 C58.209,61.926 58.01,62.041 57.859,62.271 L53.631,66.499 C53.171,66.801 53.171,67.294 53.631,67.596 L57.859,71.824 C58.01,72.054 58.209,72.169 58.407,72.169 C58.606,72.169 58.805,72.054 58.956,71.824 L59,71.78 L59,62.315 L58.956,62.271 C58.805,62.041 58.606,61.926 58.407,61.926" id="Fill-16" fill="#FEC800" sketch:type="MSShapeGroup" mask="url(#mask-6)"></path>
                    <path d="M28.407,86.926 C28.209,86.926 28.01,87.041 27.859,87.271 L23.631,91.499 C23.171,91.801 23.171,92.294 23.631,92.596 L27.859,96.824 C28.01,97.054 28.209,97.169 28.407,97.169 C28.606,97.169 28.805,97.054 28.956,96.824 L33.184,92.596 C33.644,92.294 33.644,91.801 33.184,91.499 L28.956,87.271 C28.805,87.041 28.606,86.926 28.407,86.926" id="Fill-17" fill="#FEC800" sketch:type="MSShapeGroup" mask="url(#mask-6)"></path>
                    <path d="M59,0.549 C56.708,1.149 54.458,1.851 52.254,2.65 C53.104,5.145 55.467,6.939 58.25,6.939 C58.503,6.939 58.754,6.924 59,6.895 L59,0.549" id="Fill-18" fill="#FEC800" sketch:type="MSShapeGroup" mask="url(#mask-6)"></path>
                    <path d="M55.585,25.439 C54.635,25.439 53.726,25.982 53.307,26.904 C52.736,28.161 53.292,29.643 54.549,30.214 L59,32.237 L59,26.745 L56.617,25.663 C56.282,25.511 55.931,25.439 55.585,25.439" id="Fill-19" fill="#FEC800" sketch:type="MSShapeGroup" mask="url(#mask-6)"></path>
                    <path d="M28.25,19.272 C24.752,19.272 21.916,22.107 21.916,25.605 C21.916,29.103 24.752,31.939 28.25,31.939 C31.748,31.939 34.583,29.103 34.583,25.605 C34.583,22.107 31.748,19.272 28.25,19.272" id="Fill-20" fill="#FEC800" sketch:type="MSShapeGroup" mask="url(#mask-6)"></path>
                    <path d="M25.585,50.439 C24.635,50.439 23.726,50.982 23.307,51.904 C22.736,53.161 23.292,54.643 24.549,55.214 L32.549,58.85 C32.884,59.002 33.236,59.075 33.582,59.075 C34.532,59.075 35.441,58.53 35.859,57.608 C36.43,56.352 35.875,54.87 34.617,54.298 L26.617,50.663 C26.282,50.511 25.931,50.439 25.585,50.439" id="Fill-21" fill="#FEC800" sketch:type="MSShapeGroup" mask="url(#mask-6)"></path>
                    <path d="M0.882,77.601 C0.921,79.496 1.028,81.377 1.2,83.237 L2.549,83.85 C2.884,84.002 3.236,84.075 3.582,84.075 C4.532,84.075 5.441,83.53 5.859,82.608 C6.43,81.352 5.875,79.87 4.617,79.298 L0.882,77.601" id="Fill-22" fill="#FEC800" sketch:type="MSShapeGroup" mask="url(#mask-6)"></path>
                </g>
                <g id="Group-37" transform="translate(59.000000, 0.000000)">
                    <mask id="mask-8" sketch:name="Clip 25" fill="white">
                        <use xlink:href="#path-7"></use>
                    </mask>
                    <g id="Clip-25"></g>
                    <path d="M89.407,88.926 C89.209,88.926 89.01,89.041 88.859,89.271 L84.631,93.499 C84.171,93.801 84.171,94.294 84.631,94.596 L88.859,98.824 C89.01,99.054 89.209,99.169 89.407,99.169 C89.606,99.169 89.805,99.054 89.956,98.824 L94.184,94.596 C94.644,94.294 94.644,93.801 94.184,93.499 L89.956,89.271 C89.805,89.041 89.606,88.926 89.407,88.926" id="Fill-24" fill="#FEC800" sketch:type="MSShapeGroup" mask="url(#mask-8)"></path>
                    <path d="M0,96.316 L0,100 L5.024,100 C4.129,98.019 2.244,96.581 0,96.316" id="Fill-26" fill="#FEC800" sketch:type="MSShapeGroup" mask="url(#mask-8)"></path>
                    <path d="M0,64.315 L0,73.78 L4.184,69.596 C4.644,69.294 4.644,68.801 4.184,68.499 L0,64.315" id="Fill-27" fill="#FEC800" sketch:type="MSShapeGroup" mask="url(#mask-8)"></path>
                    <path d="M86.585,52.439 C85.635,52.439 84.726,52.982 84.307,53.904 C83.736,55.161 84.292,56.643 85.549,57.214 L93.549,60.85 C93.884,61.002 94.236,61.075 94.582,61.075 C95.032,61.075 95.472,60.953 95.856,60.726 C95.483,59.073 95.057,57.439 94.581,55.827 L87.617,52.663 C87.282,52.511 86.931,52.439 86.585,52.439" id="Fill-28" fill="#FEC800" sketch:type="MSShapeGroup" mask="url(#mask-8)"></path>
                    <path d="M59.25,46.272 C55.752,46.272 52.916,49.108 52.916,52.605 C52.916,56.103 55.752,58.939 59.25,58.939 C62.747,58.939 65.583,56.103 65.583,52.605 C65.583,49.108 62.747,46.272 59.25,46.272" id="Fill-29" fill="#FEC800" sketch:type="MSShapeGroup" mask="url(#mask-8)"></path>
                    <path d="M59.407,13.926 C59.209,13.926 59.01,14.041 58.859,14.271 L54.631,18.499 C54.171,18.801 54.171,19.294 54.631,19.596 L58.859,23.824 C59.01,24.054 59.209,24.169 59.407,24.169 C59.606,24.169 59.805,24.054 59.956,23.824 L64.184,19.596 C64.644,19.294 64.644,18.801 64.184,18.499 L59.956,14.271 C59.805,14.041 59.606,13.926 59.407,13.926" id="Fill-30" fill="#FEC800" sketch:type="MSShapeGroup" mask="url(#mask-8)"></path>
                    <path d="M56.585,77.439 C55.635,77.439 54.726,77.982 54.307,78.904 C53.736,80.161 54.292,81.643 55.549,82.214 L63.549,85.85 C63.884,86.002 64.236,86.075 64.582,86.075 C65.532,86.075 66.441,85.53 66.859,84.608 C67.43,83.352 66.875,81.87 65.617,81.298 L57.617,77.663 C57.282,77.511 56.931,77.439 56.585,77.439" id="Fill-31" fill="#FEC800" sketch:type="MSShapeGroup" mask="url(#mask-8)"></path>
                    <path d="M29.25,71.272 C25.752,71.272 22.916,74.107 22.916,77.605 C22.916,81.103 25.752,83.939 29.25,83.939 C32.748,83.939 35.583,81.103 35.583,77.605 C35.583,74.107 32.748,71.272 29.25,71.272" id="Fill-32" fill="#FEC800" sketch:type="MSShapeGroup" mask="url(#mask-8)"></path>
                    <path d="M29.407,38.926 C29.209,38.926 29.01,39.041 28.859,39.271 L24.631,43.499 C24.171,43.801 24.171,44.294 24.631,44.596 L28.859,48.824 C29.01,49.054 29.209,49.169 29.407,49.169 C29.606,49.169 29.805,49.054 29.956,48.824 L34.184,44.596 C34.644,44.294 34.644,43.801 34.184,43.499 L29.956,39.271 C29.805,39.041 29.606,38.926 29.407,38.926" id="Fill-33" fill="#FEC800" sketch:type="MSShapeGroup" mask="url(#mask-8)"></path>
                    <path d="M5.454,1.328 C3.612,1.671 1.794,2.078 0,2.549 L0,8.895 C3.144,8.523 5.583,5.849 5.583,2.605 C5.583,2.168 5.539,1.741 5.454,1.328" id="Fill-34" fill="#FEC800" sketch:type="MSShapeGroup" mask="url(#mask-8)"></path>
                    <path d="M0,28.745 L0,34.237 L3.549,35.85 C3.884,36.002 4.236,36.075 4.582,36.075 C5.532,36.075 6.441,35.53 6.859,34.608 C7.43,33.351 6.875,31.87 5.617,31.298 L0,28.745" id="Fill-35" fill="#FEC800" sketch:type="MSShapeGroup" mask="url(#mask-8)"></path>
                    <path d="M26.585,2.439 C25.635,2.439 24.726,2.982 24.307,3.904 C23.736,5.161 24.292,6.643 25.549,7.214 L33.549,10.85 C33.884,11.002 34.236,11.075 34.582,11.075 C35.532,11.075 36.441,10.53 36.859,9.608 C37.43,8.352 36.875,6.87 35.617,6.298 L27.617,2.663 C27.282,2.511 26.931,2.439 26.585,2.439" id="Fill-36" fill="#FEC800" sketch:type="MSShapeGroup" mask="url(#mask-8)"></path>
                </g>
                <path d="M65.677,104.539 C64.496,103.824 64.117,102.287 64.832,101.106 L94.323,52.328 C94.666,51.761 95.183,51.33 95.827,51.172 L96.443,51.077 C97.087,50.918 97.697,51.095 98.264,51.438 L135.917,74.204 C137.098,74.918 137.529,76.37 136.814,77.551 C136.254,78.479 135.212,78.869 134.208,78.667 L117.59,82.71 L122.131,98.516 C122.815,99.313 122.897,100.569 122.324,101.517 C121.609,102.699 120.024,103.158 118.843,102.443 L82.977,80.758 L69.11,103.693 C68.396,104.874 66.859,105.253 65.677,104.539 L65.677,104.539 Z M85.564,76.479 L115.692,94.695 L112.028,81.652 C111.841,80.998 111.954,80.253 112.296,79.665 C112.637,79.077 113.165,78.717 113.825,78.556 L127.866,75.179 L97.464,56.797 L85.564,76.479 L85.564,76.479 Z" id="Fill-38" fill="#FFFFFF" sketch:type="MSShapeGroup"></path>
                <path d="M88.522,103.693 L74.655,80.758 L38.79,102.443 C37.608,103.158 36.023,102.699 35.308,101.517 C34.735,100.569 34.817,99.313 35.501,98.516 L40.042,82.71 L23.424,78.667 C22.42,78.869 21.379,78.479 20.818,77.551 C20.103,76.37 20.534,74.918 21.715,74.204 L59.368,51.438 C59.935,51.095 60.545,50.918 61.189,51.077 L61.805,51.172 C62.449,51.33 62.966,51.761 63.309,52.328 L92.801,101.106 C93.515,102.287 93.137,103.824 91.955,104.539 C90.773,105.253 89.236,104.874 88.522,103.693 L88.522,103.693 Z M60.168,56.797 L29.766,75.179 L43.807,78.556 C44.467,78.717 44.995,79.077 45.337,79.665 C45.678,80.253 45.791,80.998 45.604,81.652 L41.94,94.695 L72.068,76.479 L60.168,56.797 L60.168,56.797 Z" id="Fill-39" fill="#FFFFFF" sketch:type="MSShapeGroup"></path>
            </g>
        </g>
    </g>
</svg>