<?xml version="1.0" encoding="UTF-8" standalone="no"?>
<svg width="157px" height="157px" viewBox="0 0 157 157" version="1.1" xmlns="http://www.w3.org/2000/svg" xmlns:xlink="http://www.w3.org/1999/xlink" xmlns:sketch="http://www.bohemiancoding.com/sketch/ns">
    <!-- Generator: Sketch 3.2.2 (9983) - http://www.bohemiancoding.com/sketch -->
    <title>Imported Layers</title>
    <desc>Created with Sketch.</desc>
    <defs>
        <path id="path-1" d="M97,82.4466845 L97,0 L1.18689367,0 C1.00353504,2.18134519 0.91,4.38824887 0.91,6.617 C0.91,49.668 35.811,84.568 78.862,84.568 C85.1067151,84.568 91.1799279,83.833682 97,82.4466845"></path>
        <path id="path-3" d="M59.5361141,1 L0,1 L0,83.4466845 C34.3034436,75.2717362 59.813,44.4232849 59.813,7.617 C59.813,5.38824887 59.7194676,3.18134519 59.5361141,1"></path>
        <path id="path-5" d="M0.186893675,72 L96,72 L96,2.78631852 C90.1799279,1.39931803 84.1067151,0.665 77.862,0.665 C37.0396994,0.665 3.54540908,32.0450689 0.186893675,72"></path>
        <path id="path-7" d="M59.5361141,70 L0,70 L0,0.78631852 C32.2262966,8.46627311 56.6914401,36.1570997 59.5361141,70"></path>
    </defs>
    <g id="Welcome" stroke="none" stroke-width="1" fill="none" fill-rule="evenodd" sketch:type="MSPage">
        <g id="Landing" sketch:type="MSArtboardGroup" transform="translate(-642.000000, -752.000000)">
            <g id="Imported-Layers" sketch:type="MSLayerGroup" transform="translate(642.000000, 752.000000)">
                <g>
                    <path d="M156.418,78.617 C156.418,121.668 121.518,156.568 78.466,156.568 C35.415,156.568 0.515,121.668 0.515,78.617 C0.515,35.565 35.415,0.665 78.466,0.665 C121.518,0.665 156.418,35.565 156.418,78.617" id="Fill-1" fill="#FFCE00" sketch:type="MSShapeGroup"></path>
                    <g id="Group-12" transform="translate(0.000000, 72.000000)">
                        <mask id="mask-2" sketch:name="Clip 3" fill="white">
                            <use xlink:href="#path-1"></use>
                        </mask>
                        <g id="Clip-3"></g>
                        <path d="M96.407,63.926 C96.209,63.926 96.01,64.041 95.859,64.271 L91.631,68.499 C91.171,68.8 91.171,69.294 91.631,69.596 L95.859,73.824 C96.01,74.054 96.209,74.169 96.407,74.169 C96.606,74.169 96.805,74.054 96.956,73.824 L97,73.78 L97,64.315 L96.956,64.271 C96.805,64.041 96.606,63.926 96.407,63.926" id="Fill-2" fill="#FEC800" sketch:type="MSShapeGroup" mask="url(#mask-2)"></path>
                        <path d="M97,0 L90.475,0 C90.116,0.795 89.916,1.677 89.916,2.605 C89.916,6.103 92.752,8.939 96.25,8.939 C96.504,8.939 96.754,8.924 97,8.895 L97,0" id="Fill-4" fill="#FEC800" sketch:type="MSShapeGroup" mask="url(#mask-2)"></path>
                        <path d="M93.585,27.439 C92.635,27.439 91.726,27.982 91.307,28.904 C90.736,30.161 91.292,31.643 92.549,32.214 L97,34.237 L97,28.745 L94.617,27.662 C94.282,27.511 93.931,27.438 93.585,27.439" id="Fill-5" fill="#FEC800" sketch:type="MSShapeGroup" mask="url(#mask-2)"></path>
                        <path d="M66.25,21.272 C62.752,21.272 59.916,24.107 59.916,27.605 C59.916,31.103 62.752,33.938 66.25,33.938 C69.747,33.938 72.583,31.103 72.583,27.605 C72.583,24.107 69.747,21.272 66.25,21.272" id="Fill-6" fill="#FEC800" sketch:type="MSShapeGroup" mask="url(#mask-2)"></path>
                        <path d="M63.585,52.439 C62.635,52.439 61.726,52.982 61.307,53.904 C60.736,55.161 61.292,56.643 62.549,57.214 L70.549,60.85 C70.884,61.002 71.235,61.075 71.582,61.075 C72.532,61.075 73.441,60.53 73.859,59.608 C74.43,58.352 73.875,56.869 72.617,56.298 L64.617,52.663 C64.282,52.511 63.931,52.439 63.585,52.439" id="Fill-7" fill="#FEC800" sketch:type="MSShapeGroup" mask="url(#mask-2)"></path>
                        <path d="M36.25,46.272 C32.752,46.272 29.916,49.107 29.916,52.605 C29.916,56.103 32.752,58.938 36.25,58.938 C39.747,58.938 42.583,56.103 42.583,52.605 C42.583,49.107 39.747,46.272 36.25,46.272" id="Fill-8" fill="#FEC800" sketch:type="MSShapeGroup" mask="url(#mask-2)"></path>
                        <path d="M36.407,13.926 C36.209,13.926 36.01,14.041 35.859,14.271 L31.631,18.499 C31.171,18.8 31.171,19.294 31.631,19.596 L35.859,23.824 C36.01,24.054 36.209,24.169 36.407,24.169 C36.606,24.169 36.805,24.054 36.956,23.824 L41.184,19.596 C41.644,19.294 41.644,18.8 41.184,18.499 L36.956,14.271 C36.805,14.041 36.606,13.926 36.407,13.926" id="Fill-9" fill="#FEC800" sketch:type="MSShapeGroup" mask="url(#mask-2)"></path>
                        <path d="M9.079,41.394 C9.665,42.567 10.278,43.721 10.921,44.859 L11.184,44.596 C11.644,44.294 11.644,43.801 11.184,43.499 L9.079,41.394" id="Fill-10" fill="#FEC800" sketch:type="MSShapeGroup" mask="url(#mask-2)"></path>
                        <path d="M3.585,2.439 C2.635,2.439 1.726,2.982 1.307,3.904 C0.736,5.161 1.292,6.643 2.549,7.214 L10.549,10.85 C10.884,11.002 11.236,11.075 11.582,11.075 C12.532,11.075 13.441,10.53 13.859,9.608 C14.43,8.351 13.875,6.87 12.617,6.298 L4.617,2.663 C4.282,2.511 3.931,2.439 3.585,2.439" id="Fill-11" fill="#FEC800" sketch:type="MSShapeGroup" mask="url(#mask-2)"></path>
                    </g>
                    <g id="Group-21" transform="translate(97.000000, 71.000000)">
                        <mask id="mask-4" sketch:name="Clip 14" fill="white">
                            <use xlink:href="#path-3"></use>
                        </mask>
                        <g id="Clip-14"></g>
                        <path d="M0,65.315 L0,74.78 L4.184,70.596 C4.644,70.294 4.644,69.8 4.184,69.499 L0,65.315" id="Fill-13" fill="#FEC800" sketch:type="MSShapeGroup" mask="url(#mask-4)"></path>
                        <path d="M59.407,14.926 C59.291,14.926 59.175,14.965 59.068,15.043 C58.79,17.987 58.349,20.879 57.753,23.718 L58.079,24.044 C58.718,21.066 59.186,18.024 59.474,14.93 C59.452,14.927 59.43,14.926 59.407,14.926" id="Fill-15" fill="#FEF8EF" sketch:type="MSShapeGroup" mask="url(#mask-4)"></path>
                        <path d="M59.068,15.043 C58.993,15.099 58.922,15.175 58.859,15.271 L54.631,19.499 C54.171,19.8 54.171,20.294 54.631,20.596 L57.753,23.718 C58.349,20.879 58.79,17.987 59.068,15.043" id="Fill-16" fill="#FEC800" sketch:type="MSShapeGroup" mask="url(#mask-4)"></path>
                        <path d="M29.408,39.925 C29.209,39.925 29.01,40.041 28.859,40.27 L24.631,44.499 C24.171,44.801 24.171,45.294 24.631,45.596 L28.859,49.824 C29.01,50.054 29.209,50.169 29.408,50.169 C29.606,50.169 29.805,50.054 29.956,49.824 L34.184,45.596 C34.644,45.294 34.644,44.801 34.184,44.499 L29.956,40.27 C29.805,40.041 29.606,39.925 29.408,39.925" id="Fill-17" fill="#FEC800" sketch:type="MSShapeGroup" mask="url(#mask-4)"></path>
                        <path d="M5.024,1 L0,1 L0,9.895 C3.144,9.523 5.583,6.849 5.583,3.605 C5.583,2.677 5.383,1.795 5.024,1" id="Fill-18" fill="#FEC800" sketch:type="MSShapeGroup" mask="url(#mask-4)"></path>
                        <path d="M0,29.745 L0,35.237 L3.549,36.85 C3.884,37.002 4.235,37.075 4.582,37.075 C5.532,37.075 6.441,36.53 6.859,35.608 C7.43,34.351 6.875,32.87 5.617,32.298 L0,29.745" id="Fill-19" fill="#FEC800" sketch:type="MSShapeGroup" mask="url(#mask-4)"></path>
                        <path d="M26.585,3.439 C25.635,3.439 24.726,3.982 24.307,4.904 C23.736,6.161 24.292,7.643 25.549,8.214 L33.549,11.85 C33.884,12.002 34.235,12.075 34.582,12.075 C35.532,12.075 36.441,11.53 36.859,10.608 C37.43,9.351 36.875,7.87 35.617,7.298 L27.617,3.663 C27.282,3.511 26.931,3.439 26.585,3.439" id="Fill-20" fill="#FEC800" sketch:type="MSShapeGroup" mask="url(#mask-4)"></path>
                    </g>
                    <g id="Group-33" transform="translate(1.000000, 0.000000)">
                        <mask id="mask-6" sketch:name="Clip 23" fill="white">
                            <use xlink:href="#path-5"></use>
                        </mask>
                        <g id="Clip-23"></g>
                        <path d="M95.25,68.272 C92.681,68.272 90.469,69.802 89.475,72 L96,72 L96,68.316 C95.754,68.287 95.504,68.272 95.25,68.272" id="Fill-22" fill="#FEC800" sketch:type="MSShapeGroup" mask="url(#mask-6)"></path>
                        <path d="M95.407,35.926 C95.209,35.926 95.01,36.041 94.859,36.27 L90.631,40.499 C90.171,40.801 90.171,41.294 90.631,41.596 L94.859,45.824 C95.01,46.054 95.209,46.169 95.407,46.169 C95.606,46.169 95.805,46.054 95.956,45.824 L96,45.78 L96,36.315 L95.956,36.27 C95.805,36.041 95.606,35.926 95.407,35.926" id="Fill-24" fill="#FEC800" sketch:type="MSShapeGroup" mask="url(#mask-6)"></path>
                        <path d="M65.407,60.926 C65.209,60.926 65.01,61.041 64.859,61.271 L60.631,65.499 C60.171,65.801 60.171,66.294 60.631,66.596 L64.859,70.824 C65.01,71.054 65.209,71.169 65.407,71.169 C65.606,71.169 65.805,71.054 65.956,70.824 L70.184,66.596 C70.644,66.294 70.644,65.801 70.184,65.499 L65.956,61.271 C65.805,61.041 65.606,60.926 65.407,60.926" id="Fill-25" fill="#FEC800" sketch:type="MSShapeGroup" mask="url(#mask-6)"></path>
                        <path d="M90.103,1.621 C90.1,1.642 90.098,1.662 90.096,1.683 C92.09,2.008 94.059,2.409 96,2.882 L96,2.787 C94.06,2.324 92.096,1.935 90.103,1.621" id="Fill-26" fill="#FEF8EF" sketch:type="MSShapeGroup" mask="url(#mask-6)"></path>
                        <path d="M90.096,1.683 C89.989,2.722 90.545,3.758 91.549,4.214 L96,6.237 L96,2.882 C94.059,2.409 92.09,2.008 90.096,1.683" id="Fill-27" fill="#FEC800" sketch:type="MSShapeGroup" mask="url(#mask-6)"></path>
                        <path d="M71.445,0.926 C67.459,1.25 63.561,1.874 59.766,2.776 C60.862,4.667 62.907,5.939 65.25,5.939 C68.295,5.939 70.838,3.79 71.445,0.926" id="Fill-28" fill="#FEC800" sketch:type="MSShapeGroup" mask="url(#mask-6)"></path>
                        <path d="M62.585,24.439 C61.635,24.439 60.726,24.982 60.307,25.904 C59.736,27.161 60.292,28.643 61.549,29.214 L69.549,32.85 C69.884,33.002 70.235,33.075 70.582,33.075 C71.532,33.075 72.441,32.53 72.859,31.608 C73.43,30.351 72.875,28.87 71.617,28.298 L63.617,24.663 C63.282,24.511 62.931,24.439 62.585,24.439" id="Fill-29" fill="#FEC800" sketch:type="MSShapeGroup" mask="url(#mask-6)"></path>
                        <path d="M35.25,18.272 C31.752,18.272 28.916,21.107 28.916,24.605 C28.916,28.103 31.752,30.939 35.25,30.939 C38.747,30.939 41.583,28.103 41.583,24.605 C41.583,21.107 38.747,18.272 35.25,18.272" id="Fill-30" fill="#FEC800" sketch:type="MSShapeGroup" mask="url(#mask-6)"></path>
                        <path d="M32.585,49.439 C31.635,49.439 30.726,49.982 30.307,50.904 C29.736,52.161 30.292,53.643 31.549,54.214 L39.549,57.85 C39.884,58.002 40.236,58.075 40.582,58.075 C41.532,58.075 42.441,57.53 42.859,56.608 C43.43,55.351 42.875,53.87 41.617,53.298 L33.617,49.662 C33.282,49.511 32.931,49.439 32.585,49.439" id="Fill-31" fill="#FEC800" sketch:type="MSShapeGroup" mask="url(#mask-6)"></path>
                        <path d="M8.04,43.918 C6.173,47.667 4.6,51.586 3.349,55.648 C3.949,55.837 4.588,55.938 5.25,55.938 C8.747,55.938 11.583,53.103 11.583,49.605 C11.583,47.109 10.138,44.95 8.04,43.918" id="Fill-32" fill="#FEC800" sketch:type="MSShapeGroup" mask="url(#mask-6)"></path>
                    </g>
                    <g id="Group-44" transform="translate(97.000000, 2.000000)">
                        <mask id="mask-8" sketch:name="Clip 35" fill="white">
                            <use xlink:href="#path-7"></use>
                        </mask>
                        <g id="Clip-35"></g>
                        <path d="M0,66.316 L0,70 L5.024,70 C4.129,68.019 2.244,66.581 0,66.316" id="Fill-34" fill="#FEC800" sketch:type="MSShapeGroup" mask="url(#mask-8)"></path>
                        <path d="M0,34.315 L0,43.78 L4.184,39.596 C4.644,39.294 4.644,38.801 4.184,38.499 L0,34.315" id="Fill-36" fill="#FEC800" sketch:type="MSShapeGroup" mask="url(#mask-8)"></path>
                        <path d="M54.57,48.455 C54.479,48.579 54.398,48.713 54.329,48.856 C54.749,49.957 55.146,51.075 55.517,52.199 C55.527,52.204 55.538,52.209 55.549,52.214 L55.982,52.411 C55.546,51.077 55.075,49.756 54.57,48.455" id="Fill-37" fill="#FEF8EF" sketch:type="MSShapeGroup" mask="url(#mask-8)"></path>
                        <path d="M54.329,48.856 C54.322,48.872 54.315,48.888 54.307,48.904 C53.741,50.15 54.282,51.618 55.517,52.199 C55.146,51.075 54.749,49.957 54.329,48.856" id="Fill-38" fill="#FEC800" sketch:type="MSShapeGroup" mask="url(#mask-8)"></path>
                        <path d="M29.25,41.272 C25.752,41.272 22.916,44.107 22.916,47.605 C22.916,51.103 25.752,53.938 29.25,53.938 C32.747,53.938 35.583,51.103 35.583,47.605 C35.583,44.107 32.747,41.272 29.25,41.272" id="Fill-39" fill="#FEC800" sketch:type="MSShapeGroup" mask="url(#mask-8)"></path>
                        <path d="M25.865,12.264 L25.704,12.425 C27.793,13.867 29.805,15.407 31.739,17.041 L31.92,16.86 C29.98,15.233 27.959,13.699 25.865,12.264" id="Fill-40" fill="#FEF8EF" sketch:type="MSShapeGroup" mask="url(#mask-8)"></path>
                        <path d="M25.704,12.425 L24.631,13.499 C24.171,13.8 24.171,14.294 24.631,14.596 L28.859,18.824 C29.01,19.054 29.209,19.169 29.408,19.169 C29.606,19.169 29.805,19.054 29.956,18.824 L31.739,17.041 C29.805,15.407 27.793,13.867 25.704,12.425" id="Fill-41" fill="#FEC800" sketch:type="MSShapeGroup" mask="url(#mask-8)"></path>
                        <path d="M0,0.787 L0,0.882 C2.381,1.462 4.713,2.151 7.003,2.944 C6.989,2.894 6.974,2.843 6.958,2.793 C4.686,2.021 2.361,1.349 0,0.787" id="Fill-42" fill="#FEF8EF" sketch:type="MSShapeGroup" mask="url(#mask-8)"></path>
                        <path d="M0,0.882 L0,4.237 L3.549,5.85 C3.884,6.002 4.235,6.075 4.582,6.075 C5.532,6.075 6.441,5.53 6.859,4.608 C7.106,4.065 7.142,3.48 7.003,2.944 C4.713,2.151 2.381,1.462 0,0.882" id="Fill-43" fill="#FEC800" sketch:type="MSShapeGroup" mask="url(#mask-8)"></path>
                    </g>
                    <path d="M111.5,108 L46.5,108 C45.119,108 44,106.881 44,105.5 L44,52.5 C44,51.119 45.119,50 46.5,50 L111.5,50 C112.881,50 114,51.119 114,52.5 L114,105.5 C114,106.881 112.881,108 111.5,108 L111.5,108 Z M49,103 L109,103 L109,55 L49,55 L49,103 Z" id="Fill-45" fill="#FFFFFF" sketch:type="MSShapeGroup"></path>
                    <path d="M111,66 L47,66 C45.619,66 44.5,64.881 44.5,63.5 C44.5,62.119 45.619,61 47,61 L111,61 C112.381,61 113.5,62.119 113.5,63.5 C113.5,64.881 112.381,66 111,66" id="Fill-46" fill="#FFFFFF" sketch:type="MSShapeGroup"></path>
                    <path d="M70.604,87.839 C71.256,88.165 71.707,88.817 71.707,89.414 C71.707,90.392 71.03,91.179 70.002,91.179 C69.901,91.179 69.45,91.125 69.199,90.989 L59.217,85.803 C58.515,85.423 57.938,85.07 57.938,84.011 C57.938,82.925 58.49,82.599 59.192,82.219 L69.199,77.006 C69.425,76.87 69.851,76.816 70.002,76.816 C71.03,76.816 71.707,77.63 71.707,78.581 C71.707,79.205 71.231,79.857 70.604,80.183 L62.954,84.011 L70.604,87.839" id="Fill-47" fill="#FFFFFF" sketch:type="MSShapeGroup"></path>
                    <path d="M76.773,93.623 C76.472,94.464 75.669,94.899 74.867,94.762 C73.964,94.573 73.237,93.677 73.513,92.808 L80.059,74.128 C80.36,73.286 81.137,72.851 81.94,73.015 C82.792,73.178 83.395,74.074 83.319,74.915 C83.294,75.078 83.244,75.213 83.194,75.322 L76.773,93.623" id="Fill-48" fill="#FFFFFF" sketch:type="MSShapeGroup"></path>
                    <path d="M93.824,84.011 L86.174,80.183 C85.548,79.857 85.071,79.205 85.071,78.581 C85.071,77.63 85.748,76.816 86.777,76.816 C86.927,76.816 87.353,76.87 87.579,77.006 L97.586,82.219 C98.289,82.599 98.84,82.925 98.84,84.011 C98.84,85.07 98.263,85.423 97.561,85.803 L87.579,90.989 C87.328,91.125 86.877,91.179 86.777,91.179 C85.748,91.179 85.071,90.392 85.071,89.414 C85.071,88.817 85.523,88.165 86.174,87.839 L93.824,84.011" id="Fill-49" fill="#FFFFFF" sketch:type="MSShapeGroup"></path>
                </g>
            </g>
        </g>
    </g>
</svg>