<?xml version="1.0" encoding="UTF-8" standalone="no"?>
<svg width="136px" height="247px" viewBox="0 0 136 247" version="1.1" xmlns="http://www.w3.org/2000/svg" xmlns:xlink="http://www.w3.org/1999/xlink" xmlns:sketch="http://www.bohemiancoding.com/sketch/ns">
    <!-- Generator: Sketch 3.3.2 (12043) - http://www.bohemiancoding.com/sketch -->
    <title>Shape</title>
    <desc>Created with Sketch.</desc>
    <defs>
        <linearGradient x1="5.11416052%" y1="-48.2072536%" x2="50%" y2="140.8125%" id="linearGradient-1">
            <stop stop-color="#3151E0" offset="0%"></stop>
            <stop stop-color="#D983E5" offset="100%"></stop>
        </linearGradient>
    </defs>
    <g id="Page-1" stroke="none" stroke-width="1" fill="none" fill-rule="evenodd" sketch:type="MSPage">
        <g id="Desktop-HD" sketch:type="MSArtboardGroup" transform="translate(-290.000000, -452.000000)" fill="url(#linearGradient-1)">
            <path d="M303.5,478.5 C310.679702,478.5 316.5,472.679702 316.5,465.5 C316.5,458.320298 310.679702,452.5 303.5,452.5 C296.320298,452.5 290.5,458.320298 290.5,465.5 C290.5,472.679702 296.320298,478.5 303.5,478.5 L303.5,478.5 Z M303.5,475.5 C297.977153,475.5 293.5,471.022847 293.5,465.5 C293.5,459.977153 297.977153,455.5 303.5,455.5 C309.022847,455.5 313.5,459.977153 313.5,465.5 C313.5,471.022847 309.022847,475.5 303.5,475.5 Z M415,591.5 C421.075132,591.5 426,586.575132 426,580.5 C426,574.424868 421.075132,569.5 415,569.5 C408.924868,569.5 404,574.424868 404,580.5 C404,586.575132 408.924868,591.5 415,591.5 Z M415,588.5 C410.581722,588.5 407,584.918278 407,580.5 C407,576.081722 410.581722,572.5 415,572.5 C419.418278,572.5 423,576.081722 423,580.5 C423,584.918278 419.418278,588.5 415,588.5 Z M313,698.5 C322.388841,698.5 330,690.888841 330,681.5 C330,672.111159 322.388841,664.5 313,664.5 C303.611159,664.5 296,672.111159 296,681.5 C296,690.888841 303.611159,698.5 313,698.5 Z M313,695.5 C305.268014,695.5 299,689.231986 299,681.5 C299,673.768014 305.268014,667.5 313,667.5 C320.731986,667.5 327,673.768014 327,681.5 C327,689.231986 320.731986,695.5 313,695.5 Z M309.93934,476.56066 L405.733392,572.354712 L406.794052,573.415372 L408.915372,571.294052 L407.854712,570.233392 L312.06066,474.43934 L311,473.37868 L308.87868,475.5 L309.93934,476.56066 Z M405.733392,587.042314 L324.62741,668.148294 L323.56675,669.208954 L325.68807,671.330274 L326.74873,670.269614 L407.854712,589.163634 L408.915372,588.102974 L406.794052,585.981654 L405.733392,587.042314 Z" id="Shape" sketch:type="MSShapeGroup"></path>
        </g>
    </g>
</svg>